# This file uses centimeters as units for non-parametric coordinates.

mtllib InwardCurvedWall_Lower_4edges.mtl
g default
v -2.034613 0.000000 0.000000
v -2.034613 2.685362 0.000000
v -0.833346 1.920608 0.000000
v -0.391830 1.273464 0.000000
v 0.006036 0.000000 -0.006036
v 0.006036 1.268013 -0.006036
v -1.210960 2.692378 0.000000
v -1.405727 2.783059 0.000000
v 0.000000 0.000000 -2.046684
v 0.000000 2.685362 -2.046684
v 0.000000 1.920608 -0.845417
v 0.000000 1.262561 -0.403901
v 0.000000 2.783059 -1.417798
v 0.000000 2.692378 -1.223031
v -0.391830 1.270741 -0.275911
v -0.801531 1.920612 -0.483999
v -1.167057 2.692383 -0.551875
v -1.355592 2.783064 -0.586877
v -1.964357 2.685369 -0.699883
v -1.964381 0.000007 -0.699812
v -0.391830 1.265284 -0.403901
v -0.694714 1.920608 -0.704912
v -0.952221 2.692378 -0.959264
v -1.085048 2.783059 -1.090447
v -1.513944 2.685362 -1.514011
v -1.514022 -0.000000 -1.513933
v -0.241798 1.265284 -0.403901
v -0.480519 1.920604 -0.813174
v -0.550075 2.692373 -1.178093
v -0.585958 2.783054 -1.366310
v -0.701834 2.685355 -1.974043
v -0.701904 -0.000007 -1.974019
v -1.405727 2.783059 8.000000
v -2.034613 2.685362 8.000000
v -0.833346 1.920608 8.000000
v -1.210960 2.692378 8.000000
v -0.391830 1.273464 8.000000
v 0.006036 1.268013 8.006036
v 0.006036 -0.000000 8.006036
v -2.034613 0.000000 8.000000
v 0.000000 2.685362 10.046684
v 0.000000 2.783059 9.417798
v 0.000000 2.692378 9.223031
v -0.000000 1.920608 8.845417
v -0.000000 1.262561 8.403901
v -0.000000 0.000000 10.046684
v -1.964357 2.685369 8.699883
v -1.964381 0.000007 8.699812
v -1.355592 2.783064 8.586877
v -1.167057 2.692383 8.551875
v -0.801531 1.920612 8.483999
v -0.391830 1.270741 8.275910
v -0.391830 1.265284 8.403901
v -0.694714 1.920608 8.704911
v -0.952221 2.692378 8.959265
v -1.085048 2.783059 9.090446
v -1.513944 2.685362 9.514011
v -1.514022 -0.000000 9.513933
v -0.241798 1.265284 8.403901
v -0.480519 1.920604 8.813173
v -0.550075 2.692373 9.178093
v -0.585958 2.783054 9.366310
v -0.701834 2.685355 9.974043
v -0.701904 -0.000007 9.974019
v 9.411762 2.783059 -0.000000
v 10.040648 2.685362 -0.000000
v 10.040648 2.685362 8.000000
v 9.411762 2.783059 8.000000
v 8.839382 1.920608 0.000000
v 9.216995 2.692378 -0.000000
v 9.216995 2.692378 8.000000
v 8.839382 1.920608 8.000000
v 8.397865 1.273464 0.000000
v 8.397865 1.273464 8.000000
v 8.000000 1.268013 -0.006036
v 8.000000 1.268013 8.006036
v 8.000000 -0.000000 -0.006036
v 8.000000 0.000000 8.006036
v 10.040648 0.000000 -0.000000
v 10.040648 -0.000000 8.000000
v 8.006036 2.685362 -2.046684
v 8.006036 2.783059 -1.417798
v 8.006036 2.692378 -1.223031
v 8.006036 1.920608 -0.845417
v 8.006036 1.262561 -0.403901
v 8.006036 0.000000 -2.046684
v 9.970393 2.685369 -0.699883
v 9.970416 0.000007 -0.699812
v 9.361628 2.783064 -0.586877
v 9.173093 2.692383 -0.551875
v 8.807567 1.920612 -0.483999
v 8.397865 1.270741 -0.275911
v 8.397865 1.265284 -0.403901
v 8.700750 1.920608 -0.704912
v 8.958257 2.692378 -0.959264
v 9.091084 2.783059 -1.090447
v 9.519980 2.685362 -1.514011
v 9.520058 -0.000000 -1.513933
v 8.247834 1.265284 -0.403901
v 8.486555 1.920604 -0.813174
v 8.556110 2.692373 -1.178093
v 8.591994 2.783054 -1.366310
v 8.707870 2.685355 -1.974043
v 8.707940 -0.000007 -1.974019
v 8.006036 2.783059 9.417798
v 8.006036 2.685362 10.046684
v 8.006036 1.920608 8.845417
v 8.006036 2.692378 9.223031
v 8.006036 1.262561 8.403901
v 8.006036 0.000000 10.046684
v 9.970416 0.000007 8.699812
v 9.970393 2.685369 8.699883
v 9.361628 2.783064 8.586877
v 9.173093 2.692383 8.551875
v 8.807567 1.920612 8.483999
v 8.397865 1.270741 8.275910
v 8.700750 1.920608 8.704911
v 8.397865 1.265284 8.403901
v 8.958257 2.692378 8.959265
v 9.091084 2.783059 9.090446
v 9.519980 2.685362 9.514011
v 9.520058 -0.000000 9.513933
v 8.486555 1.920604 8.813173
v 8.247834 1.265284 8.403901
v 8.556110 2.692373 9.178093
v 8.591994 2.783054 9.366310
v 8.707870 2.685355 9.974043
v 8.707940 -0.000007 9.974019
vt 0.329952 0.932133
vt 0.222063 0.939736
vt 0.312777 0.997304
vt 0.312876 0.932107
vt 0.229143 0.928609
vt 0.329813 0.884131
vt 0.238531 0.928609
vt 0.329812 0.816704
vt 0.231163 0.924893
vt 0.240307 0.924893
vt 0.236491 0.909225
vt 0.244536 0.909225
vt 0.242326 0.892005
vt 0.246841 0.892005
vt 0.248945 0.892005
vt 0.167248 0.858145
vt 0.248800 0.909225
vt 0.167248 0.997517
vt 0.248644 0.924893
vt 0.248601 0.928609
vt 0.290188 0.997270
vt 0.290330 0.984392
vt 0.251399 0.892005
vt 0.253001 0.909225
vt 0.256972 0.924893
vt 0.258687 0.928609
vt 0.267527 0.997236
vt 0.267626 0.932039
vt 0.255353 0.892005
vt 0.261032 0.909225
vt 0.266181 0.924893
vt 0.268146 0.928609
vt 0.250397 0.997210
vt 0.253178 0.976625
vt 0.252512 0.885479
vt 0.290222 0.935279
vt 0.167248 0.883861
vt 0.167248 0.891842
vt 0.167248 0.816705
vt 0.329813 0.930055
vt 0.329813 0.858268
vt 0.167248 0.942822
vt 0.167248 0.907983
vt 0.167248 0.929859
vt 0.167248 0.925483
vt 0.329814 0.997516
vt 0.329813 0.892333
vt 0.329813 0.908243
vt 0.329814 0.942981
vt 0.329813 0.925692
vt 0.263950 0.939736
vt 0.275104 0.939736
vt 0.248471 0.939736
vt 0.233089 0.939736
vt 0.329854 0.997329
vt 0.245290 0.885492
vt 0.269104 0.981634
vt 0.250494 0.932014
vt 0.290287 0.932073
vt 0.311317 0.981737
vt 0.327220 0.976684
vt 0.167345 0.930056
vt 0.167345 0.942982
vt 0.167345 0.908244
vt 0.167345 0.925693
vt 0.167345 0.892334
vt 0.167345 0.884132
vt 0.167345 0.858269
vt 0.167345 0.816705
vt 0.167345 0.997517
vt 0.329887 0.942821
vt 0.329887 0.929858
vt 0.329887 0.925482
vt 0.329887 0.907982
vt 0.329887 0.891841
vt 0.329887 0.883860
vt 0.329886 0.858144
vt 0.329886 0.816704
vt 0.329887 0.997516
vt 0.329952 0.932133
vt 0.329854 0.997329
vt 0.312777 0.997304
vt 0.312876 0.932107
vt 0.222063 0.939736
vt 0.229143 0.928609
vt 0.238531 0.928609
vt 0.233089 0.939736
vt 0.231163 0.924893
vt 0.240307 0.924893
vt 0.236491 0.909225
vt 0.244536 0.909225
vt 0.242326 0.892005
vt 0.246841 0.892005
vt 0.248945 0.892005
vt 0.248800 0.909225
vt 0.248644 0.924893
vt 0.248601 0.928609
vt 0.248471 0.939736
vt 0.290188 0.997270
vt 0.290287 0.932073
vt 0.251399 0.892005
vt 0.253001 0.909225
vt 0.256972 0.924893
vt 0.258687 0.928609
vt 0.263950 0.939736
vt 0.267527 0.997236
vt 0.267626 0.932039
vt 0.255353 0.892005
vt 0.261032 0.909225
vt 0.266181 0.924893
vt 0.268146 0.928609
vt 0.275104 0.939736
vt 0.250397 0.997210
vt 0.250494 0.932014
vt 0.245290 0.885492
vt 0.327220 0.976684
vt 0.311317 0.981737
vt 0.290330 0.984392
vt 0.290222 0.935279
vt 0.269104 0.981634
vt 0.253178 0.976625
vt 0.252512 0.885479
vt 0.329813 0.930055
vt 0.329814 0.942981
vt 0.167345 0.942982
vt 0.167345 0.930056
vt 0.329813 0.908243
vt 0.329813 0.925692
vt 0.167345 0.925693
vt 0.167345 0.908244
vt 0.329813 0.892333
vt 0.167345 0.892334
vt 0.329813 0.884131
vt 0.167345 0.884132
vt 0.329813 0.858268
vt 0.167345 0.858269
vt 0.329812 0.816704
vt 0.167345 0.816705
vt 0.329814 0.997516
vt 0.167345 0.997517
vt 0.329716 0.942822
vt 0.329716 0.929859
vt 0.329716 0.925483
vt 0.329716 0.907983
vt 0.329716 0.891842
vt 0.329716 0.883861
vt 0.329716 0.858145
vt 0.329716 0.816705
vt 0.329716 0.997517
vt 0.329952 0.932133
vt 0.329854 0.997329
vt 0.312777 0.997304
vt 0.312876 0.932107
vt 0.222063 0.939736
vt 0.229143 0.928609
vt 0.238531 0.928609
vt 0.233089 0.939736
vt 0.231163 0.924893
vt 0.240307 0.924893
vt 0.236491 0.909225
vt 0.244536 0.909225
vt 0.242326 0.892005
vt 0.246841 0.892005
vt 0.248945 0.892005
vt 0.248800 0.909225
vt 0.248644 0.924893
vt 0.248601 0.928609
vt 0.248471 0.939736
vt 0.290188 0.997270
vt 0.290287 0.932073
vt 0.251399 0.892005
vt 0.253001 0.909225
vt 0.256972 0.924893
vt 0.258687 0.928609
vt 0.263950 0.939736
vt 0.267527 0.997236
vt 0.267626 0.932039
vt 0.255353 0.892005
vt 0.261032 0.909225
vt 0.266181 0.924893
vt 0.268146 0.928609
vt 0.275104 0.939736
vt 0.250397 0.997210
vt 0.250494 0.932014
vt 0.245290 0.885492
vt 0.327220 0.976684
vt 0.311317 0.981737
vt 0.290330 0.984392
vt 0.290222 0.935279
vt 0.269104 0.981634
vt 0.253178 0.976625
vt 0.252512 0.885479
vt 0.167419 0.929859
vt 0.167419 0.942822
vt 0.167419 0.907983
vt 0.167419 0.925483
vt 0.167419 0.891842
vt 0.167419 0.883861
vt 0.167419 0.858145
vt 0.167419 0.816705
vt 0.167419 0.997517
vt 0.329952 0.932133
vt 0.312876 0.932107
vt 0.312777 0.997304
vt 0.329854 0.997329
vt 0.222063 0.939736
vt 0.233089 0.939736
vt 0.238531 0.928609
vt 0.229143 0.928609
vt 0.240307 0.924893
vt 0.231163 0.924893
vt 0.244536 0.909225
vt 0.236491 0.909225
vt 0.246841 0.892005
vt 0.242326 0.892005
vt 0.248800 0.909225
vt 0.248945 0.892005
vt 0.248644 0.924893
vt 0.248601 0.928609
vt 0.248471 0.939736
vt 0.290287 0.932073
vt 0.290188 0.997270
vt 0.253001 0.909225
vt 0.251399 0.892005
vt 0.256972 0.924893
vt 0.258687 0.928609
vt 0.263950 0.939736
vt 0.267626 0.932039
vt 0.267527 0.997236
vt 0.261032 0.909225
vt 0.255353 0.892005
vt 0.266181 0.924893
vt 0.268146 0.928609
vt 0.275104 0.939736
vt 0.250494 0.932014
vt 0.250397 0.997210
vt 0.245290 0.885492
vt 0.327220 0.976684
vt 0.290222 0.935279
vt 0.290330 0.984392
vt 0.311317 0.981737
vt 0.253178 0.976625
vt 0.269104 0.981634
vt 0.252512 0.885479
vn -0.153597 0.988133 -0.001122
vn -0.153588 0.988134 -0.001006
vn -0.153588 0.988134 0.001006
vn -0.153597 0.988133 0.001122
vn 0.866579 0.499031 0.002836
vn 0.898335 0.439293 0.003910
vn 0.898335 0.439293 -0.003910
vn 0.866579 0.499031 -0.002836
vn 0.826404 0.563076 0.001491
vn 0.826404 0.563076 -0.001491
vn 0.013700 0.999906 0.000000
vn 0.013700 0.999906 0.000000
vn 0.013700 0.999906 0.000000
vn 0.013700 0.999906 0.000000
vn 1.000000 0.000000 0.000000
vn 1.000000 0.000000 0.000000
vn 1.000000 0.000000 0.000000
vn 1.000000 0.000000 0.000000
vn -0.000000 -1.000000 0.000000
vn -0.000000 -1.000000 0.000000
vn -0.000000 -1.000000 0.000000
vn -0.000000 -1.000000 0.000000
vn -0.999967 0.000000 -0.008074
vn -0.999967 0.000000 -0.008074
vn -0.999967 0.000000 0.008074
vn -0.999967 0.000000 0.008074
vn 0.422287 0.906459 0.002416
vn 0.422270 0.906468 0.002211
vn 0.422270 0.906468 -0.002211
vn 0.422287 0.906459 -0.002416
vn -0.001036 0.988134 -0.153592
vn -0.001159 0.988132 -0.153601
vn 0.001159 0.988132 -0.153601
vn 0.001036 0.988134 -0.153592
vn 0.003981 0.439284 0.898339
vn 0.002963 0.496199 0.868204
vn -0.002963 0.496199 0.868204
vn -0.003981 0.439284 0.898339
vn 0.001675 0.556801 0.830644
vn -0.001675 0.556801 0.830644
vn 0.000000 0.999906 -0.013701
vn 0.000000 0.999906 -0.013701
vn 0.000000 0.999906 -0.013701
vn 0.000000 0.999906 -0.013701
vn 0.000000 0.000000 1.000000
vn 0.000000 0.000000 1.000000
vn 0.000000 0.000000 1.000000
vn 0.000000 0.000000 1.000000
vn 0.000000 -1.000000 -0.000000
vn 0.000000 -1.000000 -0.000000
vn 0.000000 -1.000000 -0.000000
vn 0.000000 -1.000000 -0.000000
vn -0.008343 -0.000000 -0.999965
vn -0.008343 -0.000000 -0.999965
vn 0.008343 -0.000000 -0.999965
vn 0.008343 -0.000000 -0.999965
vn 0.002262 0.906464 0.422278
vn 0.002478 0.906454 0.422297
vn -0.002478 0.906454 0.422297
vn -0.002262 0.906464 0.422278
vn -0.945647 0.000003 -0.325196
vn -0.945649 0.000003 -0.325189
vn -0.149267 0.987521 -0.050209
vn -0.149982 0.987640 -0.045528
vn 0.412182 0.903006 0.121189
vn 0.413889 0.903566 0.110743
vn 0.862517 0.473799 0.177707
vn 0.877601 0.433606 0.204455
vn 0.830568 0.550084 0.086979
vn 0.809812 0.535560 0.239542
vn 0.813962 0.449658 0.367796
vn 0.810389 0.413711 0.414865
vn 0.308525 0.901226 0.304309
vn 0.308528 0.901226 0.304305
vn -0.112943 0.987293 -0.111785
vn -0.112978 0.987293 -0.111750
vn -0.875025 0.000003 -0.484077
vn -0.875025 0.000003 -0.484077
vn 0.374664 0.451583 0.809753
vn 0.240287 0.537385 0.808381
vn 0.092014 0.547631 0.831645
vn 0.185363 0.472713 0.861500
vn 0.426894 0.413179 0.804391
vn 0.209686 0.433744 0.876298
vn 0.124256 0.902999 0.411283
vn 0.113292 0.903579 0.413170
vn -0.051361 0.987511 -0.148946
vn -0.046507 0.987634 -0.149723
vn -0.492900 -0.000003 -0.870086
vn -0.492900 -0.000003 -0.870086
vn -0.331911 -0.000003 -0.943311
vn -0.331918 -0.000003 -0.943308
vn 0.014005 0.999776 -0.015873
vn 0.013876 0.999779 -0.015787
vn 0.020587 0.999583 -0.020245
vn 0.020587 0.999583 -0.020245
vn -0.000003 -1.000000 -0.000001
vn -0.000003 -1.000000 -0.000001
vn -0.000001 -1.000000 0.000001
vn -0.000001 -1.000000 0.000001
vn 0.000001 -1.000000 0.000003
vn 0.000001 -1.000000 0.000003
vn 0.006948 0.999913 -0.011185
vn 0.006948 0.999913 -0.011185
vn -0.001159 0.988132 0.153601
vn -0.001036 0.988134 0.153592
vn 0.001036 0.988134 0.153592
vn 0.001159 0.988132 0.153601
vn 0.002963 0.496199 -0.868204
vn 0.003981 0.439284 -0.898339
vn -0.003981 0.439284 -0.898339
vn -0.002963 0.496199 -0.868204
vn 0.001675 0.556801 -0.830644
vn -0.001675 0.556801 -0.830644
vn 0.000000 0.999906 0.013701
vn 0.000000 0.999906 0.013701
vn 0.000000 0.999906 0.013701
vn 0.000000 0.999906 0.013701
vn 0.000000 0.000000 -1.000000
vn 0.000000 0.000000 -1.000000
vn 0.000000 0.000000 -1.000000
vn 0.000000 0.000000 -1.000000
vn 0.000000 -1.000000 0.000000
vn 0.000000 -1.000000 0.000000
vn 0.000000 -1.000000 0.000000
vn 0.000000 -1.000000 0.000000
vn -0.008343 -0.000000 0.999965
vn -0.008343 -0.000000 0.999965
vn 0.008343 -0.000000 0.999965
vn 0.008343 -0.000000 0.999965
vn 0.002478 0.906454 -0.422297
vn 0.002262 0.906464 -0.422278
vn -0.002262 0.906464 -0.422278
vn -0.002478 0.906454 -0.422296
vn -0.945649 0.000003 0.325189
vn -0.945647 0.000003 0.325196
vn -0.149982 0.987640 0.045528
vn -0.149268 0.987521 0.050209
vn 0.413889 0.903566 -0.110743
vn 0.412182 0.903006 -0.121189
vn 0.877601 0.433606 -0.204455
vn 0.862517 0.473799 -0.177707
vn 0.830568 0.550084 -0.086979
vn 0.813962 0.449658 -0.367796
vn 0.809810 0.535562 -0.239542
vn 0.810390 0.413711 -0.414864
vn 0.308528 0.901226 -0.304306
vn 0.308525 0.901226 -0.304309
vn -0.112978 0.987293 0.111750
vn -0.112943 0.987293 0.111785
vn -0.875026 0.000003 0.484077
vn -0.875026 0.000003 0.484077
vn 0.374664 0.451583 -0.809753
vn 0.185363 0.472713 -0.861501
vn 0.092013 0.547631 -0.831645
vn 0.240290 0.537384 -0.808381
vn 0.426894 0.413179 -0.804391
vn 0.209686 0.433744 -0.876298
vn 0.113292 0.903579 -0.413170
vn 0.124256 0.902998 -0.411284
vn -0.046507 0.987634 0.149723
vn -0.051361 0.987511 0.148946
vn -0.492900 -0.000003 0.870086
vn -0.331918 -0.000003 0.943308
vn -0.331911 -0.000003 0.943311
vn -0.492900 -0.000003 0.870086
vn 0.014005 0.999776 0.015873
vn 0.020587 0.999583 0.020245
vn 0.020587 0.999583 0.020245
vn 0.013876 0.999779 0.015787
vn -0.000003 -1.000000 0.000001
vn -0.000001 -1.000000 -0.000001
vn -0.000001 -1.000000 -0.000001
vn -0.000003 -1.000000 0.000001
vn 0.000001 -1.000000 -0.000003
vn 0.000001 -1.000000 -0.000003
vn 0.006948 0.999913 0.011186
vn 0.006948 0.999913 0.011186
vn 0.153597 0.988133 -0.001122
vn 0.153597 0.988133 0.001122
vn 0.153588 0.988135 0.001006
vn 0.153588 0.988135 -0.001006
vn -0.866579 0.499031 0.002836
vn -0.866579 0.499031 -0.002836
vn -0.898336 0.439292 -0.003910
vn -0.898336 0.439292 0.003910
vn -0.826403 0.563077 0.001491
vn -0.826403 0.563076 -0.001491
vn -0.013700 0.999906 0.000000
vn -0.013700 0.999906 0.000000
vn -0.013700 0.999906 0.000000
vn -0.013700 0.999906 0.000000
vn -1.000000 0.000000 0.000000
vn -1.000000 0.000000 0.000000
vn -1.000000 0.000000 0.000000
vn -1.000000 0.000000 0.000000
vn 0.000000 -1.000000 -0.000000
vn 0.000000 -1.000000 -0.000000
vn 0.000000 -1.000000 -0.000000
vn 0.000000 -1.000000 -0.000000
vn 0.999967 0.000000 -0.008074
vn 0.999967 0.000000 0.008074
vn 0.999967 0.000000 0.008074
vn 0.999967 0.000000 -0.008074
vn -0.422287 0.906459 0.002416
vn -0.422287 0.906459 -0.002416
vn -0.422270 0.906468 -0.002211
vn -0.422270 0.906468 0.002211
vn 0.945649 0.000003 -0.325189
vn 0.945647 0.000003 -0.325196
vn 0.149982 0.987640 -0.045528
vn 0.149267 0.987521 -0.050209
vn -0.413889 0.903566 0.110743
vn -0.412182 0.903006 0.121189
vn -0.877602 0.433605 0.204455
vn -0.862516 0.473799 0.177707
vn -0.830567 0.550085 0.086979
vn -0.813962 0.449658 0.367796
vn -0.809812 0.535561 0.239540
vn -0.810389 0.413711 0.414865
vn -0.308528 0.901226 0.304306
vn -0.308525 0.901226 0.304309
vn 0.112978 0.987293 -0.111750
vn 0.112943 0.987293 -0.111785
vn 0.875026 0.000003 -0.484077
vn 0.875026 0.000003 -0.484077
vn -0.374664 0.451583 0.809753
vn -0.185363 0.472713 0.861500
vn -0.092014 0.547631 0.831645
vn -0.240288 0.537383 0.808382
vn -0.426895 0.413179 0.804390
vn -0.209686 0.433744 0.876298
vn -0.113292 0.903580 0.413169
vn -0.124256 0.902999 0.411283
vn 0.046507 0.987634 -0.149723
vn 0.051361 0.987511 -0.148946
vn 0.492900 -0.000003 -0.870086
vn 0.331918 -0.000003 -0.943308
vn 0.331911 -0.000003 -0.943311
vn 0.492900 -0.000003 -0.870086
vn -0.014005 0.999776 -0.015873
vn -0.020587 0.999583 -0.020244
vn -0.020587 0.999583 -0.020244
vn -0.013876 0.999779 -0.015787
vn 0.000003 -1.000000 -0.000001
vn 0.000001 -1.000000 0.000001
vn 0.000001 -1.000000 0.000001
vn 0.000003 -1.000000 -0.000001
vn -0.000001 -1.000000 0.000003
vn -0.000001 -1.000000 0.000003
vn -0.006948 0.999913 -0.011186
vn -0.006948 0.999913 -0.011186
vn 0.945647 0.000003 0.325196
vn 0.945649 0.000003 0.325189
vn 0.149268 0.987521 0.050209
vn 0.149982 0.987640 0.045528
vn -0.412182 0.903006 -0.121189
vn -0.413889 0.903566 -0.110744
vn -0.862517 0.473799 -0.177708
vn -0.877601 0.433606 -0.204455
vn -0.830568 0.550084 -0.086979
vn -0.809811 0.535561 -0.239542
vn -0.813962 0.449658 -0.367796
vn -0.810389 0.413711 -0.414864
vn -0.308525 0.901226 -0.304310
vn -0.308528 0.901226 -0.304306
vn 0.112943 0.987293 0.111785
vn 0.112978 0.987293 0.111750
vn 0.875026 0.000003 0.484077
vn 0.875026 0.000003 0.484077
vn -0.374665 0.451582 -0.809753
vn -0.240291 0.537383 -0.808381
vn -0.092014 0.547631 -0.831645
vn -0.185363 0.472713 -0.861500
vn -0.426894 0.413179 -0.804391
vn -0.209686 0.433744 -0.876298
vn -0.124256 0.902999 -0.411283
vn -0.113292 0.903580 -0.413169
vn 0.051360 0.987511 0.148945
vn 0.046507 0.987634 0.149723
vn 0.492900 -0.000003 0.870086
vn 0.492900 -0.000003 0.870086
vn 0.331911 -0.000003 0.943311
vn 0.331918 -0.000003 0.943308
vn -0.014005 0.999776 0.015873
vn -0.013876 0.999779 0.015787
vn -0.020587 0.999583 0.020244
vn -0.020587 0.999583 0.020244
vn 0.000003 -1.000000 0.000001
vn 0.000003 -1.000000 0.000001
vn 0.000001 -1.000000 -0.000001
vn 0.000001 -1.000000 -0.000001
vn -0.000001 -1.000000 -0.000003
vn -0.000001 -1.000000 -0.000003
vn -0.006948 0.999913 0.011186
vn -0.006948 0.999913 0.011186
s 1
g InwardCurvedWall_Lower1_4_edges export_grp
usemtl initialShadingGroup
f 8/40/1 2/49/2 34/63/3 33/62/4
s 2
f 3/48/5 7/50/6 36/65/7 35/64/8
f 4/47/9 3/48/5 35/64/8 37/66/10
s off
f 6/6/11 4/47/12 37/66/13 38/67/14
f 5/41/15 6/6/16 38/67/17 39/68/18
f 1/8/19 5/41/20 39/68/21 40/69/22
s 4
f 2/49/23 1/46/24 40/70/25 34/63/26
s 5
f 7/50/27 8/40/28 33/62/29 36/65/30
s 1
f 10/42/31 13/44/32 82/142/33 81/141/34
s 7
f 14/45/35 11/43/36 84/144/37 83/143/38
f 11/43/36 12/38/39 85/145/40 84/144/37
s off
f 12/38/41 6/37/42 75/146/43 85/145/44
f 6/37/45 5/16/46 77/147/47 75/146/48
f 5/16/49 9/39/50 86/148/51 77/147/52
s 9
f 9/18/53 10/42/54 81/141/55 86/149/56
s 5
f 13/44/57 14/45/58 83/143/59 82/142/60
s 4
f 1/1/24 2/55/23 19/3/61 20/4/62
s 1
f 2/2/2 8/5/1 18/7/63 19/54/64
s 5
f 8/5/28 7/9/27 17/10/65 18/7/66
s 2
f 7/9/6 3/11/5 16/12/67 17/10/68
f 3/11/5 4/13/9 15/14/69 16/12/67
f 16/12/67 15/14/69 21/15/70 22/17/71
f 17/10/68 16/12/67 22/17/71 23/19/72
s 5
f 18/7/66 17/10/65 23/19/73 24/20/74
s 1
f 19/54/64 18/7/63 24/20/75 25/53/76
s 4
f 20/4/62 19/3/61 25/21/77 26/59/78
s 7
f 22/17/79 21/15/80 27/23/81 28/24/82
f 23/19/83 22/17/79 28/24/82 29/25/84
s 5
f 24/20/74 23/19/73 29/25/85 30/26/86
s 1
f 25/53/76 24/20/75 30/26/87 31/51/88
s 9
f 26/59/89 25/21/90 31/27/91 32/28/92
s 7
f 28/24/82 27/23/81 12/29/39 11/30/36
f 29/25/84 28/24/82 11/30/36 14/31/35
s 5
f 30/26/86 29/25/85 14/31/58 13/32/57
s 1
f 31/51/88 30/26/87 13/32/32 10/52/31
s 9
f 32/28/92 31/27/91 10/33/54 9/58/53
s 11
f 6/56/93 21/15/94 15/14/95 4/13/96
s 12
f 1/61/97 20/60/98 26/22/99 5/36/100
f 5/36/100 26/22/99 32/57/101 9/34/102
s 11
f 27/23/103 21/15/94 6/35/93 12/29/104
s 1
f 42/72/105 41/71/106 106/194/107 105/193/108
s 14
f 44/74/109 43/73/110 108/196/111 107/195/112
f 45/75/113 44/74/109 107/195/112 109/197/114
s off
f 38/76/115 45/75/116 109/197/117 76/198/118
f 39/77/119 38/76/120 76/198/121 78/199/122
f 46/78/123 39/77/124 78/199/125 110/200/126
s 16
f 41/71/127 46/79/128 110/201/129 106/194/130
s 5
f 43/73/131 42/72/132 105/193/133 108/196/134
s 4
f 40/80/25 48/83/135 47/82/136 34/81/26
s 1
f 34/84/3 47/87/137 49/86/138 33/85/4
s 5
f 33/85/29 49/86/139 50/89/140 36/88/30
s 2
f 36/88/7 50/89/141 51/91/142 35/90/8
f 35/90/8 51/91/142 52/93/143 37/92/10
f 51/91/142 54/95/144 53/94/145 52/93/143
f 50/89/141 55/96/146 54/95/144 51/91/142
s 5
f 49/86/139 56/97/147 55/96/148 50/89/140
s 1
f 47/87/137 57/98/149 56/97/150 49/86/138
s 4
f 48/83/135 58/100/151 57/99/152 47/82/136
s 14
f 54/95/153 60/102/154 59/101/155 53/94/156
f 55/96/157 61/103/158 60/102/154 54/95/153
s 5
f 56/97/147 62/104/159 61/103/160 55/96/148
s 1
f 57/98/149 63/105/161 62/104/162 56/97/150
s 16
f 58/100/163 64/107/164 63/106/165 57/99/166
s 14
f 60/102/154 44/109/109 45/108/113 59/101/155
f 61/103/158 43/110/110 44/109/109 60/102/154
s 5
f 62/104/159 42/111/132 43/110/131 61/103/160
s 1
f 63/105/161 41/112/106 42/111/105 62/104/162
s 16
f 64/107/164 46/114/128 41/113/127 63/106/165
s 19
f 38/115/167 37/92/168 52/93/169 53/94/170
s 20
f 40/116/171 39/119/172 58/118/173 48/117/174
f 39/119/172 46/121/175 64/120/176 58/118/173
s 19
f 59/101/177 45/108/178 38/122/167 53/94/170
s 1
f 65/123/179 68/126/180 67/125/181 66/124/182
s 22
f 69/127/183 72/130/184 71/129/185 70/128/186
f 73/131/187 74/132/188 72/130/184 69/127/183
s off
f 75/133/189 76/134/190 74/132/191 73/131/192
f 77/135/193 78/136/194 76/134/195 75/133/196
f 79/137/197 80/138/198 78/136/199 77/135/200
s 24
f 66/124/201 67/125/202 80/140/203 79/139/204
s 5
f 70/128/205 71/129/206 68/126/207 65/123/208
s 24
f 79/150/204 88/153/209 87/152/210 66/151/201
s 1
f 66/154/182 87/157/211 89/156/212 65/155/179
s 5
f 65/155/208 89/156/213 90/159/214 70/158/205
s 22
f 70/158/186 90/159/215 91/161/216 69/160/183
f 69/160/183 91/161/216 92/163/217 73/162/187
f 91/161/216 94/165/218 93/164/219 92/163/217
f 90/159/215 95/166/220 94/165/218 91/161/216
s 5
f 89/156/213 96/167/221 95/166/222 90/159/214
s 1
f 87/157/211 97/168/223 96/167/224 89/156/212
s 24
f 88/153/209 98/170/225 97/169/226 87/152/210
s 7
f 94/165/227 100/172/228 99/171/229 93/164/230
f 95/166/231 101/173/232 100/172/228 94/165/227
s 5
f 96/167/221 102/174/233 101/173/234 95/166/222
s 1
f 97/168/223 103/175/235 102/174/236 96/167/224
s 9
f 98/170/237 104/177/238 103/176/239 97/169/240
s 7
f 100/172/228 84/179/37 85/178/40 99/171/229
f 101/173/232 83/180/38 84/179/37 100/172/228
s 5
f 102/174/233 82/181/60 83/180/59 101/173/234
s 1
f 103/175/235 81/182/34 82/181/33 102/174/236
s 9
f 104/177/238 86/184/56 81/183/55 103/176/239
s 27
f 75/185/241 73/162/242 92/163/243 93/164/244
s 28
f 79/186/245 77/189/246 98/188/247 88/187/248
f 77/189/246 86/191/249 104/190/250 98/188/247
s 27
f 99/171/251 85/178/252 75/192/241 93/164/244
s 24
f 80/202/203 67/205/202 112/204/253 111/203/254
s 1
f 67/206/181 68/209/180 113/208/255 112/207/256
s 5
f 68/209/207 71/211/206 114/210/257 113/208/258
s 22
f 71/211/185 72/213/184 115/212/259 114/210/260
f 72/213/184 74/215/188 116/214/261 115/212/259
f 115/212/259 116/214/261 118/217/262 117/216/263
f 114/210/260 115/212/259 117/216/263 119/218/264
s 5
f 113/208/258 114/210/257 119/218/265 120/219/266
s 1
f 112/207/256 113/208/255 120/219/267 121/220/268
s 24
f 111/203/254 112/204/253 121/222/269 122/221/270
s 14
f 117/216/271 118/217/272 124/224/273 123/223/274
f 119/218/275 117/216/271 123/223/274 125/225/276
s 5
f 120/219/266 119/218/265 125/225/277 126/226/278
s 1
f 121/220/268 120/219/267 126/226/279 127/227/280
s 16
f 122/221/281 121/222/282 127/229/283 128/228/284
s 14
f 123/223/274 124/224/273 109/231/114 107/230/112
f 125/225/276 123/223/274 107/230/112 108/232/111
s 5
f 126/226/278 125/225/277 108/232/134 105/233/133
s 1
f 127/227/280 126/226/279 105/233/108 106/234/107
s 16
f 128/228/284 127/229/283 106/236/130 110/235/129
s 29
f 76/237/285 118/217/286 116/214/287 74/215/288
s 30
f 80/238/289 111/241/290 122/240/291 78/239/292
f 78/239/292 122/240/291 128/243/293 110/242/294
s 29
f 124/224/295 118/217/286 76/244/285 109/231/296
