# This file uses centimeters as units for non-parametric coordinates.

mtllib InwardCurvedWall_Upper_3edges.mtl
g default
v -1.403830 3.688389 0.000000
v -1.607531 6.109358 0.000000
v -2.046684 2.685362 0.000000
v -1.287223 4.353894 0.000000
v -1.061741 4.943294 0.000000
v -2.046684 5.977722 0.000000
v -0.604353 5.624291 0.000000
v -0.577639 5.901617 0.000000
v -0.855850 6.127214 0.000000
v -1.374289 2.576136 0.016870
v -1.315344 2.902449 0.000000
v 0.000000 3.688389 -1.403830
v 0.000000 6.109358 -1.607531
v 0.000000 2.685362 -2.046684
v 0.000000 4.353894 -1.287223
v 0.000000 4.943294 -1.061741
v 0.000000 5.977722 -2.046684
v 0.000000 5.624291 -0.604353
v 8.000000 3.688389 -1.403830
v 8.000000 6.109358 -1.607531
v 8.000000 2.685362 -2.046684
v 8.000000 4.353894 -1.287223
v 8.000000 4.943294 -1.061741
v 8.000000 5.977722 -2.046684
v 8.000000 5.624291 -0.604353
v 0.000000 6.127214 -0.855850
v 0.000000 5.901617 -0.577639
v 8.000000 5.901617 -0.577639
v 8.000000 6.127214 -0.855850
v 0.000000 2.902449 -1.315344
v 0.011958 2.576136 -1.374289
v 7.983130 2.576136 -1.374289
v 8.000000 2.902449 -1.315344
v -1.353055 3.687414 -0.581918
v -1.267422 2.901499 -0.565597
v -1.324052 2.575161 -0.566231
v -1.974783 2.684205 -0.698446
v -1.974977 5.976563 -0.699450
v -1.550223 6.108323 -0.619677
v -0.823176 6.126392 -0.483070
v -0.554069 5.900875 -0.432439
v -0.579891 5.623541 -0.437209
v -1.022250 4.942414 -0.520128
v -1.240309 4.352951 -0.560928
v -1.080590 3.687140 -1.081218
v -1.020173 2.901252 -1.021392
v -1.058732 2.574890 -1.056774
v -1.516047 2.683737 -1.516663
v -1.517749 5.976095 -1.516268
v -1.219988 6.107987 -1.218868
v -0.710216 6.126284 -0.709847
v -0.521420 5.900850 -0.521476
v -0.539394 5.623508 -0.539600
v -0.849237 4.942244 -0.849413
v -1.001852 4.352712 -1.002175
v -0.581625 3.687613 -1.353341
v -0.564983 2.901693 -1.267879
v -0.570284 2.575356 -1.323665
v -0.698152 2.684454 -1.975139
v -0.700299 5.976810 -1.974690
v -0.620335 6.108538 -1.549996
v -0.483328 6.126550 -0.823093
v -0.432468 5.901011 -0.554084
v -0.437156 5.623680 -0.579956
v -0.520086 4.942588 -1.022358
v -0.560804 4.353142 -1.240487
v -1.061741 4.943294 8.004911
v -0.604353 5.624291 8.004911
v -1.287223 4.353894 8.004911
v -1.403830 3.688389 8.004911
v -1.315344 2.902449 8.004911
v -1.374289 2.576136 7.988041
v -2.046684 2.685362 8.004911
v -2.046684 5.977722 8.004911
v -1.607531 6.109358 8.004911
v -0.855850 6.127214 8.004911
v -0.577639 5.901617 8.004911
v 8.000000 4.353894 9.292134
v 8.000000 3.688389 9.408741
v 8.000000 2.685362 10.051596
v 8.000000 4.943294 9.066652
v 8.000000 5.977722 10.051596
v 8.000000 2.902449 9.320255
v -0.000000 5.624291 8.609264
v -0.000000 4.943294 9.066652
v 8.000000 5.624291 8.609264
v -0.000000 4.353894 9.292134
v 0.000000 3.688389 9.408741
v 0.000000 2.902449 9.320255
v 7.983130 2.576136 9.379200
v 0.011958 2.576136 9.379200
v -0.000000 2.685362 10.051596
v -0.000000 5.977722 10.051596
v -0.000000 6.109358 9.612442
v 8.000000 6.109358 9.612442
v -0.000000 6.127214 8.860762
v 8.000000 6.127214 8.860762
v 8.000000 5.901617 8.582550
v 0.000000 5.901617 8.582550
v -0.581625 3.687613 9.358253
v -0.564983 2.901693 9.272791
v -0.570284 2.575356 9.328577
v -0.698152 2.684454 9.980051
v -0.700299 5.976810 9.979601
v -0.620335 6.108538 9.554908
v -0.483328 6.126550 8.828004
v -0.432468 5.901011 8.558996
v -0.437156 5.623680 8.584867
v -0.520086 4.942588 9.027269
v -0.560804 4.353142 9.245399
v -1.267422 2.901499 8.570508
v -1.353055 3.687414 8.586829
v -1.324052 2.575161 8.571142
v -1.974783 2.684205 8.703358
v -1.974977 5.976563 8.704361
v -1.550223 6.108323 8.624588
v -0.823176 6.126392 8.487982
v -0.554069 5.900875 8.437350
v -0.579891 5.623541 8.442121
v -1.022250 4.942414 8.525040
v -1.240309 4.352951 8.565840
v -1.020173 2.901252 9.026303
v -1.080590 3.687140 9.086129
v -1.058732 2.574890 9.061686
v -1.516047 2.683737 9.521575
v -1.517749 5.976095 9.521179
v -1.219988 6.107987 9.223780
v -0.710216 6.126284 8.714758
v -0.521420 5.900850 8.526387
v -0.539394 5.623508 8.544511
v -0.849237 4.942244 8.854324
v -1.001852 4.352712 9.007086
vt 0.022722 0.731594
vt 0.022722 0.748632
vt 0.022722 0.718749
vt 0.022722 0.705147
vt 0.022722 0.688750
vt 0.022722 0.681598
vt 0.164322 0.668213
vt 0.022722 0.787061
vt 0.022722 0.852934
vt 0.022722 0.778655
vt 0.022722 0.763430
vt 0.022722 0.755573
vt 0.257973 0.762909
vt 0.260609 0.749442
vt 0.274069 0.729338
vt 0.253159 0.774788
vt 0.272744 0.796186
vt 0.259132 0.733447
vt 0.072979 0.748632
vt 0.072979 0.731594
vt 0.164015 0.731394
vt 0.164015 0.748054
vt 0.072979 0.718749
vt 0.164015 0.718578
vt 0.072979 0.705147
vt 0.164015 0.704856
vt 0.072979 0.688751
vt 0.164015 0.688794
vt 0.164015 0.682051
vt 0.072979 0.681598
vt 0.072979 0.667921
vt 0.164015 0.668213
vt 0.001547 0.852429
vt 0.072979 0.787061
vt 0.164015 0.785566
vt 0.164015 0.852429
vt 0.072979 0.778655
vt 0.164015 0.776256
vt 0.072979 0.763430
vt 0.164015 0.760986
vt 0.164015 0.753712
vt 0.072979 0.755573
vt 0.248506 0.798747
vt 0.242946 0.794055
vt 0.243599 0.788434
vt 0.263775 0.798683
vt 0.260458 0.726836
vt 0.033404 0.705147
vt 0.033404 0.688750
vt 0.033404 0.681598
vt 0.033404 0.667920
vt 0.033404 0.852934
vt 0.033404 0.787061
vt 0.033404 0.778655
vt 0.033404 0.763430
vt 0.033404 0.755573
vt 0.033404 0.748632
vt 0.033404 0.731594
vt 0.033404 0.718749
vt 0.048640 0.705147
vt 0.048662 0.688750
vt 0.048670 0.681598
vt 0.048680 0.667921
vt 0.048580 0.852934
vt 0.048552 0.787061
vt 0.048549 0.778655
vt 0.048551 0.763430
vt 0.048563 0.755573
vt 0.048579 0.748632
vt 0.048609 0.731594
vt 0.048624 0.718749
vt 0.062963 0.705147
vt 0.062963 0.688750
vt 0.062963 0.681598
vt 0.062963 0.667921
vt 0.062963 0.852934
vt 0.062963 0.787061
vt 0.062963 0.778655
vt 0.062963 0.763430
vt 0.062963 0.755573
vt 0.062963 0.748632
vt 0.062963 0.731594
vt 0.062963 0.718749
vt 0.001547 0.688789
vt 0.001547 0.682050
vt 0.001547 0.760983
vt 0.001547 0.753708
vt 0.001547 0.748050
vt 0.001547 0.776253
vt 0.001547 0.668213
vt 0.072979 0.852934
vt 0.001547 0.704851
vt 0.001547 0.785564
vt 0.001547 0.731389
vt 0.001547 0.718573
vt 0.164322 0.682051
vt 0.164322 0.688794
vt 0.164322 0.760986
vt 0.164322 0.753712
vt 0.164322 0.748054
vt 0.164322 0.776256
vt 0.164322 0.785566
vt 0.164322 0.852429
vt 0.022722 0.667920
vt 0.164322 0.731394
vt 0.164322 0.704856
vt 0.164322 0.718578
vt 0.001854 0.731394
vt 0.001854 0.748054
vt 0.001854 0.718578
vt 0.001854 0.704856
vt 0.001854 0.688794
vt 0.001854 0.682051
vt 0.001854 0.668213
vt 0.001854 0.785566
vt 0.001854 0.852429
vt 0.001854 0.776256
vt 0.001854 0.760986
vt 0.001854 0.753712
vt 0.257973 0.762909
vt 0.260609 0.749442
vt 0.274069 0.729338
vt 0.253159 0.774788
vt 0.272744 0.796186
vt 0.259132 0.733447
vt 0.001547 0.748050
vt 0.001547 0.731389
vt 0.164015 0.731394
vt 0.164015 0.748054
vt 0.001547 0.718573
vt 0.164015 0.718578
vt 0.001547 0.704851
vt 0.164015 0.704856
vt 0.001547 0.688789
vt 0.164015 0.688794
vt 0.164015 0.682051
vt 0.001547 0.682050
vt 0.001547 0.668213
vt 0.164015 0.668213
vt 0.001547 0.852429
vt 0.001547 0.785564
vt 0.164015 0.785566
vt 0.164015 0.852429
vt 0.001547 0.776253
vt 0.164015 0.776256
vt 0.001547 0.760983
vt 0.164015 0.760986
vt 0.164015 0.753712
vt 0.001547 0.753708
vt 0.248506 0.798747
vt 0.242946 0.794055
vt 0.243599 0.788434
vt 0.263775 0.798683
vt 0.260458 0.726836
vt 0.062963 0.705147
vt 0.062963 0.688750
vt 0.072979 0.688751
vt 0.072979 0.705147
vt 0.062963 0.681598
vt 0.072979 0.681598
vt 0.062963 0.667921
vt 0.072979 0.667921
vt 0.062963 0.852934
vt 0.062963 0.787061
vt 0.072979 0.787061
vt 0.072979 0.852934
vt 0.062963 0.778655
vt 0.072979 0.778655
vt 0.062963 0.763430
vt 0.072979 0.763430
vt 0.062963 0.755573
vt 0.072979 0.755573
vt 0.062963 0.748632
vt 0.072979 0.748632
vt 0.062963 0.731594
vt 0.072979 0.731594
vt 0.062963 0.718749
vt 0.072979 0.718749
vt 0.022722 0.705147
vt 0.022722 0.688750
vt 0.033404 0.688750
vt 0.033404 0.705147
vt 0.022722 0.681598
vt 0.033404 0.681598
vt 0.022722 0.667920
vt 0.033404 0.667920
vt 0.022722 0.852934
vt 0.022722 0.787061
vt 0.033404 0.787061
vt 0.033404 0.852934
vt 0.022722 0.778655
vt 0.033404 0.778655
vt 0.022722 0.763430
vt 0.033404 0.763430
vt 0.022722 0.755573
vt 0.033404 0.755573
vt 0.022722 0.748632
vt 0.033404 0.748632
vt 0.022722 0.731594
vt 0.033404 0.731594
vt 0.022722 0.718749
vt 0.033404 0.718749
vt 0.048662 0.688750
vt 0.048640 0.705147
vt 0.048670 0.681598
vt 0.048680 0.667921
vt 0.048552 0.787061
vt 0.048580 0.852934
vt 0.048549 0.778655
vt 0.048551 0.763430
vt 0.048563 0.755573
vt 0.048579 0.748632
vt 0.048609 0.731594
vt 0.048624 0.718749
vn 0.881180 -0.472765 0.003884
vn 0.892412 -0.451209 0.003211
vn 0.892412 -0.451209 -0.003211
vn 0.881180 -0.472765 -0.003884
vn 0.964887 -0.262614 0.005218
vn 0.964887 -0.262614 -0.005218
vn 0.999797 -0.019331 0.005685
vn 0.999797 -0.019331 -0.005685
vn 0.999578 0.028445 0.005884
vn 0.999578 0.028445 -0.005884
vn -0.160407 -0.987050 -0.000983
vn -0.160411 -0.987050 -0.001035
vn -0.160411 -0.987050 0.001035
vn -0.160407 -0.987050 0.000983
vn -0.999966 -0.000004 -0.008241
vn -0.999966 -0.000004 -0.008257
vn -0.999966 -0.000004 0.008257
vn -0.999966 -0.000004 0.008241
vn -0.125923 0.992039 -0.001056
vn -0.287268 0.957848 -0.002129
vn -0.287268 0.957848 0.002129
vn -0.125923 0.992039 0.001056
vn -0.023762 0.999718 -0.000242
vn -0.023762 0.999718 0.000242
vn 0.995394 -0.095825 0.002847
vn 0.995394 -0.095825 -0.002847
vn 0.630063 0.776542 0.002075
vn 0.630050 0.776552 0.001957
vn 0.630050 0.776552 -0.001957
vn 0.630063 0.776542 -0.002075
vn 0.984121 -0.177420 0.005284
vn 0.984121 -0.177420 -0.005284
vn 1.000000 0.000000 0.000000
vn 1.000000 0.000000 0.000000
vn 1.000000 0.000000 0.000000
vn 1.000000 0.000000 0.000000
vn 1.000000 0.000000 0.000000
vn 1.000000 0.000000 0.000000
vn 1.000000 0.000000 0.000000
vn 1.000000 0.000000 0.000000
vn 1.000000 0.000000 0.000000
vn 1.000000 0.000000 0.000000
vn 0.003197 -0.451212 0.892411
vn 0.003866 -0.472765 0.881180
vn 0.000000 -0.557558 0.830138
vn 0.000000 -0.557558 0.830138
vn 0.005194 -0.262617 0.964886
vn 0.000000 -0.357308 0.933987
vn 0.000000 -0.357308 0.933987
vn 0.005653 -0.019337 0.999797
vn 0.000000 -0.172587 0.984994
vn 0.000000 -0.172587 0.984994
vn 0.005825 0.027922 0.999593
vn 0.000000 0.111879 0.993722
vn 0.000000 0.111879 0.993722
vn 0.000000 -0.987062 -0.160341
vn -0.001071 -0.987050 -0.160412
vn -0.000999 -0.987051 -0.160407
vn 0.000000 -0.987062 -0.160341
vn -0.008256 0.000003 -0.999966
vn -0.008244 0.000003 -0.999966
vn 0.000000 0.000000 -1.000000
vn 0.000000 0.000000 -1.000000
vn -0.002114 0.957848 -0.287268
vn -0.001037 0.992039 -0.125928
vn 0.000000 0.957892 -0.287127
vn 0.000000 0.957892 -0.287127
vn -0.000220 0.999718 -0.023761
vn 0.000000 0.999718 -0.023748
vn 0.000000 0.999718 -0.023748
vn 0.000000 -0.095884 0.995393
vn 0.002843 -0.095829 0.995394
vn 0.000000 -0.095884 0.995393
vn 1.000000 0.000000 0.000000
vn 1.000000 0.000000 0.000000
vn 1.000000 0.000000 0.000000
vn 1.000000 0.000000 0.000000
vn 0.001974 0.776550 0.630053
vn 0.002093 0.776539 0.630066
vn 0.000000 0.776728 0.629836
vn 0.000000 0.776728 0.629836
vn 0.005371 -0.177413 0.984122
vn 0.000000 -0.177762 0.984073
vn 0.000000 -0.177762 0.984074
vn 0.998380 -0.054544 0.016189
vn 0.998380 -0.054544 0.016189
vn 0.998380 -0.054544 0.016189
vn 1.000000 0.000000 0.000000
vn 1.000000 0.000000 0.000000
vn 1.000000 0.000000 0.000000
vn 1.000000 0.000000 0.000000
vn 0.279045 -0.017731 0.960114
vn 0.283375 0.028439 0.958587
vn 0.272884 -0.166302 0.947564
vn -0.051706 -0.986549 -0.155074
vn -0.047042 -0.986659 -0.155853
vn -0.330011 -0.000086 -0.943977
vn -0.329918 -0.000086 -0.944010
vn -0.089506 0.955981 -0.279445
vn -0.055999 0.985548 -0.159871
vn -0.007860 0.999698 -0.023281
vn 0.098014 0.771959 0.628071
vn 0.102713 0.771777 0.627543
vn 0.112921 -0.094175 0.989131
vn 0.158067 -0.471180 0.867758
vn 0.207633 -0.447137 0.870033
vn 0.262362 -0.249658 0.932114
vn 0.958378 0.028560 0.284072
vn 0.959998 -0.017557 0.279456
vn 0.948302 -0.166229 0.270354
vn -0.155775 -0.986673 -0.047011
vn -0.155045 -0.986571 -0.051367
vn -0.944082 -0.000192 -0.329710
vn -0.944014 -0.000193 -0.329907
vn -0.159952 0.985539 -0.055934
vn -0.279556 0.955957 -0.089413
vn -0.023389 0.999695 -0.007874
vn 0.627445 0.771876 0.102566
vn 0.627980 0.772057 0.097824
vn 0.867714 -0.471178 0.158313
vn 0.989114 -0.094076 0.113153
vn 0.870029 -0.447058 0.207817
vn 0.932077 -0.249548 0.262598
vn 0.878288 0.028921 0.477257
vn 0.878418 -0.015856 0.477629
vn 0.868957 -0.152702 0.470740
vn -0.116133 -0.986405 -0.116268
vn -0.116293 -0.986405 -0.116107
vn -0.872428 -0.000296 -0.488743
vn -0.872428 -0.000296 -0.488743
vn -0.134858 0.981683 -0.134578
vn -0.210399 0.954774 -0.210091
vn -0.017915 0.999684 -0.017632
vn 0.448245 0.773228 0.448548
vn 0.448319 0.773228 0.448474
vn 0.788702 -0.484504 0.378424
vn 0.930484 -0.088146 0.355571
vn 0.809471 -0.409062 0.421219
vn 0.855992 -0.232058 0.461981
vn 0.477338 -0.016063 0.878573
vn 0.477437 0.028338 0.878209
vn 0.472383 -0.152986 0.868015
vn -0.489052 -0.000174 -0.872255
vn -0.489052 -0.000174 -0.872255
vn 0.355291 -0.088326 0.930573
vn 0.378573 -0.484622 0.788558
vn 0.421358 -0.409079 0.809390
vn 0.461955 -0.232156 0.855980
vn 1.000000 0.000000 0.000000
vn 1.000000 0.000000 0.000000
vn 1.000000 0.000000 0.000000
vn 1.000000 0.000000 0.000000
vn 1.000000 0.000000 0.000000
vn 1.000000 0.000000 0.000000
vn 1.000000 0.000000 0.000000
vn 1.000000 0.000000 0.000000
vn 1.000000 0.000000 0.000000
vn 1.000000 0.000000 0.000000
vn 0.003197 -0.451212 -0.892411
vn 0.000000 -0.557558 -0.830138
vn 0.000000 -0.557558 -0.830138
vn 0.003866 -0.472765 -0.881180
vn 0.000000 -0.357308 -0.933987
vn 0.000000 -0.357308 -0.933987
vn 0.005194 -0.262616 -0.964886
vn 0.000000 -0.172586 -0.984994
vn 0.000000 -0.172586 -0.984994
vn 0.005653 -0.019337 -0.999797
vn 0.000000 0.111879 -0.993722
vn 0.000000 0.111879 -0.993722
vn 0.005825 0.027922 -0.999593
vn 0.000000 -0.987062 0.160341
vn 0.000000 -0.987062 0.160341
vn -0.000999 -0.987050 0.160407
vn -0.001071 -0.987050 0.160412
vn -0.008256 0.000003 0.999966
vn 0.000000 0.000000 1.000000
vn 0.000000 0.000000 1.000000
vn -0.008244 0.000003 0.999966
vn -0.002114 0.957848 0.287268
vn 0.000000 0.957893 0.287127
vn 0.000000 0.957893 0.287127
vn -0.001037 0.992039 0.125928
vn 0.000000 0.999718 0.023748
vn 0.000000 0.999718 0.023748
vn -0.000220 0.999718 0.023761
vn 0.000000 -0.095884 -0.995393
vn 0.000000 -0.095884 -0.995393
vn 0.002843 -0.095830 -0.995394
vn 1.000000 0.000000 0.000000
vn 1.000000 0.000000 0.000000
vn 1.000000 0.000000 0.000000
vn 1.000000 0.000000 0.000000
vn 0.001974 0.776550 -0.630052
vn 0.000000 0.776729 -0.629836
vn 0.000000 0.776729 -0.629836
vn 0.002093 0.776539 -0.630065
vn 0.000000 -0.177762 -0.984074
vn 0.000000 -0.177762 -0.984074
vn 0.005371 -0.177412 -0.984122
vn 0.998380 -0.054544 -0.016189
vn 0.998380 -0.054544 -0.016189
vn 0.998380 -0.054544 -0.016189
vn 1.000000 0.000000 0.000000
vn 1.000000 0.000000 0.000000
vn 1.000000 0.000000 0.000000
vn 1.000000 0.000000 0.000000
vn 0.279044 -0.017731 -0.960114
vn 0.283375 0.028439 -0.958588
vn 0.272884 -0.166302 -0.947564
vn -0.051706 -0.986549 0.155074
vn -0.047042 -0.986660 0.155853
vn -0.330011 -0.000086 0.943977
vn -0.329918 -0.000086 0.944010
vn -0.089505 0.955981 0.279445
vn -0.055999 0.985548 0.159871
vn -0.007860 0.999698 0.023281
vn 0.098013 0.771959 -0.628070
vn 0.102713 0.771777 -0.627543
vn 0.112922 -0.094175 -0.989131
vn 0.158068 -0.471180 -0.867758
vn 0.207634 -0.447137 -0.870033
vn 0.262362 -0.249658 -0.932114
vn 0.959998 -0.017557 -0.279456
vn 0.958378 0.028560 -0.284072
vn 0.948302 -0.166229 -0.270354
vn -0.155045 -0.986571 0.051367
vn -0.155775 -0.986673 0.047011
vn -0.944014 -0.000193 0.329907
vn -0.944082 -0.000192 0.329710
vn -0.279556 0.955957 0.089413
vn -0.159952 0.985539 0.055933
vn -0.023389 0.999695 0.007874
vn 0.627980 0.772057 -0.097824
vn 0.627445 0.771876 -0.102567
vn 0.989114 -0.094075 -0.113153
vn 0.867714 -0.471178 -0.158313
vn 0.870029 -0.447058 -0.207817
vn 0.932077 -0.249548 -0.262598
vn 0.878418 -0.015856 -0.477629
vn 0.878288 0.028921 -0.477257
vn 0.868957 -0.152702 -0.470740
vn -0.116293 -0.986405 0.116107
vn -0.116133 -0.986405 0.116268
vn -0.872428 -0.000296 0.488743
vn -0.872428 -0.000296 0.488743
vn -0.210399 0.954775 0.210090
vn -0.134858 0.981683 0.134578
vn -0.017915 0.999684 0.017632
vn 0.448320 0.773227 -0.448474
vn 0.448247 0.773227 -0.448547
vn 0.930483 -0.088146 -0.355573
vn 0.788702 -0.484504 -0.378425
vn 0.809470 -0.409062 -0.421220
vn 0.855992 -0.232057 -0.461981
vn 0.477338 -0.016063 -0.878573
vn 0.477437 0.028337 -0.878209
vn 0.472383 -0.152986 -0.868015
vn -0.489052 -0.000174 0.872255
vn -0.489052 -0.000174 0.872255
vn 0.355300 -0.088326 -0.930570
vn 0.378577 -0.484621 -0.788557
vn 0.421359 -0.409078 -0.809390
vn 0.461955 -0.232156 -0.855980
s 1
g InwardCurvedWall_Upper_3_edges export_grp
usemtl initialShadingGroup
f 5/105/1 7/100/2 68/109/3 67/108/4
f 4/107/5 5/105/1 67/108/4 69/110/6
f 1/106/7 4/107/5 69/110/6 70/111/8
f 11/97/9 1/106/7 70/111/8 71/112/10
s 5
f 3/7/11 10/96/12 72/113/13 73/114/14
s 6
f 6/102/15 3/103/16 73/116/17 74/115/18
s 7
f 2/101/19 6/102/20 74/115/21 75/117/22
f 9/98/23 2/101/19 75/117/22 76/118/24
s 1
f 7/100/2 8/99/25 77/119/26 68/109/3
s 10
f 8/99/27 9/98/28 76/118/29 77/119/30
s 1
f 10/96/31 11/97/9 71/112/10 72/113/32
s off
f 22/13/33 19/14/34 21/15/35
f 23/16/36 22/13/37 21/15/38 24/17/39
f 21/15/40 19/14/41 33/18/42
s 12
f 18/88/43 16/94/44 23/21/45 25/22/46
f 16/94/44 15/95/47 22/24/48 23/21/49
f 15/95/47 12/92/50 19/26/51 22/24/52
f 12/92/50 30/84/53 33/28/54 19/26/55
s 5
f 32/29/56 31/85/57 14/90/58 21/32/59
s 17
f 14/33/60 17/93/61 24/35/62 21/36/63
s 7
f 17/93/64 13/89/65 20/38/66 24/35/67
f 13/89/65 26/86/68 29/40/69 20/38/70
s 12
f 28/41/71 27/87/72 18/88/43 25/22/73
s off
f 29/43/74 28/44/75 25/45/76 20/46/77
s 10
f 26/86/78 27/87/79 28/41/80 29/40/81
s 12
f 30/84/53 31/85/82 32/29/83 33/28/84
s off
f 21/15/85 33/18/86 32/47/87
f 24/17/88 20/46/89 25/45/90 23/16/91
s 12
f 56/72/92 57/73/93 30/27/53 12/25/50
f 57/73/93 58/74/94 31/30/82 30/27/53
s 5
f 58/74/95 59/75/96 14/31/58 31/30/57
s 17
f 59/76/97 60/77/98 17/34/61 14/91/60
s 7
f 60/77/99 61/78/100 13/37/65 17/34/64
f 61/78/100 62/79/101 26/39/68 13/37/65
s 10
f 62/79/102 63/80/103 27/42/79 26/39/78
s 12
f 63/80/104 64/81/105 18/19/43 27/42/72
f 64/81/105 65/82/106 16/20/44 18/19/43
f 65/82/106 66/83/107 15/23/47 16/20/44
f 66/83/107 56/72/92 12/25/50 15/23/47
s 1
f 1/4/7 11/5/9 35/49/108 34/48/109
f 11/5/9 10/6/31 36/50/110 35/49/108
s 5
f 10/6/12 3/104/11 37/51/111 36/50/112
s 6
f 3/9/16 6/8/15 38/53/113 37/52/114
s 7
f 6/8/20 2/10/19 39/54/115 38/53/116
f 2/10/19 9/11/23 40/55/117 39/54/115
s 10
f 9/11/28 8/12/27 41/56/118 40/55/119
s 1
f 8/12/25 7/2/2 42/57/120 41/56/121
f 7/2/2 5/1/1 43/58/122 42/57/120
f 5/1/1 4/3/5 44/59/123 43/58/122
f 4/3/5 1/4/7 34/48/109 44/59/123
f 34/48/109 35/49/108 46/61/124 45/60/125
f 35/49/108 36/50/110 47/62/126 46/61/124
s 5
f 36/50/112 37/51/111 48/63/127 47/62/128
s 6
f 37/52/114 38/53/113 49/65/129 48/64/130
s 7
f 38/53/116 39/54/115 50/66/131 49/65/132
f 39/54/115 40/55/117 51/67/133 50/66/131
s 10
f 40/55/119 41/56/118 52/68/134 51/67/135
s 1
f 41/56/121 42/57/120 53/69/136 52/68/137
f 42/57/120 43/58/122 54/70/138 53/69/136
f 43/58/122 44/59/123 55/71/139 54/70/138
f 44/59/123 34/48/109 45/60/125 55/71/139
s 12
f 45/60/140 46/61/141 57/73/93 56/72/92
f 46/61/141 47/62/142 58/74/94 57/73/93
s 5
f 47/62/128 48/63/127 59/75/96 58/74/95
s 17
f 48/64/143 49/65/144 60/77/98 59/76/97
s 7
f 49/65/132 50/66/131 61/78/100 60/77/99
f 50/66/131 51/67/133 62/79/101 61/78/100
s 10
f 51/67/135 52/68/134 63/80/103 62/79/102
s 12
f 52/68/145 53/69/146 64/81/105 63/80/104
f 53/69/146 54/70/147 65/82/106 64/81/105
f 54/70/147 55/71/148 66/83/107 65/82/106
f 55/71/148 45/60/140 56/72/92 66/83/107
s off
f 78/120/149 80/122/150 79/121/151
f 81/123/152 82/124/153 80/122/154 78/120/155
f 80/122/156 83/125/157 79/121/158
s 23
f 84/126/159 86/129/160 81/128/161 85/127/162
f 85/127/162 81/128/163 78/131/164 87/130/165
f 87/130/165 78/131/166 79/133/167 88/132/168
f 88/132/168 79/133/169 83/135/170 89/134/171
s 5
f 90/136/172 80/139/173 92/138/174 91/137/175
s 28
f 92/140/176 80/143/177 82/142/178 93/141/179
s 7
f 93/141/180 82/142/181 95/145/182 94/144/183
f 94/144/183 95/145/184 97/147/185 96/146/186
s 23
f 98/148/187 86/129/188 84/126/159 99/149/189
s off
f 97/150/190 95/153/191 86/152/192 98/151/193
s 10
f 96/146/194 97/147/195 98/148/196 99/149/197
s 23
f 89/134/171 83/135/198 90/136/199 91/137/200
s off
f 80/122/201 90/154/202 83/125/203
f 82/124/204 81/123/205 86/152/206 95/153/207
s 23
f 100/155/208 88/158/168 89/157/171 101/156/209
f 101/156/209 89/157/171 91/160/200 102/159/210
s 5
f 102/159/211 91/160/175 92/162/174 103/161/212
s 28
f 103/163/213 92/166/176 93/165/179 104/164/214
s 7
f 104/164/215 93/165/180 94/168/183 105/167/216
f 105/167/216 94/168/183 96/170/186 106/169/217
s 10
f 106/169/218 96/170/194 99/172/197 107/171/219
s 23
f 107/171/220 99/172/189 84/174/159 108/173/221
f 108/173/221 84/174/159 85/176/162 109/175/222
f 109/175/222 85/176/162 87/178/165 110/177/223
f 110/177/223 87/178/165 88/158/168 100/155/208
s 1
f 70/179/8 112/182/224 111/181/225 71/180/10
f 71/180/10 111/181/225 113/184/226 72/183/32
s 5
f 72/183/13 113/184/227 114/186/228 73/185/14
s 6
f 73/187/17 114/190/229 115/189/230 74/188/18
s 7
f 74/188/21 115/189/231 116/192/232 75/191/22
f 75/191/22 116/192/232 117/194/233 76/193/24
s 10
f 76/193/29 117/194/234 118/196/235 77/195/30
s 1
f 77/195/26 118/196/236 119/198/237 68/197/3
f 68/197/3 119/198/237 120/200/238 67/199/4
f 67/199/4 120/200/238 121/202/239 69/201/6
f 69/201/6 121/202/239 112/182/224 70/179/8
f 112/182/224 123/204/240 122/203/241 111/181/225
f 111/181/225 122/203/241 124/205/242 113/184/226
s 5
f 113/184/227 124/205/243 125/206/244 114/186/228
s 6
f 114/190/229 125/208/245 126/207/246 115/189/230
s 7
f 115/189/231 126/207/247 127/209/248 116/192/232
f 116/192/232 127/209/248 128/210/249 117/194/233
s 10
f 117/194/234 128/210/250 129/211/251 118/196/235
s 1
f 118/196/236 129/211/252 130/212/253 119/198/237
f 119/198/237 130/212/253 131/213/254 120/200/238
f 120/200/238 131/213/254 132/214/255 121/202/239
f 121/202/239 132/214/255 123/204/240 112/182/224
s 23
f 123/204/256 100/155/208 101/156/209 122/203/257
f 122/203/257 101/156/209 102/159/210 124/205/258
s 5
f 124/205/243 102/159/211 103/161/212 125/206/244
s 28
f 125/208/259 103/163/213 104/164/214 126/207/260
s 7
f 126/207/247 104/164/215 105/167/216 127/209/248
f 127/209/248 105/167/216 106/169/217 128/210/249
s 10
f 128/210/250 106/169/218 107/171/219 129/211/251
s 23
f 129/211/261 107/171/220 108/173/221 130/212/262
f 130/212/262 108/173/221 109/175/222 131/213/263
f 131/213/263 109/175/222 110/177/223 132/214/264
f 132/214/264 110/177/223 100/155/208 123/204/256
