# This file uses centimeters as units for non-parametric coordinates.

mtllib InwardCurvedWall_Lower_3edges.mtl
g default
v -2.034613 0.000000 0.000000
v -2.034613 2.685362 0.000000
v -0.833346 1.920608 0.000000
v -0.391830 1.273464 0.000000
v 0.006036 0.000000 -0.006036
v 0.006036 1.268013 -0.006036
v -1.210960 2.692378 0.000000
v -1.405727 2.783059 0.000000
v 0.000000 0.000000 -2.046684
v 0.000000 2.685362 -2.046684
v 0.000000 1.920608 -0.845417
v 0.000000 1.262561 -0.403901
v 8.000000 0.000000 -2.046684
v 8.000000 2.685362 -2.046684
v 8.000000 1.920608 -0.845417
v 8.000000 1.273464 -0.403901
v 8.000000 0.000000 0.000000
v 8.000000 1.273464 0.000000
v 0.000000 2.783059 -1.417798
v 0.000000 2.692378 -1.223031
v 8.000000 2.692378 -1.223031
v 8.000000 2.783059 -1.417798
v -0.391830 1.270741 -0.275911
v -0.801531 1.920612 -0.483999
v -1.167057 2.692383 -0.551875
v -1.355592 2.783064 -0.586877
v -1.964357 2.685369 -0.699883
v -1.964381 0.000007 -0.699812
v -0.391830 1.265284 -0.403901
v -0.694714 1.920608 -0.704912
v -0.952221 2.692378 -0.959264
v -1.085048 2.783059 -1.090447
v -1.513944 2.685362 -1.514011
v -1.514022 -0.000000 -1.513933
v -0.241798 1.265284 -0.403901
v -0.480519 1.920604 -0.813174
v -0.550075 2.692373 -1.178093
v -0.585958 2.783054 -1.366310
v -0.701834 2.685355 -1.974043
v -0.701904 -0.000007 -1.974019
v -1.405727 2.783059 8.000000
v -2.034613 2.685362 8.000000
v -0.833346 1.920608 8.000000
v -1.210960 2.692378 8.000000
v -0.391830 1.273464 8.000000
v 0.006036 1.268013 8.006036
v 0.006036 -0.000000 8.006036
v -2.034613 0.000000 8.000000
v 8.000000 1.920608 8.845417
v 8.000000 2.685362 10.046684
v 8.000000 2.783059 9.417798
v 8.000000 2.692378 9.223031
v 8.000000 1.273464 8.403901
v 8.000000 0.000000 10.046684
v 8.000000 1.273464 8.000000
v 8.000000 -0.000000 8.000000
v 0.000000 2.685362 10.046684
v 0.000000 2.783059 9.417798
v 0.000000 2.692378 9.223031
v -0.000000 1.920608 8.845417
v -0.000000 1.262561 8.403901
v -0.000000 0.000000 10.046684
v -1.964357 2.685369 8.699883
v -1.964381 0.000007 8.699812
v -1.355592 2.783064 8.586877
v -1.167057 2.692383 8.551875
v -0.801531 1.920612 8.483999
v -0.391830 1.270741 8.275910
v -0.391830 1.265284 8.403901
v -0.694714 1.920608 8.704911
v -0.952221 2.692378 8.959265
v -1.085048 2.783059 9.090446
v -1.513944 2.685362 9.514011
v -1.514022 -0.000000 9.513933
v -0.241798 1.265284 8.403901
v -0.480519 1.920604 8.813173
v -0.550075 2.692373 9.178093
v -0.585958 2.783054 9.366310
v -0.701834 2.685355 9.974043
v -0.701904 -0.000007 9.974019
vt 0.329952 0.932133
vt 0.222063 0.939736
vt 0.312777 0.997304
vt 0.312876 0.932107
vt 0.229143 0.928609
vt 0.329813 0.884131
vt 0.238531 0.928609
vt 0.329812 0.816704
vt 0.231163 0.924893
vt 0.065874 0.911156
vt 0.090277 0.926676
vt 0.077506 0.928666
vt 0.073550 0.926827
vt 0.056903 0.898017
vt 0.090254 0.872141
vt 0.048700 0.898021
vt 0.048689 0.872159
vt 0.330295 0.930056
vt 0.330295 0.942982
vt 0.240307 0.924893
vt 0.236491 0.909225
vt 0.330295 0.908244
vt 0.330295 0.925693
vt 0.244536 0.909225
vt 0.242326 0.892005
vt 0.330295 0.892334
vt 0.246841 0.892005
vt 0.330295 0.884132
vt 0.248945 0.892005
vt 0.330295 0.858269
vt 0.167827 0.858145
vt 0.330295 0.816705
vt 0.248800 0.909225
vt 0.330295 0.997517
vt 0.167827 0.997517
vt 0.248644 0.924893
vt 0.248601 0.928609
vt 0.290188 0.997270
vt 0.290330 0.984392
vt 0.251399 0.892005
vt 0.253001 0.909225
vt 0.256972 0.924893
vt 0.258687 0.928609
vt 0.267527 0.997236
vt 0.267626 0.932039
vt 0.255353 0.892005
vt 0.261032 0.909225
vt 0.266181 0.924893
vt 0.268146 0.928609
vt 0.250397 0.997210
vt 0.253178 0.976625
vt 0.252512 0.885479
vt 0.290222 0.935279
vt 0.167827 0.883861
vt 0.167827 0.891842
vt 0.167827 0.816705
vt 0.329813 0.930055
vt 0.329813 0.858268
vt 0.167827 0.942822
vt 0.167827 0.907983
vt 0.167827 0.929859
vt 0.167827 0.925483
vt 0.329814 0.997516
vt 0.329813 0.892333
vt 0.329813 0.908243
vt 0.329814 0.942981
vt 0.329813 0.925692
vt 0.263950 0.939736
vt 0.275104 0.939736
vt 0.248471 0.939736
vt 0.233089 0.939736
vt 0.329854 0.997329
vt 0.245290 0.885492
vt 0.269104 0.981634
vt 0.250494 0.932014
vt 0.290287 0.932073
vt 0.311317 0.981737
vt 0.327220 0.976684
vt 0.167345 0.930056
vt 0.167345 0.942982
vt 0.167345 0.908244
vt 0.167345 0.925693
vt 0.167345 0.892334
vt 0.167345 0.884132
vt 0.167345 0.858269
vt 0.167345 0.816705
vt 0.167345 0.997517
vt 0.065874 0.911156
vt 0.090277 0.926676
vt 0.077506 0.928666
vt 0.073550 0.926827
vt 0.056903 0.898017
vt 0.090254 0.872141
vt 0.048700 0.898021
vt 0.048689 0.872159
vt 0.330295 0.930056
vt 0.330295 0.942982
vt 0.167827 0.942822
vt 0.167827 0.929859
vt 0.330295 0.908244
vt 0.330295 0.925693
vt 0.167827 0.925483
vt 0.167827 0.907983
vt 0.330295 0.892334
vt 0.167827 0.891842
vt 0.330295 0.884132
vt 0.167827 0.883861
vt 0.330295 0.858269
vt 0.167827 0.858145
vt 0.330295 0.816705
vt 0.167827 0.816705
vt 0.330295 0.997517
vt 0.167827 0.997517
vt 0.329952 0.932133
vt 0.329854 0.997329
vt 0.312777 0.997304
vt 0.312876 0.932107
vt 0.222063 0.939736
vt 0.229143 0.928609
vt 0.238531 0.928609
vt 0.233089 0.939736
vt 0.231163 0.924893
vt 0.240307 0.924893
vt 0.236491 0.909225
vt 0.244536 0.909225
vt 0.242326 0.892005
vt 0.246841 0.892005
vt 0.248945 0.892005
vt 0.248800 0.909225
vt 0.248644 0.924893
vt 0.248601 0.928609
vt 0.248471 0.939736
vt 0.290188 0.997270
vt 0.290287 0.932073
vt 0.251399 0.892005
vt 0.253001 0.909225
vt 0.256972 0.924893
vt 0.258687 0.928609
vt 0.263950 0.939736
vt 0.267527 0.997236
vt 0.267626 0.932039
vt 0.255353 0.892005
vt 0.261032 0.909225
vt 0.266181 0.924893
vt 0.268146 0.928609
vt 0.275104 0.939736
vt 0.250397 0.997210
vt 0.250494 0.932014
vt 0.245290 0.885492
vt 0.327220 0.976684
vt 0.311317 0.981737
vt 0.290330 0.984392
vt 0.290222 0.935279
vt 0.269104 0.981634
vt 0.253178 0.976625
vt 0.252512 0.885479
vn -0.153597 0.988133 -0.001122
vn -0.153588 0.988134 -0.001006
vn -0.153588 0.988134 0.001006
vn -0.153597 0.988133 0.001122
vn 0.866579 0.499031 0.002836
vn 0.898335 0.439293 0.003910
vn 0.898335 0.439293 -0.003910
vn 0.866579 0.499031 -0.002836
vn 0.826404 0.563076 0.001491
vn 0.826404 0.563076 -0.001491
vn 0.013700 0.999906 0.000000
vn 0.013700 0.999906 0.000000
vn 0.013700 0.999906 0.000000
vn 0.013700 0.999906 0.000000
vn 1.000000 0.000000 0.000000
vn 1.000000 0.000000 0.000000
vn 1.000000 0.000000 0.000000
vn 1.000000 0.000000 0.000000
vn -0.000000 -1.000000 0.000000
vn -0.000000 -1.000000 0.000000
vn -0.000000 -1.000000 0.000000
vn -0.000000 -1.000000 0.000000
vn -0.999967 0.000000 -0.008074
vn -0.999967 0.000000 -0.008074
vn -0.999967 0.000000 0.008074
vn -0.999967 0.000000 0.008074
vn 0.422287 0.906459 0.002416
vn 0.422270 0.906468 0.002211
vn 0.422270 0.906468 -0.002211
vn 0.422287 0.906459 -0.002416
vn 1.000000 0.000000 0.000000
vn 1.000000 0.000000 0.000000
vn 1.000000 0.000000 0.000000
vn 1.000000 0.000000 0.000000
vn 1.000000 0.000000 0.000000
vn 1.000000 0.000000 0.000000
vn 1.000000 0.000000 0.000000
vn 1.000000 0.000000 0.000000
vn 1.000000 0.000000 0.000000
vn 1.000000 0.000000 0.000000
vn 1.000000 0.000000 0.000000
vn 1.000000 0.000000 0.000000
vn 0.000000 0.988147 -0.153508
vn 0.000000 0.988147 -0.153508
vn -0.001037 0.988134 -0.153592
vn -0.001160 0.988132 -0.153602
vn 0.000000 0.439496 0.898245
vn 0.000000 0.439496 0.898245
vn 0.003984 0.439284 0.898339
vn 0.002800 0.497553 0.867429
vn -0.000382 0.560357 0.828251
vn -0.000382 0.560357 0.828251
vn 0.001321 0.559860 0.828586
vn -0.001020 0.999977 -0.006791
vn -0.001020 0.999977 -0.006791
vn -0.001020 0.999977 -0.006791
vn -0.001020 0.999977 -0.006791
vn -0.000755 0.000000 1.000000
vn -0.000755 0.000000 1.000000
vn -0.000755 0.000000 1.000000
vn -0.000755 0.000000 1.000000
vn 0.000000 -1.000000 0.000000
vn 0.000000 -1.000000 0.000000
vn 0.000000 -1.000000 0.000000
vn 0.000000 -1.000000 0.000000
vn 0.000000 0.000000 -1.000000
vn 0.000000 0.000000 -1.000000
vn -0.008349 -0.000000 -0.999965
vn -0.008349 -0.000000 -0.999965
vn 0.002480 0.906454 0.422297
vn 0.000000 0.906558 0.422082
vn 0.000000 0.906558 0.422082
vn 0.002263 0.906464 0.422278
vn -0.945647 0.000003 -0.325196
vn -0.945649 0.000003 -0.325189
vn -0.149267 0.987521 -0.050209
vn -0.149982 0.987640 -0.045528
vn 0.412182 0.903006 0.121189
vn 0.413889 0.903566 0.110743
vn 0.862517 0.473799 0.177707
vn 0.877601 0.433606 0.204455
vn 0.830568 0.550084 0.086979
vn 0.809812 0.535560 0.239542
vn 0.813962 0.449658 0.367796
vn 0.810389 0.413711 0.414865
vn 0.308525 0.901226 0.304309
vn 0.308528 0.901226 0.304305
vn -0.112943 0.987293 -0.111785
vn -0.112978 0.987293 -0.111750
vn -0.875025 0.000003 -0.484077
vn -0.875025 0.000003 -0.484077
vn 0.374664 0.451583 0.809753
vn 0.240287 0.537385 0.808381
vn 0.092014 0.547631 0.831645
vn 0.185363 0.472713 0.861500
vn 0.426894 0.413179 0.804391
vn 0.209686 0.433744 0.876298
vn 0.124256 0.902999 0.411283
vn 0.113292 0.903579 0.413170
vn -0.051361 0.987511 -0.148946
vn -0.046507 0.987634 -0.149723
vn -0.492900 -0.000003 -0.870086
vn -0.492900 -0.000003 -0.870086
vn -0.331911 -0.000003 -0.943311
vn -0.331918 -0.000003 -0.943308
vn 0.014005 0.999776 -0.015873
vn 0.013876 0.999779 -0.015787
vn 0.020587 0.999583 -0.020245
vn 0.020587 0.999583 -0.020245
vn -0.000003 -1.000000 -0.000001
vn -0.000003 -1.000000 -0.000001
vn -0.000001 -1.000000 0.000001
vn -0.000001 -1.000000 0.000001
vn 0.000001 -1.000000 0.000003
vn 0.000001 -1.000000 0.000003
vn 0.006948 0.999913 -0.011185
vn 0.006948 0.999913 -0.011185
vn 1.000000 0.000000 0.000000
vn 1.000000 0.000000 0.000000
vn 1.000000 0.000000 0.000000
vn 1.000000 0.000000 0.000000
vn 1.000000 0.000000 0.000000
vn 1.000000 0.000000 0.000000
vn 1.000000 0.000000 0.000000
vn 1.000000 0.000000 0.000000
vn 1.000000 0.000000 0.000000
vn 1.000000 0.000000 0.000000
vn 1.000000 0.000000 0.000000
vn 1.000000 0.000000 0.000000
vn 0.000000 0.988147 0.153508
vn -0.001160 0.988132 0.153601
vn -0.001037 0.988134 0.153592
vn 0.000000 0.988147 0.153508
vn 0.000000 0.439496 -0.898245
vn 0.002800 0.497553 -0.867429
vn 0.003984 0.439284 -0.898339
vn 0.000000 0.439496 -0.898245
vn -0.000382 0.560357 -0.828251
vn 0.001321 0.559860 -0.828586
vn -0.000382 0.560357 -0.828251
vn -0.001020 0.999977 0.006791
vn -0.001020 0.999977 0.006791
vn -0.001020 0.999977 0.006791
vn -0.001020 0.999977 0.006791
vn -0.000755 0.000000 -1.000000
vn -0.000755 0.000000 -1.000000
vn -0.000755 0.000000 -1.000000
vn -0.000755 0.000000 -1.000000
vn -0.000000 -1.000000 0.000000
vn -0.000000 -1.000000 0.000000
vn -0.000000 -1.000000 0.000000
vn -0.000000 -1.000000 0.000000
vn 0.000000 0.000000 1.000000
vn -0.008349 -0.000000 0.999965
vn -0.008349 -0.000000 0.999965
vn 0.000000 0.000000 1.000000
vn 0.002480 0.906454 -0.422297
vn 0.002263 0.906464 -0.422278
vn 0.000000 0.906558 -0.422082
vn 0.000000 0.906558 -0.422082
vn -0.945649 0.000003 0.325189
vn -0.945647 0.000003 0.325196
vn -0.149982 0.987640 0.045528
vn -0.149268 0.987521 0.050209
vn 0.413889 0.903566 -0.110743
vn 0.412182 0.903006 -0.121189
vn 0.877601 0.433606 -0.204455
vn 0.862517 0.473799 -0.177707
vn 0.830568 0.550084 -0.086979
vn 0.813962 0.449658 -0.367796
vn 0.809810 0.535562 -0.239542
vn 0.810390 0.413711 -0.414864
vn 0.308528 0.901226 -0.304306
vn 0.308525 0.901226 -0.304309
vn -0.112978 0.987293 0.111750
vn -0.112943 0.987293 0.111785
vn -0.875026 0.000003 0.484077
vn -0.875026 0.000003 0.484077
vn 0.374664 0.451583 -0.809753
vn 0.185363 0.472713 -0.861501
vn 0.092013 0.547631 -0.831645
vn 0.240290 0.537384 -0.808381
vn 0.426894 0.413179 -0.804391
vn 0.209686 0.433744 -0.876298
vn 0.113292 0.903579 -0.413170
vn 0.124256 0.902998 -0.411284
vn -0.046507 0.987634 0.149723
vn -0.051361 0.987511 0.148946
vn -0.492900 -0.000003 0.870086
vn -0.331918 -0.000003 0.943308
vn -0.331911 -0.000003 0.943311
vn -0.492900 -0.000003 0.870086
vn 0.014005 0.999776 0.015873
vn 0.020587 0.999583 0.020245
vn 0.020587 0.999583 0.020245
vn 0.013876 0.999779 0.015787
vn -0.000003 -1.000000 0.000001
vn -0.000001 -1.000000 -0.000001
vn -0.000001 -1.000000 -0.000001
vn -0.000003 -1.000000 0.000001
vn 0.000001 -1.000000 -0.000003
vn 0.000001 -1.000000 -0.000003
vn 0.006948 0.999913 0.011186
vn 0.006948 0.999913 0.011186
s 1
g InwardCurvedWall_Lower1_3_edges export_grp
usemtl initialShadingGroup
f 8/57/1 2/66/2 42/80/3 41/79/4
s 2
f 3/65/5 7/67/6 44/82/7 43/81/8
f 4/64/9 3/65/5 43/81/8 45/83/10
s off
f 6/6/11 4/64/12 45/83/13 46/84/14
f 5/58/15 6/6/16 46/84/17 47/85/18
f 1/8/19 5/58/20 47/85/21 48/86/22
s 4
f 2/66/23 1/63/24 48/87/25 42/80/26
s 5
f 7/67/27 8/57/28 41/79/29 44/82/30
s off
f 15/10/31 14/11/32 22/12/33 21/13/34
f 16/14/35 13/15/36 14/11/37 15/10/38
f 13/15/39 16/14/40 18/16/41 17/17/42
s 1
f 22/18/43 14/19/44 10/59/45 19/61/46
s 7
f 15/22/47 21/23/48 20/62/49 11/60/50
f 16/26/51 15/22/52 11/60/50 12/55/53
s off
f 18/28/54 16/26/55 12/55/56 6/54/57
f 17/30/58 18/28/59 6/54/60 5/31/61
f 13/32/62 17/30/63 5/31/64 9/56/65
s 9
f 14/19/66 13/34/67 9/35/68 10/59/69
s 5
f 20/62/70 21/23/71 22/18/72 19/61/73
s 4
f 1/1/24 2/72/23 27/3/74 28/4/75
s 1
f 2/2/2 8/5/1 26/7/76 27/71/77
s 5
f 8/5/28 7/9/27 25/20/78 26/7/79
s 2
f 7/9/6 3/21/5 24/24/80 25/20/81
f 3/21/5 4/25/9 23/27/82 24/24/80
f 24/24/80 23/27/82 29/29/83 30/33/84
f 25/20/81 24/24/80 30/33/84 31/36/85
s 5
f 26/7/79 25/20/78 31/36/86 32/37/87
s 1
f 27/71/77 26/7/76 32/37/88 33/70/89
s 4
f 28/4/75 27/3/74 33/38/90 34/76/91
s 7
f 30/33/92 29/29/93 35/40/94 36/41/95
f 31/36/96 30/33/92 36/41/95 37/42/97
s 5
f 32/37/87 31/36/86 37/42/98 38/43/99
s 1
f 33/70/89 32/37/88 38/43/100 39/68/101
s 9
f 34/76/102 33/38/103 39/44/104 40/45/105
s 7
f 36/41/95 35/40/94 12/46/53 11/47/50
f 37/42/97 36/41/95 11/47/50 20/48/49
s 5
f 38/43/99 37/42/98 20/48/70 19/49/73
s 1
f 39/68/101 38/43/100 19/49/46 10/69/45
s 9
f 40/45/105 39/44/104 10/50/69 9/75/68
s 11
f 6/73/106 29/29/107 23/27/108 4/25/109
s 12
f 1/78/110 28/77/111 34/39/112 5/53/113
f 5/53/113 34/39/112 40/74/114 9/51/115
s 11
f 35/40/116 29/29/107 6/52/106 12/46/117
s off
f 49/88/118 52/91/119 51/90/120 50/89/121
f 53/92/122 49/88/123 50/89/124 54/93/125
f 54/93/126 56/95/127 55/94/128 53/92/129
s 1
f 51/96/130 58/99/131 57/98/132 50/97/133
s 14
f 49/100/134 60/103/135 59/102/136 52/101/137
f 53/104/138 61/105/139 60/103/135 49/100/140
s off
f 55/106/141 46/107/142 61/105/143 53/104/144
f 56/108/145 47/109/146 46/107/147 55/106/148
f 54/110/149 62/111/150 47/109/151 56/108/152
s 16
f 50/97/153 57/98/154 62/113/155 54/112/156
s 5
f 59/102/157 58/99/158 51/96/159 52/101/160
s 4
f 48/114/25 64/117/161 63/116/162 42/115/26
s 1
f 42/118/3 63/121/163 65/120/164 41/119/4
s 5
f 41/119/29 65/120/165 66/123/166 44/122/30
s 2
f 44/122/7 66/123/167 67/125/168 43/124/8
f 43/124/8 67/125/168 68/127/169 45/126/10
f 67/125/168 70/129/170 69/128/171 68/127/169
f 66/123/167 71/130/172 70/129/170 67/125/168
s 5
f 65/120/165 72/131/173 71/130/174 66/123/166
s 1
f 63/121/163 73/132/175 72/131/176 65/120/164
s 4
f 64/117/161 74/134/177 73/133/178 63/116/162
s 14
f 70/129/179 76/136/180 75/135/181 69/128/182
f 71/130/183 77/137/184 76/136/180 70/129/179
s 5
f 72/131/173 78/138/185 77/137/186 71/130/174
s 1
f 73/132/175 79/139/187 78/138/188 72/131/176
s 16
f 74/134/189 80/141/190 79/140/191 73/133/192
s 14
f 76/136/180 60/143/135 61/142/139 75/135/181
f 77/137/184 59/144/136 60/143/135 76/136/180
s 5
f 78/138/185 58/145/158 59/144/157 77/137/186
s 1
f 79/139/187 57/146/132 58/145/131 78/138/188
s 16
f 80/141/190 62/148/155 57/147/154 79/140/191
s 19
f 46/149/193 45/126/194 68/127/195 69/128/196
s 20
f 48/150/197 47/153/198 74/152/199 64/151/200
f 47/153/198 62/155/201 80/154/202 74/152/199
s 19
f 75/135/203 61/142/204 46/156/193 69/128/196
