# This file uses centimeters as units for non-parametric coordinates.

mtllib OutwardCurvedWall_Upper_3_edges.mtl
g default
v -4.000000 3.688389 -2.596170
v -4.000000 6.109358 -2.392469
v -4.000000 2.685362 -1.953316
v -4.000000 4.353894 -2.712777
v -4.000000 4.943294 -2.938259
v -4.000000 5.977722 -1.953316
v -4.000000 5.624291 -3.395647
v -4.000000 5.901617 -3.422361
v -4.000000 6.127214 -3.144150
v -3.983130 2.576136 -2.625711
v -4.000000 2.902449 -2.684656
v 1.930512 4.943294 -2.938259
v 1.930512 4.353894 -2.712777
v 1.930512 3.688389 -2.596170
v 1.930512 2.902449 -2.684656
v 1.926011 2.576136 -2.625711
v 1.941914 2.685362 -1.943642
v 1.941914 5.977722 -1.943642
v 1.930512 6.109358 -2.392469
v 1.930512 6.127214 -3.144150
v 1.930512 5.901617 -3.422361
v 1.930512 5.624291 -3.395647
v 2.938259 4.943294 -1.933968
v 2.712777 4.353894 -1.933968
v 2.596170 3.688389 -1.933968
v 2.684656 2.902449 -1.933968
v 2.625711 2.576136 -1.924543
v 2.392469 6.109358 -1.933968
v 3.144150 6.127214 -1.933968
v 3.422361 5.901617 -1.933968
v 3.395647 5.624291 -1.933968
v 2.258189 4.353712 -2.684948
v 2.299282 4.943093 -2.903033
v 2.382430 5.624053 -3.345477
v 2.387382 5.901376 -3.371291
v 2.337066 6.126996 -3.102097
v 2.200866 6.109201 -2.374848
v 2.240405 2.575958 -2.600081
v 2.252506 2.902269 -2.657907
v 2.236792 3.688216 -2.572207
v 2.533990 4.353556 -2.536009
v 2.686742 4.942892 -2.689037
v 2.996383 5.623759 -2.999568
v 3.014567 5.901077 -3.017652
v 2.826491 6.126753 -2.828626
v 2.318077 6.109110 -2.318048
v 2.474636 2.575819 -2.474193
v 2.514367 2.902119 -2.517230
v 2.454845 3.688084 -2.456951
v 2.684513 4.353599 -2.261423
v 2.902587 4.942964 -2.302659
v 3.344907 5.623890 -2.386276
v 3.370759 5.901211 -2.391174
v 3.101764 6.126852 -2.340349
v 2.374933 6.109113 -2.202994
v 2.600245 2.575853 -2.239357
v 2.657208 2.902159 -2.256202
v 2.571709 3.688113 -2.240078
v -4.000000 4.353894 2.721718
v -4.000000 3.688389 2.605111
v -4.000000 2.685362 1.962257
v -4.000000 4.943294 2.947200
v -4.000000 5.977722 1.962257
v -4.000000 2.902449 2.693597
v 1.930512 5.624291 3.404588
v 1.930512 4.943294 2.947200
v -4.000000 5.624291 3.404588
v 1.930512 4.353894 2.721718
v 1.930512 3.688389 2.605111
v 1.930512 2.902449 2.693597
v -3.983130 2.576136 2.634652
v 1.926011 2.576136 2.634652
v 1.941914 2.685362 1.952583
v 1.941914 5.977722 1.952583
v 1.930512 6.109358 2.401410
v -4.000000 6.109358 2.401410
v 1.930512 6.127214 3.153091
v -4.000000 6.127214 3.153091
v -4.000000 5.901617 3.431302
v 1.930512 5.901617 3.431302
v 2.712777 4.353894 1.942909
v 2.938259 4.943294 1.942909
v 2.596170 3.688389 1.942909
v 2.684656 2.902449 1.942909
v 2.625711 2.576136 1.933484
v 2.392469 6.109358 1.942909
v 3.144150 6.127214 1.942909
v 3.422361 5.901617 1.942909
v 3.395647 5.624291 1.942909
v 2.684513 4.353599 2.270364
v 2.902587 4.942964 2.311600
v 3.344907 5.623890 2.395218
v 3.370759 5.901211 2.400115
v 3.101764 6.126852 2.349290
v 2.374933 6.109113 2.211935
v 2.318077 6.109110 2.326989
v 2.600245 2.575853 2.248298
v 2.474636 2.575819 2.483134
v 2.657208 2.902159 2.265143
v 2.571709 3.688113 2.249019
v 2.299282 4.943093 2.911975
v 2.258189 4.353712 2.693889
v 2.382430 5.624053 3.354419
v 2.387382 5.901376 3.380232
v 2.337066 6.126996 3.111038
v 2.200866 6.109201 2.383790
v 2.252506 2.902269 2.666849
v 2.240405 2.575958 2.609022
v 2.236792 3.688216 2.581149
v 2.686742 4.942892 2.697978
v 2.533990 4.353556 2.544950
v 2.996383 5.623759 3.008509
v 3.014567 5.901077 3.026593
v 2.826491 6.126753 2.837567
v 2.514367 2.902119 2.526171
v 2.454845 3.688084 2.465892
vt 0.257973 0.762909
vt 0.260609 0.749442
vt 0.274069 0.729338
vt 0.253159 0.774788
vt 0.272744 0.796186
vt 0.259132 0.733447
vt 0.157812 0.734415
vt 0.157754 0.750679
vt 0.157856 0.721904
vt 0.157904 0.708508
vt 0.157959 0.692828
vt 0.157648 0.686252
vt 0.158031 0.672748
vt 0.157624 0.787301
vt 0.157495 0.852576
vt 0.157657 0.778211
vt 0.157709 0.763304
vt 0.157735 0.756203
vt 0.248506 0.798747
vt 0.242946 0.794055
vt 0.243599 0.788434
vt 0.263775 0.798683
vt 0.260458 0.726836
vt 0.121017 0.736033
vt 0.121017 0.721795
vt 0.121017 0.708526
vt 0.121017 0.692373
vt 0.121017 0.685499
vt 0.101172 0.670021
vt 0.039689 0.852342
vt 0.039819 0.787067
vt 0.118874 0.792327
vt 0.130332 0.776010
vt 0.132540 0.765418
vt 0.132302 0.757036
vt 0.100515 0.721795
vt 0.100515 0.736033
vt 0.100515 0.708526
vt 0.100515 0.692373
vt 0.091414 0.678773
vt 0.142273 0.672969
vt 0.106960 0.803260
vt 0.141044 0.852583
vt 0.102685 0.792310
vt 0.091186 0.776012
vt 0.088968 0.765418
vt 0.089207 0.757033
vt 0.116946 0.721795
vt 0.116946 0.736033
vt 0.123593 0.757578
vt 0.124127 0.764902
vt 0.122277 0.773700
vt 0.113555 0.789988
vt 0.116946 0.685499
vt 0.116946 0.692373
vt 0.116946 0.708526
vt 0.110742 0.721795
vt 0.110752 0.736033
vt 0.110764 0.757352
vt 0.110761 0.764407
vt 0.110754 0.772601
vt 0.110739 0.789708
vt 0.110773 0.685499
vt 0.110782 0.692373
vt 0.110751 0.708526
vt 0.104588 0.721795
vt 0.104588 0.736033
vt 0.097924 0.757574
vt 0.097384 0.764898
vt 0.099234 0.773692
vt 0.107975 0.789970
vt 0.104588 0.685499
vt 0.104588 0.692373
vt 0.104588 0.708526
vt 0.141601 0.750840
vt 0.141701 0.734634
vt 0.141567 0.756343
vt 0.141523 0.763419
vt 0.141431 0.778272
vt 0.141565 0.787546
vt 0.114615 0.803232
vt 0.141811 0.686646
vt 0.040227 0.672140
vt 0.141957 0.693197
vt 0.141860 0.708821
vt 0.141778 0.722168
vt 0.040175 0.750262
vt 0.040233 0.733998
vt 0.040156 0.755786
vt 0.040131 0.762887
vt 0.040078 0.777794
vt 0.040493 0.685837
vt 0.040381 0.692410
vt 0.040325 0.708091
vt 0.040278 0.721486
vt 0.095855 0.682771
vt 0.100515 0.685499
vt 0.100628 0.684386
vt 0.105500 0.683128
vt 0.110212 0.679466
vt 0.257973 0.762909
vt 0.260609 0.749442
vt 0.274069 0.729338
vt 0.253159 0.774788
vt 0.272744 0.796186
vt 0.259132 0.733447
vt 0.040175 0.750262
vt 0.040233 0.733998
vt 0.157812 0.734415
vt 0.157754 0.750679
vt 0.040278 0.721486
vt 0.157856 0.721904
vt 0.040325 0.708091
vt 0.157904 0.708508
vt 0.040381 0.692410
vt 0.157959 0.692828
vt 0.157648 0.686252
vt 0.040493 0.685837
vt 0.040227 0.672140
vt 0.158031 0.672748
vt 0.039689 0.852342
vt 0.039819 0.787067
vt 0.157624 0.787301
vt 0.157495 0.852576
vt 0.040078 0.777794
vt 0.157657 0.778211
vt 0.040131 0.762887
vt 0.157709 0.763304
vt 0.157735 0.756203
vt 0.040156 0.755786
vt 0.248506 0.798747
vt 0.242946 0.794055
vt 0.243599 0.788434
vt 0.263775 0.798683
vt 0.260458 0.726836
vt 0.065117 0.721714
vt 0.065046 0.734180
vt 0.065193 0.708367
vt 0.065282 0.692743
vt 0.065505 0.686193
vt 0.065206 0.672512
vt 0.064555 0.787089
vt 0.064305 0.852128
vt 0.064798 0.777818
vt 0.064883 0.762965
vt 0.064923 0.755889
vt 0.064954 0.750385
vt 0.104588 0.721795
vt 0.104588 0.736033
vt 0.100515 0.736033
vt 0.100515 0.721795
vt 0.097924 0.757574
vt 0.089207 0.757033
vt 0.097384 0.764898
vt 0.088968 0.765418
vt 0.099234 0.773692
vt 0.091186 0.776012
vt 0.107975 0.789970
vt 0.102685 0.792310
vt 0.106960 0.803260
vt 0.110739 0.789708
vt 0.095855 0.682771
vt 0.091414 0.678773
vt 0.101172 0.670021
vt 0.100628 0.684386
vt 0.104588 0.685499
vt 0.104588 0.692373
vt 0.100515 0.692373
vt 0.100515 0.685499
vt 0.104588 0.708526
vt 0.100515 0.708526
vt 0.121017 0.721795
vt 0.121017 0.736033
vt 0.116946 0.736033
vt 0.116946 0.721795
vt 0.132302 0.757036
vt 0.123593 0.757578
vt 0.132540 0.765418
vt 0.124127 0.764902
vt 0.130332 0.776010
vt 0.122277 0.773700
vt 0.118874 0.792327
vt 0.113555 0.789988
vt 0.121017 0.685499
vt 0.121017 0.692373
vt 0.116946 0.692373
vt 0.116946 0.685499
vt 0.121017 0.708526
vt 0.116946 0.708526
vt 0.110752 0.736033
vt 0.110742 0.721795
vt 0.110764 0.757352
vt 0.110761 0.764407
vt 0.110754 0.772601
vt 0.114615 0.803232
vt 0.105500 0.683128
vt 0.110212 0.679466
vt 0.110782 0.692373
vt 0.110773 0.685499
vt 0.110751 0.708526
vn -1.000000 0.000000 0.000000
vn -1.000000 0.000000 0.000000
vn -1.000000 0.000000 0.000000
vn -1.000000 0.000000 0.000000
vn -1.000000 0.000000 0.000000
vn -1.000000 0.000000 0.000000
vn -1.000000 0.000000 0.000000
vn -1.000000 0.000000 0.000000
vn -1.000000 0.000000 0.000000
vn -1.000000 0.000000 0.000000
vn 0.006165 -0.449885 -0.893065
vn 0.005278 -0.473938 -0.880543
vn 0.000000 -0.557558 -0.830138
vn 0.000000 -0.557558 -0.830138
vn 0.004412 -0.263194 -0.964733
vn 0.000000 -0.357308 -0.933987
vn 0.000000 -0.357308 -0.933987
vn 0.004125 -0.019406 -0.999803
vn 0.000000 -0.172587 -0.984994
vn 0.000000 -0.172587 -0.984994
vn 0.004093 0.027060 -0.999626
vn 0.000000 0.111879 -0.993722
vn 0.000000 0.111879 -0.993722
vn -0.000130 -0.987242 0.159225
vn -0.001941 -0.987333 0.158650
vn -0.064073 -0.993273 0.096456
vn -0.000130 -0.987242 0.159225
vn -0.001628 0.000000 0.999999
vn -0.001628 0.000000 0.999999
vn -0.001628 0.000000 0.999999
vn -0.001628 0.000000 0.999999
vn -0.001106 0.958853 0.283902
vn -0.000746 0.992372 0.123276
vn -0.000232 0.958748 0.284256
vn -0.000232 0.958748 0.284256
vn -0.000078 0.999718 0.023759
vn 0.000000 0.999718 0.023748
vn 0.000000 0.999718 0.023748
vn 0.000000 -0.095883 -0.995393
vn 0.007836 -0.095836 -0.995366
vn 0.000000 -0.095883 -0.995393
vn -1.000000 0.000000 0.000000
vn -1.000000 0.000000 0.000000
vn -1.000000 0.000000 0.000000
vn -1.000000 0.000000 0.000000
vn 0.004857 0.776577 -0.630003
vn 0.004401 0.776592 -0.629988
vn 0.000000 0.776728 -0.629837
vn 0.000000 0.776728 -0.629837
vn 0.004096 -0.177779 -0.984062
vn 0.000000 -0.177762 -0.984074
vn 0.000000 -0.177762 -0.984074
vn -0.998380 -0.054539 -0.016189
vn -0.998380 -0.054539 -0.016189
vn -0.998380 -0.054539 -0.016189
vn -1.000000 0.000000 0.000000
vn -1.000000 0.000000 0.000000
vn -1.000000 0.000000 0.000000
vn -1.000000 0.000000 0.000000
vn 0.964693 -0.263292 -0.006662
vn 0.880397 -0.474173 -0.007905
vn 0.880397 -0.474173 0.007905
vn 0.964693 -0.263292 0.006662
vn 0.999792 -0.019427 -0.006274
vn 0.999792 -0.019427 0.006274
vn 0.999602 0.027519 -0.006251
vn 0.999602 0.027519 0.006251
vn 0.984051 -0.177781 -0.006058
vn 0.984051 -0.177781 0.006058
vn -0.156982 -0.987598 0.002670
vn -0.156982 -0.987598 -0.002670
vn -0.064073 -0.993273 -0.096456
vn -1.000000 0.000000 0.000000
vn -1.000000 0.000000 0.000000
vn -1.000000 0.000000 0.000000
vn -1.000000 0.000000 0.000000
vn -0.121700 0.992566 0.000965
vn -0.279984 0.960004 0.001293
vn -0.279984 0.960004 -0.001293
vn -0.121700 0.992566 -0.000965
vn -0.023764 0.999718 0.000092
vn -0.023764 0.999718 -0.000092
vn 0.630062 0.776517 -0.006594
vn 0.630084 0.776493 -0.007258
vn 0.630084 0.776493 0.007258
vn 0.630062 0.776516 0.006594
vn 0.893289 -0.449388 -0.009207
vn 0.995330 -0.095819 -0.011671
vn 0.995330 -0.095819 0.011671
vn 0.893289 -0.449388 0.009207
vn 0.921503 -0.269703 -0.279449
vn 0.827345 -0.483477 -0.285920
vn 0.855700 -0.417761 -0.305373
vn 0.932660 -0.093155 -0.348521
vn 0.603904 0.768231 -0.212418
vn 0.600209 0.766753 -0.227680
vn -0.023215 0.999712 0.006052
vn -0.079392 0.996699 0.016997
vn -0.262345 0.963668 0.050190
vn -0.146121 -0.988428 0.040732
vn -0.093903 -0.991175 0.093568
vn 0.946649 -0.178291 -0.268456
vn 0.962413 0.023898 -0.270535
vn 0.961521 -0.020794 -0.273944
vn 0.283315 -0.483347 -0.828317
vn 0.275995 -0.269546 -0.922590
vn 0.303032 -0.417778 -0.856524
vn 0.346113 -0.093066 -0.933565
vn 0.226022 0.766871 -0.600686
vn 0.210866 0.768335 -0.604316
vn -0.016980 0.996643 0.080092
vn -0.006070 0.999710 0.023318
vn 0.266368 0.024037 -0.963572
vn 0.268450 -0.178153 -0.946676
vn 0.269689 -0.020772 -0.962723
vn 0.616483 -0.486124 -0.619380
vn 0.459640 -0.262294 -0.848489
vn 0.644336 -0.407963 -0.646836
vn 0.489027 -0.089075 -0.867708
vn 0.454865 0.764779 -0.456302
vn 0.454793 0.764779 -0.456373
vn -0.016986 0.999706 0.017325
vn -0.016990 0.999706 0.017321
vn -0.050017 0.963311 0.263688
vn -0.040928 -0.988420 0.146123
vn 0.471290 0.021312 -0.881721
vn 0.466264 -0.171173 -0.867927
vn 0.470988 -0.020672 -0.881898
vn 0.845622 -0.262239 -0.464924
vn 0.865913 -0.089143 -0.492187
vn 0.866395 -0.171407 -0.469020
vn 0.878664 0.021508 -0.476957
vn 0.878346 -0.020677 -0.477578
vn -1.000000 0.000000 0.000000
vn -1.000000 0.000000 0.000000
vn -1.000000 0.000000 0.000000
vn -1.000000 0.000000 0.000000
vn -1.000000 0.000000 0.000000
vn -1.000000 0.000000 0.000000
vn -1.000000 0.000000 0.000000
vn -1.000000 0.000000 0.000000
vn -1.000000 0.000000 0.000000
vn -1.000000 0.000000 0.000000
vn 0.006165 -0.449885 0.893065
vn 0.000000 -0.557558 0.830138
vn 0.000000 -0.557558 0.830138
vn 0.005278 -0.473938 0.880543
vn 0.000000 -0.357308 0.933987
vn 0.000000 -0.357308 0.933987
vn 0.004412 -0.263194 0.964733
vn 0.000000 -0.172587 0.984994
vn 0.000000 -0.172587 0.984994
vn 0.004125 -0.019406 0.999803
vn 0.000000 0.111880 0.993722
vn 0.000000 0.111880 0.993722
vn 0.004093 0.027060 0.999626
vn -0.000130 -0.987242 -0.159225
vn -0.000130 -0.987242 -0.159225
vn -0.001941 -0.987333 -0.158650
vn -0.001628 0.000000 -0.999999
vn -0.001628 0.000000 -0.999999
vn -0.001628 0.000000 -0.999999
vn -0.001628 0.000000 -0.999999
vn -0.001106 0.958853 -0.283902
vn -0.000232 0.958748 -0.284256
vn -0.000232 0.958748 -0.284256
vn -0.000746 0.992372 -0.123276
vn 0.000000 0.999718 -0.023748
vn 0.000000 0.999718 -0.023748
vn -0.000078 0.999718 -0.023759
vn -0.000000 -0.095883 0.995393
vn -0.000000 -0.095883 0.995393
vn 0.007836 -0.095836 0.995366
vn -1.000000 0.000000 0.000000
vn -1.000000 0.000000 0.000000
vn -1.000000 0.000000 0.000000
vn -1.000000 0.000000 0.000000
vn 0.004857 0.776577 0.630004
vn 0.000000 0.776727 0.629837
vn 0.000000 0.776727 0.629837
vn 0.004401 0.776592 0.629989
vn 0.000000 -0.177763 0.984073
vn 0.000000 -0.177763 0.984073
vn 0.004096 -0.177780 0.984062
vn -0.998380 -0.054539 0.016189
vn -0.998380 -0.054539 0.016189
vn -0.998380 -0.054539 0.016189
vn -1.000000 0.000000 0.000000
vn -1.000000 0.000000 0.000000
vn -1.000000 0.000000 0.000000
vn -1.000000 0.000000 0.000000
vn 0.921503 -0.269703 0.279449
vn 0.827345 -0.483477 0.285920
vn 0.855700 -0.417761 0.305373
vn 0.932660 -0.093155 0.348521
vn 0.603904 0.768231 0.212417
vn 0.600209 0.766754 0.227680
vn -0.023215 0.999712 -0.006052
vn -0.079392 0.996699 -0.016997
vn -0.262345 0.963668 -0.050190
vn -0.146121 -0.988428 -0.040732
vn -0.093903 -0.991175 -0.093568
vn 0.946649 -0.178291 0.268455
vn 0.962413 0.023898 0.270536
vn 0.961521 -0.020794 0.273944
vn 0.275995 -0.269546 0.922590
vn 0.283315 -0.483347 0.828317
vn 0.303032 -0.417777 0.856524
vn 0.346113 -0.093066 0.933565
vn 0.210866 0.768335 0.604316
vn 0.226021 0.766871 0.600686
vn -0.006070 0.999710 -0.023319
vn -0.016980 0.996643 -0.080092
vn 0.268451 -0.178153 0.946676
vn 0.266368 0.024037 0.963572
vn 0.269689 -0.020772 0.962723
vn 0.459641 -0.262294 0.848488
vn 0.616484 -0.486124 0.619380
vn 0.644336 -0.407963 0.646836
vn 0.489028 -0.089075 0.867708
vn 0.454793 0.764779 0.456373
vn 0.454864 0.764779 0.456302
vn -0.016990 0.999706 -0.017321
vn -0.016986 0.999706 -0.017325
vn -0.050017 0.963311 -0.263687
vn -0.040928 -0.988420 -0.146122
vn 0.466264 -0.171173 0.867927
vn 0.471290 0.021312 0.881721
vn 0.470988 -0.020673 0.881897
vn 0.845622 -0.262239 0.464924
vn 0.865913 -0.089144 0.492187
vn 0.866395 -0.171407 0.469020
vn 0.878663 0.021508 0.476957
vn 0.878346 -0.020677 0.477578
s off
g OutwardCurvedWall_Upper_3_edges export_grp
usemtl initialShadingGroup
f 4/1/1 1/2/2 3/3/3
f 5/4/4 4/1/5 3/3/6 6/5/7
f 3/3/8 1/2/9 11/6/10
s 1
f 22/87/11 12/88/12 5/7/13 7/8/14
f 12/88/12 13/95/15 4/9/16 5/7/17
f 13/95/15 14/94/18 1/10/19 4/9/20
f 14/94/18 15/93/21 11/11/22 1/10/23
s 5
f 10/12/24 16/92/25 17/83/26 3/13/27
s off
f 17/30/28 18/31/29 6/14/30 3/15/31
s 6
f 18/31/32 19/91/33 2/16/34 6/14/35
f 19/91/33 20/90/36 9/17/37 2/16/38
s 1
f 8/18/39 21/89/40 22/87/11 7/8/41
s off
f 9/19/42 8/20/43 7/21/44 2/22/45
s 9
f 20/90/46 21/89/47 8/18/48 9/17/49
s 1
f 15/93/21 16/92/50 10/12/51 11/11/52
s off
f 3/3/53 11/6/54 10/23/55
f 6/5/56 2/22/57 7/21/58 5/4/59
s 1
f 24/86/60 23/76/61 82/137/62 81/136/63
f 25/85/64 24/86/60 81/136/63 83/138/65
f 26/84/66 25/85/64 83/138/65 84/139/67
f 27/82/68 26/84/66 84/139/67 85/140/69
s 5
f 17/41/26 27/82/70 85/140/71 73/141/72
s off
f 18/80/73 17/43/74 73/143/75 74/142/76
s 6
f 28/79/77 18/80/78 74/142/79 86/144/80
f 29/78/81 28/79/77 86/144/80 87/145/82
s 9
f 30/77/83 29/78/84 87/145/85 88/146/86
s 1
f 31/75/87 30/77/88 88/146/89 89/147/90
f 23/76/61 31/75/87 89/147/90 82/137/62
f 50/66/91 51/67/92 23/37/61 24/36/60
f 51/67/92 52/68/93 31/47/87 23/37/61
f 52/68/93 53/69/94 30/46/88 31/47/87
s 9
f 53/69/95 54/70/96 29/45/84 30/46/83
s 6
f 54/70/97 55/71/98 28/44/77 29/45/81
f 18/42/78 28/44/77 55/71/98 46/62/99
s 5
f 56/96/100 27/40/70 17/29/26 47/98/101
s 1
f 56/72/102 57/73/103 26/39/66 27/97/68
f 57/73/103 58/74/104 25/38/64 26/39/66
f 58/74/104 50/66/91 24/36/60 25/38/64
f 13/25/15 12/24/12 33/49/105 32/48/106
f 12/24/12 22/35/11 34/50/107 33/49/105
f 22/35/11 21/34/40 35/51/108 34/50/107
s 9
f 21/34/47 20/33/46 36/52/109 35/51/110
s 6
f 20/33/36 19/32/33 37/53/111 36/52/112
s 1
f 16/28/50 15/27/21 39/55/113 38/54/114
f 15/27/21 14/26/18 40/56/115 39/55/113
f 14/26/18 13/25/15 32/48/106 40/56/115
f 32/48/106 33/49/105 42/58/116 41/57/117
f 33/49/105 34/50/107 43/59/118 42/58/116
f 34/50/107 35/51/108 44/60/119 43/59/118
s 9
f 35/51/110 36/52/109 45/61/120 44/60/121
s 6
f 36/52/112 37/53/111 46/62/122 45/61/123
f 18/81/32 46/62/124 37/53/111 19/32/33
s 5
f 38/99/125 47/98/101 17/29/26 16/100/25
s 1
f 38/54/114 39/55/113 48/64/126 47/63/127
f 39/55/113 40/56/115 49/65/128 48/64/126
f 40/56/115 32/48/106 41/57/117 49/65/128
f 41/57/129 42/58/116 51/67/92 50/66/91
f 42/58/116 43/59/118 52/68/93 51/67/92
f 43/59/118 44/60/130 53/69/94 52/68/93
s 9
f 44/60/121 45/61/120 54/70/96 53/69/95
s 6
f 45/61/123 46/62/122 55/71/98 54/70/97
s 1
f 47/63/131 48/64/132 57/73/103 56/72/102
f 48/64/132 49/65/133 58/74/104 57/73/103
f 49/65/133 41/57/129 50/66/91 58/74/104
s off
f 59/101/134 61/103/135 60/102/136
f 62/104/137 63/105/138 61/103/139 59/101/140
f 61/103/141 64/106/142 60/102/143
s 1
f 65/107/144 67/110/145 62/109/146 66/108/147
f 66/108/147 62/109/148 59/112/149 68/111/150
f 68/111/150 59/112/151 60/114/152 69/113/153
f 69/113/153 60/114/154 64/116/155 70/115/156
s 5
f 71/117/157 61/120/158 73/119/72 72/118/159
s off
f 73/121/160 61/124/161 63/123/162 74/122/163
s 6
f 74/122/164 63/123/165 76/126/166 75/125/167
f 75/125/167 76/126/168 78/128/169 77/127/170
s 1
f 79/129/171 67/110/172 65/107/144 80/130/173
s off
f 78/131/174 76/134/175 67/133/176 79/132/177
s 9
f 77/127/178 78/128/179 79/129/180 80/130/181
s 1
f 70/115/156 64/116/182 71/117/183 72/118/184
s off
f 61/103/185 71/135/186 64/106/187
f 63/105/188 62/104/189 67/133/190 76/134/191
s 1
f 90/148/192 81/151/63 82/150/62 91/149/193
f 91/149/193 82/150/62 89/153/90 92/152/194
f 92/152/194 89/153/90 88/155/89 93/154/195
s 9
f 93/154/196 88/155/86 87/157/85 94/156/197
s 6
f 94/156/198 87/157/82 86/159/80 95/158/199
f 74/160/79 96/161/200 95/158/199 86/159/80
s 5
f 97/162/201 98/165/202 73/164/72 85/163/71
s 1
f 97/166/203 85/169/69 84/168/67 99/167/204
f 99/167/204 84/168/67 83/171/65 100/170/205
f 100/170/205 83/171/65 81/151/63 90/148/192
f 68/172/150 102/175/206 101/174/207 66/173/147
f 66/173/147 101/174/207 103/177/208 65/176/144
f 65/176/144 103/177/208 104/179/209 80/178/173
s 9
f 80/178/181 104/179/210 105/181/211 77/180/178
s 6
f 77/180/170 105/181/212 106/183/213 75/182/167
s 1
f 72/184/184 108/187/214 107/186/215 70/185/156
f 70/185/156 107/186/215 109/189/216 69/188/153
f 69/188/153 109/189/216 102/175/206 68/172/150
f 102/175/206 111/191/217 110/190/218 101/174/207
f 101/174/207 110/190/218 112/192/219 103/177/208
f 103/177/208 112/192/219 113/193/220 104/179/209
s 9
f 104/179/210 113/193/221 114/194/222 105/181/211
s 6
f 105/181/212 114/194/223 96/161/224 106/183/213
f 74/195/164 75/182/167 106/183/213 96/161/225
s 5
f 108/196/226 72/197/159 73/164/72 98/165/202
s 1
f 108/187/214 98/199/227 115/198/228 107/186/215
f 107/186/215 115/198/228 116/200/229 109/189/216
f 109/189/216 116/200/229 111/191/217 102/175/206
f 111/191/230 90/148/192 91/149/193 110/190/218
f 110/190/218 91/149/193 92/152/194 112/192/219
f 112/192/219 92/152/194 93/154/195 113/193/231
s 9
f 113/193/221 93/154/196 94/156/197 114/194/222
s 6
f 114/194/223 94/156/198 95/158/199 96/161/224
s 1
f 98/199/232 97/166/203 99/167/204 115/198/233
f 115/198/233 99/167/204 100/170/205 116/200/234
f 116/200/234 100/170/205 90/148/192 111/191/230
