# This file uses centimeters as units for non-parametric coordinates.

mtllib OutwardCurvedWall_Upper.mtl
g default
v -4.000000 3.688389 -2.596170
v -4.000000 6.109358 -2.392469
v -4.000000 2.685362 -1.953316
v -4.000000 4.353894 -2.712777
v -4.000000 4.943294 -2.938259
v -4.000000 5.977722 -1.953316
v -4.000000 5.624291 -3.395647
v -4.000000 5.901617 -3.422361
v -4.000000 6.127214 -3.144150
v -3.983130 2.576136 -2.625711
v -4.000000 2.902449 -2.684656
v 1.930512 4.943294 -2.938259
v 1.930512 4.353894 -2.712777
v 1.930512 3.688389 -2.596170
v 1.930512 2.902449 -2.684656
v 1.926011 2.576136 -2.625711
v 1.941914 2.685362 -1.943642
v 1.941914 5.977722 -1.943642
v 1.930512 6.109358 -2.392469
v 1.930512 6.127214 -3.144150
v 1.930512 5.901617 -3.422361
v 1.930512 5.624291 -3.395647
v 2.596170 3.688389 4.000000
v 2.392469 6.109358 4.000000
v 1.953316 2.685362 4.000000
v 2.712777 4.353894 4.000000
v 2.938259 4.943294 4.000000
v 1.953316 5.977722 4.000000
v 3.395647 5.624291 4.000000
v 3.144150 6.127214 4.000000
v 3.422361 5.901617 4.000000
v 2.684656 2.902449 4.000000
v 2.625711 2.576136 3.988042
v 2.938259 4.943294 -1.933968
v 2.712777 4.353894 -1.933968
v 2.596170 3.688389 -1.933968
v 2.684656 2.902449 -1.933968
v 2.625711 2.576136 -1.924543
v 2.392469 6.109358 -1.933968
v 3.144150 6.127214 -1.933968
v 3.422361 5.901617 -1.933968
v 3.395647 5.624291 -1.933968
v 2.258189 4.353712 -2.684948
v 2.299282 4.943093 -2.903033
v 2.382430 5.624053 -3.345477
v 2.387382 5.901376 -3.371291
v 2.337066 6.126996 -3.102097
v 2.200866 6.109201 -2.374848
v 2.240405 2.575958 -2.600081
v 2.252506 2.902269 -2.657907
v 2.236792 3.688216 -2.572207
v 2.533990 4.353556 -2.536009
v 2.686742 4.942892 -2.689037
v 2.996383 5.623759 -2.999568
v 3.014567 5.901077 -3.017652
v 2.826491 6.126753 -2.828626
v 2.318077 6.109110 -2.318048
v 2.474636 2.575819 -2.474193
v 2.514367 2.902119 -2.517230
v 2.454845 3.688084 -2.456951
v 2.684513 4.353599 -2.261423
v 2.902587 4.942964 -2.302659
v 3.344907 5.623890 -2.386276
v 3.370759 5.901211 -2.391174
v 3.101764 6.126852 -2.340349
v 2.374933 6.109113 -2.202994
v 2.600245 2.575853 -2.239357
v 2.657208 2.902159 -2.256202
v 2.571709 3.688113 -2.240078
vt 0.257973 0.762909
vt 0.260609 0.749442
vt 0.274069 0.729338
vt 0.253159 0.774788
vt 0.272744 0.796186
vt 0.259132 0.733447
vt 0.157812 0.734415
vt 0.157754 0.750679
vt 0.157856 0.721904
vt 0.157904 0.708508
vt 0.157959 0.692828
vt 0.157648 0.686252
vt 0.158031 0.672748
vt 0.157624 0.787301
vt 0.157495 0.852576
vt 0.157657 0.778211
vt 0.157709 0.763304
vt 0.157735 0.756203
vt 0.248506 0.798747
vt 0.242946 0.794055
vt 0.243599 0.788434
vt 0.263775 0.798683
vt 0.260458 0.726836
vt 0.121017 0.736033
vt 0.121017 0.721795
vt 0.121017 0.708526
vt 0.121017 0.692373
vt 0.121017 0.685499
vt 0.101172 0.670021
vt 0.039689 0.852342
vt 0.039819 0.787067
vt 0.118874 0.792327
vt 0.130332 0.776010
vt 0.132540 0.765418
vt 0.132302 0.757036
vt 0.211450 0.762172
vt 0.194790 0.728878
vt 0.208587 0.748752
vt 0.216464 0.773968
vt 0.197245 0.795694
vt 0.226254 0.787450
vt 0.206255 0.798039
vt 0.209794 0.732735
vt 0.208355 0.726152
vt 0.227002 0.793059
vt 0.221523 0.797844
vt 0.009188 0.734846
vt 0.009117 0.722380
vt 0.100515 0.721795
vt 0.100515 0.736033
vt 0.009041 0.709033
vt 0.100515 0.708526
vt 0.008952 0.693409
vt 0.100515 0.692373
vt 0.009151 0.686857
vt 0.091414 0.678773
vt 0.126251 0.672512
vt 0.008838 0.673402
vt 0.009738 0.852579
vt 0.009488 0.787541
vt 0.106960 0.803260
vt 0.127151 0.852128
vt 0.009436 0.778484
vt 0.102685 0.792310
vt 0.009352 0.763631
vt 0.091186 0.776012
vt 0.009311 0.756555
vt 0.088968 0.765418
vt 0.089207 0.757033
vt 0.009280 0.751052
vt 0.116946 0.721795
vt 0.116946 0.736033
vt 0.123593 0.757578
vt 0.124127 0.764902
vt 0.122277 0.773700
vt 0.113555 0.789988
vt 0.116946 0.685499
vt 0.116946 0.692373
vt 0.116946 0.708526
vt 0.110742 0.721795
vt 0.110752 0.736033
vt 0.110764 0.757352
vt 0.110761 0.764407
vt 0.110754 0.772601
vt 0.110739 0.789708
vt 0.110773 0.685499
vt 0.110782 0.692373
vt 0.110751 0.708526
vt 0.104588 0.721795
vt 0.104588 0.736033
vt 0.097924 0.757574
vt 0.097384 0.764898
vt 0.099234 0.773692
vt 0.107975 0.789970
vt 0.104588 0.685499
vt 0.104588 0.692373
vt 0.104588 0.708526
vt 0.126502 0.750385
vt 0.126410 0.734180
vt 0.126534 0.755889
vt 0.126574 0.762965
vt 0.126658 0.777818
vt 0.126902 0.787089
vt 0.114615 0.803232
vt 0.125951 0.686193
vt 0.040227 0.672140
vt 0.126175 0.692743
vt 0.126264 0.708367
vt 0.126339 0.721714
vt 0.040175 0.750262
vt 0.040233 0.733998
vt 0.040156 0.755786
vt 0.040131 0.762887
vt 0.040078 0.777794
vt 0.040493 0.685837
vt 0.040381 0.692410
vt 0.040325 0.708091
vt 0.040278 0.721486
vt 0.095855 0.682771
vt 0.100515 0.685499
vt 0.100628 0.684386
vt 0.105500 0.683128
vt 0.110212 0.679466
vn -1.000000 0.000000 0.000000
vn -1.000000 0.000000 0.000000
vn -1.000000 0.000000 0.000000
vn -1.000000 0.000000 0.000000
vn -1.000000 0.000000 0.000000
vn -1.000000 0.000000 0.000000
vn -1.000000 0.000000 0.000000
vn -1.000000 0.000000 0.000000
vn -1.000000 0.000000 0.000000
vn -1.000000 0.000000 0.000000
vn 0.006165 -0.449885 -0.893065
vn 0.005278 -0.473938 -0.880543
vn 0.000000 -0.557558 -0.830138
vn 0.000000 -0.557558 -0.830138
vn 0.004412 -0.263194 -0.964733
vn 0.000000 -0.357308 -0.933987
vn 0.000000 -0.357308 -0.933987
vn 0.004125 -0.019406 -0.999803
vn 0.000000 -0.172587 -0.984994
vn 0.000000 -0.172587 -0.984994
vn 0.004093 0.027060 -0.999626
vn 0.000000 0.111879 -0.993722
vn 0.000000 0.111879 -0.993722
vn -0.000130 -0.987242 0.159225
vn -0.001941 -0.987333 0.158650
vn -0.080384 -0.993500 0.080598
vn -0.000130 -0.987242 0.159225
vn -0.001628 0.000000 0.999999
vn -0.001628 0.000000 0.999999
vn -0.001628 0.000000 0.999999
vn -0.001628 0.000000 0.999999
vn -0.001106 0.958853 0.283902
vn -0.000746 0.992372 0.123276
vn -0.000232 0.958748 0.284256
vn -0.000232 0.958748 0.284256
vn -0.000078 0.999718 0.023759
vn 0.000000 0.999718 0.023748
vn 0.000000 0.999718 0.023748
vn 0.000000 -0.095883 -0.995393
vn 0.007836 -0.095836 -0.995366
vn 0.000000 -0.095883 -0.995393
vn -1.000000 0.000000 0.000000
vn -1.000000 0.000000 0.000000
vn -1.000000 0.000000 0.000000
vn -1.000000 0.000000 0.000000
vn 0.004857 0.776577 -0.630003
vn 0.004401 0.776592 -0.629988
vn 0.000000 0.776728 -0.629837
vn 0.000000 0.776728 -0.629837
vn 0.004096 -0.177779 -0.984062
vn 0.000000 -0.177762 -0.984074
vn 0.000000 -0.177762 -0.984074
vn -0.998380 -0.054539 -0.016189
vn -0.998380 -0.054539 -0.016189
vn -0.998380 -0.054539 -0.016189
vn -1.000000 0.000000 0.000000
vn -1.000000 0.000000 0.000000
vn -1.000000 0.000000 0.000000
vn -1.000000 0.000000 0.000000
vn 0.000000 0.000000 1.000000
vn 0.000000 0.000000 1.000000
vn 0.000000 0.000000 1.000000
vn 0.000000 0.000000 1.000000
vn 0.000000 0.000000 1.000000
vn 0.000000 0.000000 1.000000
vn 0.000000 0.000000 1.000000
vn 0.000000 0.000000 1.000000
vn 0.000000 0.000000 1.000000
vn 0.000000 0.000000 1.000000
vn 0.000000 0.000000 1.000000
vn 0.000000 0.000000 1.000000
vn 0.000000 0.000000 1.000000
vn 0.000000 0.000000 1.000000
vn 0.011486 -0.038690 0.999185
vn 0.011486 -0.038690 0.999185
vn 0.011486 -0.038690 0.999185
vn 0.000000 0.000000 1.000000
vn 0.000000 0.000000 1.000000
vn 0.000000 0.000000 1.000000
vn 0.000000 0.000000 1.000000
vn 0.933987 -0.357307 0.000000
vn 0.933987 -0.357307 0.000000
vn 0.964731 -0.263199 -0.004476
vn 0.880539 -0.473944 -0.005333
vn 0.984994 -0.172587 0.000000
vn 0.984994 -0.172587 0.000000
vn 0.999803 -0.019409 -0.004209
vn 0.993722 0.111880 0.000000
vn 0.993722 0.111880 0.000000
vn 0.999611 0.027576 -0.004193
vn 0.984073 -0.177763 0.000000
vn 0.984073 -0.177763 0.000000
vn 0.984063 -0.177775 -0.004060
vn -0.158464 -0.987363 0.001947
vn -0.159028 -0.987274 0.000153
vn -0.159028 -0.987274 0.000153
vn -0.999998 0.000000 0.001918
vn -0.999998 0.000000 0.001918
vn -0.999998 0.000000 0.001918
vn -0.999998 0.000000 0.001918
vn -0.283748 0.958899 0.000272
vn -0.283748 0.958899 0.000272
vn -0.123030 0.992403 0.000750
vn -0.283387 0.959005 0.001132
vn -0.023748 0.999718 0.000000
vn -0.023748 0.999718 0.000000
vn -0.023759 0.999718 0.000061
vn 0.629837 0.776728 0.000000
vn 0.629837 0.776728 0.000000
vn 0.629992 0.776589 -0.004455
vn 0.630008 0.776573 -0.004920
vn 0.893068 -0.449880 -0.006221
vn 0.995365 -0.095840 -0.007912
vn 0.995393 -0.095882 -0.000000
vn 0.995393 -0.095882 -0.000000
vn 0.830138 -0.557558 0.000000
vn 0.830138 -0.557558 0.000000
vn 0.921503 -0.269703 -0.279449
vn 0.827345 -0.483477 -0.285920
vn 0.855700 -0.417761 -0.305373
vn 0.932660 -0.093155 -0.348521
vn 0.603904 0.768231 -0.212418
vn 0.600209 0.766753 -0.227680
vn -0.023215 0.999712 0.006052
vn -0.079392 0.996699 0.016997
vn -0.262345 0.963668 0.050190
vn -0.146121 -0.988428 0.040732
vn -0.093903 -0.991175 0.093568
vn 0.946649 -0.178291 -0.268456
vn 0.962413 0.023898 -0.270535
vn 0.961521 -0.020794 -0.273944
vn 0.283315 -0.483347 -0.828317
vn 0.275995 -0.269546 -0.922590
vn 0.303032 -0.417778 -0.856524
vn 0.346113 -0.093066 -0.933565
vn 0.226022 0.766871 -0.600686
vn 0.210866 0.768335 -0.604316
vn -0.016980 0.996643 0.080092
vn -0.006070 0.999710 0.023318
vn 0.266368 0.024037 -0.963572
vn 0.268450 -0.178153 -0.946676
vn 0.269689 -0.020772 -0.962723
vn 0.616483 -0.486124 -0.619380
vn 0.459640 -0.262294 -0.848489
vn 0.644336 -0.407963 -0.646836
vn 0.489027 -0.089075 -0.867708
vn 0.454865 0.764779 -0.456302
vn 0.454793 0.764779 -0.456373
vn -0.016986 0.999706 0.017325
vn -0.016990 0.999706 0.017321
vn -0.050017 0.963311 0.263688
vn -0.040928 -0.988420 0.146123
vn 0.471290 0.021312 -0.881721
vn 0.466264 -0.171173 -0.867927
vn 0.470988 -0.020672 -0.881898
vn 0.845622 -0.262239 -0.464924
vn 0.865913 -0.089143 -0.492187
vn 0.866395 -0.171407 -0.469020
vn 0.878664 0.021508 -0.476957
vn 0.878346 -0.020677 -0.477578
s off
g OutwardCurvedWall_Upper export_grp
usemtl initialShadingGroup
f 4/1/1 1/2/2 3/3/3
f 5/4/4 4/1/5 3/3/6 6/5/7
f 3/3/8 1/2/9 11/6/10
s 1
f 22/110/11 12/111/12 5/7/13 7/8/14
f 12/111/12 13/118/15 4/9/16 5/7/17
f 13/118/15 14/117/18 1/10/19 4/9/20
f 14/117/18 15/116/21 11/11/22 1/10/23
s 5
f 10/12/24 16/115/25 17/106/26 3/13/27
s off
f 17/30/28 18/31/29 6/14/30 3/15/31
s 6
f 18/31/32 19/114/33 2/16/34 6/14/35
f 19/114/33 20/113/36 9/17/37 2/16/38
s 1
f 8/18/39 21/112/40 22/110/11 7/8/41
s off
f 9/19/42 8/20/43 7/21/44 2/22/45
s 9
f 20/113/46 21/112/47 8/18/48 9/17/49
s 1
f 15/116/21 16/115/50 10/12/51 11/11/52
s off
f 3/3/53 11/6/54 10/23/55
f 6/5/56 2/22/57 7/21/58 5/4/59
f 26/36/60 25/37/61 23/38/62
f 27/39/63 28/40/64 25/37/65 26/36/66
f 27/39/67 29/41/68 24/42/69 28/40/70
f 25/37/71 32/43/72 23/38/73
f 25/37/74 33/44/75 32/43/76
f 24/42/77 29/41/78 31/45/79 30/46/80
s 1
f 27/47/81 26/48/82 35/109/83 34/99/84
f 26/48/85 23/51/86 36/108/87 35/109/83
f 23/51/88 32/53/89 37/107/90 36/108/87
f 32/53/91 33/55/92 38/105/93 37/107/90
s 5
f 17/57/26 38/105/94 33/55/95 25/58/96
s off
f 25/59/97 28/60/98 18/103/99 17/62/100
s 6
f 28/60/101 24/63/102 39/102/103 18/103/104
f 24/63/105 30/65/106 40/101/107 39/102/103
s 9
f 30/65/108 31/67/109 41/100/110 40/101/111
s 1
f 42/98/112 41/100/113 31/67/114 29/70/115
f 29/70/116 27/47/117 34/99/84 42/98/112
f 61/89/118 62/90/119 34/50/84 35/49/83
f 62/90/119 63/91/120 42/69/112 34/50/84
f 63/91/120 64/92/121 41/68/113 42/69/112
s 9
f 64/92/122 65/93/123 40/66/111 41/68/110
s 6
f 65/93/124 66/94/125 39/64/103 40/66/107
f 18/61/104 39/64/103 66/94/125 57/85/126
s 5
f 67/119/127 38/56/94 17/29/26 58/121/128
s 1
f 67/95/129 68/96/130 37/54/90 38/120/93
f 68/96/130 69/97/131 36/52/87 37/54/90
f 69/97/131 61/89/118 35/49/83 36/52/87
f 13/25/15 12/24/12 44/72/132 43/71/133
f 12/24/12 22/35/11 45/73/134 44/72/132
f 22/35/11 21/34/40 46/74/135 45/73/134
s 9
f 21/34/47 20/33/46 47/75/136 46/74/137
s 6
f 20/33/36 19/32/33 48/76/138 47/75/139
s 1
f 16/28/50 15/27/21 50/78/140 49/77/141
f 15/27/21 14/26/18 51/79/142 50/78/140
f 14/26/18 13/25/15 43/71/133 51/79/142
f 43/71/133 44/72/132 53/81/143 52/80/144
f 44/72/132 45/73/134 54/82/145 53/81/143
f 45/73/134 46/74/135 55/83/146 54/82/145
s 9
f 46/74/137 47/75/136 56/84/147 55/83/148
s 6
f 47/75/139 48/76/138 57/85/149 56/84/150
f 18/104/32 57/85/151 48/76/138 19/32/33
s 5
f 49/122/152 58/121/128 17/29/26 16/123/25
s 1
f 49/77/141 50/78/140 59/87/153 58/86/154
f 50/78/140 51/79/142 60/88/155 59/87/153
f 51/79/142 43/71/133 52/80/144 60/88/155
f 52/80/156 53/81/143 62/90/119 61/89/118
f 53/81/143 54/82/145 63/91/120 62/90/119
f 54/82/145 55/83/157 64/92/121 63/91/120
s 9
f 55/83/148 56/84/147 65/93/123 64/92/122
s 6
f 56/84/150 57/85/149 66/94/125 65/93/124
s 1
f 58/86/158 59/87/159 68/96/130 67/95/129
f 59/87/159 60/88/160 69/97/131 68/96/130
f 60/88/160 52/80/156 61/89/118 69/97/131
