# This file uses centimeters as units for non-parametric coordinates.

mtllib OutwardCurvedWall_Lower_4_edges.mtl
g default
v 1.935102 2.685362 -1.944282
v 1.916888 2.783059 -2.582202
v 1.916888 2.692378 -2.776969
v 1.916888 1.920608 -3.154583
v 1.916888 1.265400 -3.596099
v 1.916888 1.265400 -4.000000
v 1.916888 0.000000 -4.000000
v 1.935102 0.000000 -1.944282
v 2.582202 2.783059 -1.935248
v 2.776969 2.692378 -1.935248
v 3.154583 1.920608 -1.935248
v 3.596099 1.270650 -1.935248
v 3.996885 1.270650 -1.935248
v 3.996885 0.000000 -1.935248
v 2.298899 2.783059 -2.556851
v 2.548883 -0.000000 -4.000000
v 2.548883 1.266712 -4.000000
v 2.478316 1.266712 -3.539294
v 2.400186 1.920608 -3.111475
v 2.333365 2.692378 -2.745576
v 2.473455 2.783059 -2.474421
v 4.000000 -0.000000 -4.000000
v 4.000000 1.268025 -4.000000
v 3.151068 1.268025 -3.171062
v 2.855991 1.920608 -2.867700
v 2.603623 2.692378 -2.608244
v 2.557443 2.783059 -2.311298
v 4.000000 -0.000000 -2.575104
v 4.000000 1.269337 -2.575104
v 3.536207 1.269337 -2.500875
v 3.109990 1.920608 -2.418321
v 2.745461 2.692378 -2.347716
v 1.935102 2.685362 1.944282
v 1.916888 2.783059 2.582202
v 1.916888 2.692378 2.776969
v 1.916888 1.920608 3.154583
v 1.916888 1.265400 3.596099
v 1.916888 1.265400 4.000000
v 1.916888 -0.000000 4.000000
v 1.935102 -0.000000 1.944282
v 2.582202 2.783059 1.935248
v 2.776969 2.692378 1.935248
v 3.154583 1.920608 1.935248
v 3.596099 1.270650 1.935248
v 3.996885 1.270650 1.935248
v 3.996885 0.000000 1.935248
v 2.557443 2.783059 2.311298
v 2.473455 2.783059 2.474421
v 4.000000 -0.000000 2.575104
v 4.000000 -0.000000 4.000000
v 4.000000 1.269337 2.575104
v 3.536207 1.269337 2.500875
v 3.109990 1.920608 2.418321
v 2.745461 2.692378 2.347716
v 2.548883 1.266712 4.000000
v 2.548883 -0.000000 4.000000
v 2.478316 1.266712 3.539294
v 2.400186 1.920608 3.111475
v 2.333365 2.692378 2.745576
v 2.298899 2.783059 2.556851
v 4.000000 1.268025 4.000000
v 3.151068 1.268025 3.171062
v 2.855991 1.920608 2.867700
v 2.603623 2.692378 2.608244
v -1.935102 2.685362 -1.944282
v -1.916888 2.783059 -2.582202
v -1.916888 2.692378 -2.776969
v -1.916888 1.920608 -3.154583
v -1.916888 1.265400 -3.596099
v -1.916888 1.265400 -4.000000
v -1.916888 0.000000 -4.000000
v -1.935102 -0.000000 -1.944282
v -2.582202 2.783059 -1.935248
v -1.935102 2.685362 1.944282
v -2.582202 2.783059 1.935248
v -2.776969 2.692378 -1.935248
v -2.776969 2.692378 1.935248
v -3.154583 1.920608 -1.935248
v -3.154583 1.920608 1.935248
v -3.596099 1.270650 -1.935248
v -3.596099 1.270650 1.935248
v -3.996885 1.270650 -1.935248
v -3.996885 1.270650 1.935248
v -3.996885 -0.000000 -1.935248
v -3.996885 0.000000 1.935248
v -1.935102 0.000000 1.944282
v -2.557443 2.783059 -2.311298
v -2.473455 2.783059 -2.474421
v -4.000000 -0.000000 -2.575104
v -4.000000 -0.000000 -4.000000
v -4.000000 1.269337 -2.575104
v -3.536207 1.269337 -2.500875
v -3.109990 1.920608 -2.418321
v -2.745461 2.692378 -2.347716
v -2.548883 1.266712 -4.000000
v -2.548883 -0.000000 -4.000000
v -2.478316 1.266712 -3.539294
v -2.400186 1.920608 -3.111475
v -2.333365 2.692378 -2.745576
v -2.298899 2.783059 -2.556851
v -4.000000 1.268025 -4.000000
v -3.151068 1.268025 -3.171062
v -2.855991 1.920608 -2.867700
v -2.603623 2.692378 -2.608244
v -1.916888 2.783059 2.582202
v -1.916888 1.920608 3.154583
v -1.916888 2.692378 2.776969
v -1.916888 1.265400 3.596099
v -1.916888 1.265400 4.000000
v -1.916888 -0.000000 4.000000
v -2.473455 2.783059 2.474421
v -2.557443 2.783059 2.311298
v -4.000000 -0.000000 2.575104
v -4.000000 -0.000000 4.000000
v -4.000000 1.269337 2.575104
v -3.536207 1.269337 2.500875
v -3.109990 1.920608 2.418321
v -2.745461 2.692378 2.347716
v -2.548883 -0.000000 4.000000
v -2.548883 1.266712 4.000000
v -2.478316 1.266712 3.539294
v -2.400186 1.920608 3.111475
v -2.333365 2.692378 2.745576
v -2.298899 2.783059 2.556851
v -4.000000 1.268025 4.000000
v -3.151068 1.268025 3.171062
v -2.855991 1.920608 2.867700
v -2.603623 2.692378 2.608244
vt 0.223024 0.943216
vt 0.270250 0.930931
vt 0.270250 0.926449
vt 0.270250 0.908553
vt 0.270250 0.892432
vt 0.276841 0.886472
vt 0.284764 0.865596
vt 0.252381 0.813917
vt 0.223469 0.997827
vt 0.220552 0.930931
vt 0.220552 0.946736
vt 0.220552 0.926449
vt 0.220552 0.908553
vt 0.225969 0.892562
vt 0.222542 0.886502
vt 0.232631 0.872803
vt 0.301559 0.816348
vt 0.302516 0.997692
vt 0.260932 0.930931
vt 0.274830 0.861145
vt 0.267225 0.881834
vt 0.260932 0.892432
vt 0.260932 0.908553
vt 0.260932 0.926449
vt 0.245448 0.930931
vt 0.250199 0.851156
vt 0.248599 0.870249
vt 0.245424 0.892432
vt 0.245433 0.908553
vt 0.245444 0.926449
vt 0.230107 0.930931
vt 0.223995 0.860337
vt 0.232225 0.881954
vt 0.230107 0.892432
vt 0.230107 0.908553
vt 0.230107 0.926449
vt 0.301732 0.858204
vt 0.222022 0.816794
vt 0.301912 0.884000
vt 0.301946 0.892136
vt 0.302029 0.908087
vt 0.302121 0.925530
vt 0.302144 0.929892
vt 0.302396 0.943176
vt 0.222800 0.858413
vt 0.223014 0.884147
vt 0.223058 0.892179
vt 0.223164 0.908247
vt 0.223279 0.925720
vt 0.223308 0.930090
vt 0.270250 0.946677
vt 0.251641 0.876706
vt 0.214341 0.865404
vt 0.281257 0.870496
vt 0.303183 0.850182
vt 0.311096 0.832746
vt 0.235420 0.889364
vt 0.220552 0.892432
vt 0.249825 0.889713
vt 0.264075 0.889190
vt 0.273362 0.892544
vt 0.303062 0.943219
vt 0.302779 0.930092
vt 0.302808 0.925723
vt 0.302923 0.908250
vt 0.303029 0.892182
vt 0.303073 0.884150
vt 0.303287 0.858416
vt 0.304065 0.816796
vt 0.302618 0.997829
vt 0.223914 0.930338
vt 0.223813 0.943625
vt 0.223887 0.925977
vt 0.223780 0.908534
vt 0.223681 0.892583
vt 0.223622 0.884447
vt 0.223508 0.858651
vt 0.223203 0.816795
vt 0.224316 0.998139
vt 0.220552 0.946736
vt 0.220552 0.930931
vt 0.230107 0.930931
vt 0.245448 0.930931
vt 0.251641 0.876706
vt 0.232631 0.872803
vt 0.252381 0.813917
vt 0.281257 0.870496
vt 0.223995 0.860337
vt 0.232225 0.881954
vt 0.222542 0.886502
vt 0.214341 0.865404
vt 0.235420 0.889364
vt 0.225969 0.892562
vt 0.230107 0.892432
vt 0.230107 0.908553
vt 0.220552 0.908553
vt 0.220552 0.892432
vt 0.230107 0.926449
vt 0.220552 0.926449
vt 0.284764 0.865596
vt 0.276841 0.886472
vt 0.267225 0.881834
vt 0.274830 0.861145
vt 0.273362 0.892544
vt 0.264075 0.889190
vt 0.270250 0.892432
vt 0.270250 0.908553
vt 0.260932 0.908553
vt 0.260932 0.892432
vt 0.270250 0.926449
vt 0.260932 0.926449
vt 0.270250 0.930931
vt 0.260932 0.930931
vt 0.270250 0.946677
vt 0.303183 0.850182
vt 0.311096 0.832746
vt 0.248599 0.870249
vt 0.250199 0.851156
vt 0.249825 0.889713
vt 0.245433 0.908553
vt 0.245424 0.892432
vt 0.245444 0.926449
vt 0.301778 0.942677
vt 0.301315 0.929556
vt 0.301284 0.925186
vt 0.301160 0.907713
vt 0.301046 0.891646
vt 0.300980 0.883613
vt 0.300841 0.857879
vt 0.301050 0.816252
vt 0.302081 0.997289
vt 0.302144 0.929892
vt 0.302396 0.943176
vt 0.223813 0.943625
vt 0.223914 0.930338
vt 0.302121 0.925530
vt 0.223887 0.925977
vt 0.302029 0.908087
vt 0.223780 0.908534
vt 0.301946 0.892136
vt 0.223681 0.892583
vt 0.301912 0.884000
vt 0.223622 0.884447
vt 0.301732 0.858204
vt 0.223508 0.858651
vt 0.301559 0.816348
vt 0.223203 0.816795
vt 0.302516 0.997692
vt 0.224316 0.998139
vt 0.220552 0.946736
vt 0.220552 0.930931
vt 0.230107 0.930931
vt 0.245448 0.930931
vt 0.251641 0.876706
vt 0.232631 0.872803
vt 0.252381 0.813917
vt 0.281257 0.870496
vt 0.223995 0.860337
vt 0.232225 0.881954
vt 0.222542 0.886502
vt 0.214341 0.865404
vt 0.235420 0.889364
vt 0.225969 0.892562
vt 0.230107 0.892432
vt 0.230107 0.908553
vt 0.220552 0.908553
vt 0.220552 0.892432
vt 0.230107 0.926449
vt 0.220552 0.926449
vt 0.284764 0.865596
vt 0.276841 0.886472
vt 0.267225 0.881834
vt 0.274830 0.861145
vt 0.273362 0.892544
vt 0.264075 0.889190
vt 0.270250 0.892432
vt 0.270250 0.908553
vt 0.260932 0.908553
vt 0.260932 0.892432
vt 0.270250 0.926449
vt 0.260932 0.926449
vt 0.270250 0.930931
vt 0.260932 0.930931
vt 0.270250 0.946677
vt 0.303183 0.850182
vt 0.311096 0.832746
vt 0.248599 0.870249
vt 0.250199 0.851156
vt 0.249825 0.889713
vt 0.245433 0.908553
vt 0.245424 0.892432
vt 0.245444 0.926449
vt 0.224396 0.929556
vt 0.223933 0.942677
vt 0.224551 0.907713
vt 0.224426 0.925186
vt 0.224665 0.891646
vt 0.224731 0.883613
vt 0.224869 0.857879
vt 0.224661 0.816252
vt 0.223630 0.997289
vt 0.220552 0.946736
vt 0.245448 0.930931
vt 0.230107 0.930931
vt 0.220552 0.930931
vt 0.251641 0.876706
vt 0.281257 0.870496
vt 0.252381 0.813917
vt 0.232631 0.872803
vt 0.223995 0.860337
vt 0.214341 0.865404
vt 0.222542 0.886502
vt 0.232225 0.881954
vt 0.225969 0.892562
vt 0.235420 0.889364
vt 0.230107 0.892432
vt 0.220552 0.892432
vt 0.220552 0.908553
vt 0.230107 0.908553
vt 0.220552 0.926449
vt 0.230107 0.926449
vt 0.284764 0.865596
vt 0.274830 0.861145
vt 0.267225 0.881834
vt 0.276841 0.886472
vt 0.264075 0.889190
vt 0.273362 0.892544
vt 0.270250 0.892432
vt 0.260932 0.892432
vt 0.260932 0.908553
vt 0.270250 0.908553
vt 0.260932 0.926449
vt 0.270250 0.926449
vt 0.260932 0.930931
vt 0.270250 0.930931
vt 0.270250 0.946677
vt 0.303183 0.850182
vt 0.311096 0.832746
vt 0.250199 0.851156
vt 0.248599 0.870249
vt 0.249825 0.889713
vt 0.245424 0.892432
vt 0.245433 0.908553
vt 0.245444 0.926449
vn -0.001073 0.988533 0.151002
vn -0.001826 0.988573 0.150733
vn 0.001826 0.988573 0.150733
vn 0.001073 0.988533 0.151002
vn 0.007959 0.439171 -0.898368
vn 0.008649 0.498213 -0.867011
vn -0.008649 0.498213 -0.867011
vn -0.007959 0.439171 -0.898368
vn 0.009112 0.558525 -0.829438
vn -0.009112 0.558525 -0.829438
vn -0.000331 1.000000 -0.000027
vn -0.000314 1.000000 -0.000026
vn 0.000314 1.000000 -0.000026
vn 0.000331 1.000000 -0.000027
vn 0.000000 0.000000 -1.000000
vn 0.000000 0.000000 -1.000000
vn 0.000000 0.000000 -1.000000
vn 0.000000 0.000000 -1.000000
vn -0.000000 -1.000000 0.000000
vn -0.000000 -1.000000 0.000000
vn 0.000000 -1.000000 0.000000
vn 0.000000 -1.000000 0.000000
vn 0.000000 0.000000 1.000000
vn 0.000000 0.000000 1.000000
vn 0.000000 0.000000 1.000000
vn 0.000000 0.000000 1.000000
vn 0.002929 0.906408 -0.422394
vn 0.002719 0.906419 -0.422372
vn -0.002719 0.906419 -0.422372
vn -0.002929 0.906408 -0.422394
vn -0.148606 0.988895 0.001841
vn -0.148911 0.988850 0.001015
vn -0.148911 0.988850 -0.001015
vn -0.148606 0.988895 -0.001841
vn 0.422408 0.906402 -0.002675
vn 0.422434 0.906389 -0.002882
vn 0.422434 0.906389 0.002882
vn 0.422408 0.906402 0.002675
vn 0.866234 0.499559 -0.008955
vn 0.898387 0.439130 -0.008067
vn 0.898387 0.439130 0.008067
vn 0.866234 0.499559 0.008955
vn 0.827427 0.561491 -0.009607
vn 0.827427 0.561491 0.009607
vn -0.000027 1.000000 -0.000314
vn -0.000028 1.000000 -0.000331
vn -0.000028 1.000000 0.000331
vn -0.000027 1.000000 0.000314
vn 1.000000 0.000000 0.000690
vn 1.000000 0.000000 0.000690
vn 1.000000 0.000000 -0.000690
vn 1.000000 0.000000 -0.000690
vn 0.000000 -1.000000 0.000000
vn 0.000000 -1.000000 -0.000000
vn -0.000000 -1.000000 -0.000000
vn -1.000000 0.000000 0.000000
vn -1.000000 0.000000 0.000000
vn -1.000000 0.000000 0.000000
vn -1.000000 0.000000 0.000000
vn -0.138881 0.989913 0.028011
vn -0.138881 0.989913 0.028011
vn 0.000000 -1.000000 0.000000
vn -0.000000 -1.000000 0.000000
vn 0.999999 0.000000 0.001510
vn 0.999999 0.000000 0.001512
vn -0.000640 0.999999 -0.001340
vn -0.000637 0.999999 -0.001346
vn 0.791114 0.551845 -0.263831
vn 0.822075 0.503348 -0.266147
vn 0.863850 0.432126 -0.258903
vn 0.417288 0.904133 -0.091726
vn 0.415978 0.903815 -0.100399
vn 0.000000 0.000000 -1.000000
vn 0.000000 0.000000 -1.000000
vn -0.001342 0.999999 -0.000650
vn -0.001337 0.999999 -0.000653
vn 0.254291 0.502222 -0.826504
vn 0.251718 0.550632 -0.795891
vn 0.247519 0.432117 -0.867185
vn 0.095925 0.903661 -0.417367
vn 0.088282 0.903979 -0.418364
vn -0.027410 0.989553 0.141542
vn -0.027410 0.989553 0.141542
vn -0.000000 -1.000000 0.000000
vn -0.000000 0.000000 -1.000000
vn -0.000000 0.000000 -1.000000
vn -0.000934 0.999999 -0.000947
vn -0.000930 0.999999 -0.000951
vn 0.603222 0.503958 -0.618182
vn 0.585065 0.546542 -0.599159
vn 0.423057 0.414023 -0.805983
vn 0.298220 0.902357 -0.311153
vn 0.298401 0.902357 -0.310979
vn 1.000000 0.000000 0.000000
vn 1.000000 0.000000 0.000000
vn 0.795517 0.412791 -0.443572
vn -0.001826 0.988573 -0.150733
vn -0.001073 0.988533 -0.151002
vn 0.001073 0.988533 -0.151002
vn 0.001826 0.988573 -0.150733
vn 0.008649 0.498213 0.867011
vn 0.007959 0.439171 0.898368
vn -0.007959 0.439171 0.898368
vn -0.008649 0.498213 0.867011
vn 0.009112 0.558525 0.829438
vn -0.009112 0.558525 0.829438
vn -0.000314 1.000000 0.000026
vn -0.000331 1.000000 0.000027
vn 0.000331 1.000000 0.000027
vn 0.000314 1.000000 0.000026
vn -0.000000 0.000000 1.000000
vn -0.000000 0.000000 1.000000
vn -0.000000 0.000000 1.000000
vn -0.000000 0.000000 1.000000
vn -0.000000 -1.000000 -0.000000
vn 0.000000 -1.000000 -0.000000
vn 0.000000 -1.000000 -0.000000
vn 0.000000 0.000000 -1.000000
vn 0.000000 0.000000 -1.000000
vn 0.000000 0.000000 -1.000000
vn 0.000000 0.000000 -1.000000
vn 0.002719 0.906419 0.422372
vn 0.002929 0.906408 0.422394
vn -0.002929 0.906408 0.422394
vn -0.002719 0.906419 0.422372
vn -0.138881 0.989913 -0.028011
vn -0.138881 0.989913 -0.028011
vn 0.000000 -1.000000 -0.000000
vn -0.000000 -1.000000 -0.000000
vn 0.999999 0.000000 -0.001510
vn 0.999999 0.000000 -0.001512
vn -0.000640 0.999999 0.001340
vn -0.000637 0.999999 0.001346
vn 0.791114 0.551845 0.263831
vn 0.822075 0.503348 0.266147
vn 0.863850 0.432126 0.258903
vn 0.417288 0.904134 0.091726
vn 0.415978 0.903816 0.100399
vn 0.000000 0.000000 1.000000
vn 0.000000 0.000000 1.000000
vn -0.001337 0.999999 0.000653
vn -0.001342 0.999999 0.000650
vn 0.251718 0.550632 0.795891
vn 0.254291 0.502222 0.826504
vn 0.247519 0.432117 0.867185
vn 0.088282 0.903979 0.418364
vn 0.095925 0.903661 0.417366
vn -0.027410 0.989553 -0.141542
vn -0.027410 0.989553 -0.141542
vn -0.000000 -1.000000 -0.000000
vn 0.000000 0.000000 1.000000
vn 0.000000 0.000000 1.000000
vn -0.000930 0.999999 0.000951
vn -0.000934 0.999999 0.000947
vn 0.585065 0.546542 0.599158
vn 0.603222 0.503958 0.618182
vn 0.423057 0.414023 0.805983
vn 0.298401 0.902357 0.310980
vn 0.298220 0.902357 0.311154
vn 1.000000 0.000000 0.000000
vn 1.000000 0.000000 0.000000
vn 0.795517 0.412791 0.443572
vn 0.148606 0.988895 0.001841
vn 0.148606 0.988895 -0.001841
vn 0.148910 0.988850 -0.001015
vn 0.148910 0.988850 0.001015
vn -0.422408 0.906402 -0.002675
vn -0.422408 0.906402 0.002675
vn -0.422434 0.906389 0.002882
vn -0.422434 0.906389 -0.002882
vn -0.866234 0.499559 -0.008955
vn -0.866234 0.499559 0.008955
vn -0.898387 0.439130 0.008067
vn -0.898387 0.439130 -0.008067
vn -0.827427 0.561491 -0.009607
vn -0.827427 0.561491 0.009607
vn 0.000027 1.000000 -0.000314
vn 0.000027 1.000000 0.000314
vn 0.000028 1.000000 0.000331
vn 0.000028 1.000000 -0.000331
vn -1.000000 0.000000 0.000690
vn -1.000000 0.000000 -0.000690
vn -1.000000 0.000000 -0.000690
vn -1.000000 0.000000 0.000690
vn -0.000000 -1.000000 -0.000000
vn -0.000000 -1.000000 0.000000
vn 1.000000 0.000000 0.000000
vn 1.000000 0.000000 0.000000
vn 1.000000 0.000000 0.000000
vn 1.000000 0.000000 0.000000
vn 0.138881 0.989913 0.028011
vn 0.138881 0.989913 0.028011
vn -0.000000 -1.000000 0.000000
vn 0.000000 -1.000000 0.000000
vn -0.999999 0.000000 0.001510
vn -0.999999 0.000000 0.001512
vn 0.000640 0.999999 -0.001340
vn 0.000637 0.999999 -0.001346
vn -0.791114 0.551845 -0.263831
vn -0.822075 0.503348 -0.266147
vn -0.863850 0.432126 -0.258903
vn -0.417288 0.904134 -0.091726
vn -0.415978 0.903816 -0.100399
vn 0.000000 0.000000 -1.000000
vn 0.000000 0.000000 -1.000000
vn 0.001337 0.999999 -0.000653
vn 0.001342 0.999999 -0.000650
vn -0.251718 0.550632 -0.795891
vn -0.254291 0.502222 -0.826504
vn -0.247519 0.432117 -0.867185
vn -0.088282 0.903979 -0.418364
vn -0.095925 0.903661 -0.417366
vn 0.027410 0.989553 0.141542
vn 0.027410 0.989553 0.141542
vn 0.000000 -1.000000 0.000000
vn 0.000000 0.000000 -1.000000
vn 0.000000 0.000000 -1.000000
vn 0.000930 0.999999 -0.000951
vn 0.000934 0.999999 -0.000947
vn -0.585065 0.546542 -0.599158
vn -0.603222 0.503958 -0.618182
vn -0.423057 0.414023 -0.805983
vn -0.298401 0.902357 -0.310980
vn -0.298220 0.902357 -0.311154
vn -1.000000 0.000000 0.000000
vn -1.000000 0.000000 0.000000
vn -0.795517 0.412791 -0.443572
vn 0.138881 0.989913 -0.028011
vn 0.138881 0.989913 -0.028011
vn -0.000000 -1.000000 -0.000000
vn 0.000000 -1.000000 -0.000000
vn -0.999999 0.000000 -0.001510
vn -0.999999 0.000000 -0.001512
vn 0.000640 0.999999 0.001340
vn 0.000637 0.999999 0.001346
vn -0.791114 0.551845 0.263831
vn -0.822075 0.503348 0.266147
vn -0.863850 0.432126 0.258903
vn -0.417288 0.904133 0.091726
vn -0.415978 0.903815 0.100399
vn -0.000000 0.000000 1.000000
vn -0.000000 0.000000 1.000000
vn 0.001342 0.999999 0.000650
vn 0.001337 0.999999 0.000653
vn -0.254291 0.502222 0.826504
vn -0.251718 0.550632 0.795891
vn -0.247519 0.432117 0.867185
vn -0.095925 0.903661 0.417367
vn -0.088282 0.903979 0.418364
vn 0.027410 0.989553 -0.141542
vn 0.027410 0.989553 -0.141542
vn 0.000000 -1.000000 -0.000000
vn 0.000000 0.000000 1.000000
vn 0.000000 0.000000 1.000000
vn 0.000934 0.999999 0.000947
vn 0.000930 0.999999 0.000951
vn -0.603222 0.503958 0.618182
vn -0.585065 0.546542 0.599159
vn -0.423057 0.414023 0.805983
vn -0.298220 0.902357 0.311153
vn -0.298401 0.902357 0.310979
vn -1.000000 0.000000 0.000000
vn -1.000000 0.000000 0.000000
vn -0.795517 0.412791 0.443572
s 1
g OutwardCurvedWall_Lower_4_edges export_grp
usemtl initialShadingGroup
f 1/1/1 2/50/2 66/124/3 65/123/4
s 2
f 3/49/5 4/48/6 68/126/7 67/125/8
f 4/48/6 5/47/9 69/127/10 68/126/7
s 4
f 5/47/11 6/46/12 70/128/13 69/127/14
s 5
f 6/46/15 7/45/16 71/129/17 70/128/18
s 6
f 7/45/19 8/38/20 72/130/21 71/129/22
s off
f 8/9/23 1/1/24 65/123/25 72/131/26
s 7
f 2/50/27 3/49/28 67/125/29 66/124/30
s 8
f 9/43/31 1/44/32 33/72/33 41/71/34
s 7
f 10/42/35 9/43/36 41/71/37 42/73/38
s 2
f 11/41/39 10/42/40 42/73/41 43/74/42
f 12/40/43 11/41/39 43/74/42 44/75/44
s 4
f 13/39/45 12/40/46 44/75/47 45/76/48
s 13
f 14/37/49 13/39/50 45/76/51 46/77/52
s 6
f 8/17/20 14/37/53 46/77/54 40/78/55
s off
f 1/44/56 8/18/57 40/79/58 33/72/59
s 8
f 1/11/32 9/10/31 27/31/60 21/25/61
s 6
f 28/52/62 14/16/53 8/8/20 22/54/63
s 13
f 28/32/64 29/33/65 13/15/50 14/53/49
s 4
f 29/33/66 30/57/67 12/14/46 13/15/45
s 2
f 30/34/68 31/35/69 11/13/39 12/58/43
f 31/35/69 32/36/70 10/12/40 11/13/39
s 7
f 32/36/71 27/31/72 9/10/36 10/12/35
s 5
f 7/7/16 6/6/15 17/21/73 16/20/74
s 4
f 6/6/12 5/61/11 18/60/75 17/21/76
s 2
f 5/5/9 4/4/6 19/23/77 18/22/78
f 4/4/6 3/3/5 20/24/79 19/23/77
s 7
f 3/3/28 2/2/27 15/19/80 20/24/81
s 1
f 1/51/1 21/25/82 15/19/83 2/2/2
s 6
f 16/55/84 22/54/63 8/8/20 7/56/19
s 5
f 16/20/74 17/21/73 23/27/85 22/26/86
s 4
f 17/21/76 18/60/75 24/59/87 23/27/88
s 2
f 18/22/78 19/23/77 25/29/89 24/28/90
f 19/23/77 20/24/79 26/30/91 25/29/89
s 7
f 20/24/81 15/19/80 21/25/92 26/30/93
s 13
f 22/26/94 23/27/95 29/33/65 28/32/64
s 4
f 23/27/88 24/59/87 30/57/67 29/33/66
s 2
f 24/28/90 25/29/89 31/35/69 30/34/68
f 25/29/89 26/30/96 32/36/70 31/35/69
s 7
f 26/30/93 21/25/92 27/31/72 32/36/71
s 15
f 34/63/97 33/62/98 74/194/99 105/193/100
s 2
f 36/65/101 35/64/102 107/196/103 106/195/104
f 37/66/105 36/65/101 106/195/104 108/197/106
s 4
f 38/67/107 37/66/108 108/197/109 109/198/110
s 19
f 39/68/111 38/67/112 109/198/113 110/199/114
s 6
f 40/69/55 39/68/115 110/199/116 86/200/117
s off
f 33/62/118 40/70/119 86/201/120 74/194/121
s 7
f 35/64/122 34/63/123 105/193/124 107/196/125
s 8
f 33/80/33 48/83/126 47/82/127 41/81/34
s 6
f 49/84/128 50/87/129 40/86/55 46/85/54
s 13
f 49/88/130 46/91/52 45/90/51 51/89/131
s 4
f 51/89/132 45/90/48 44/93/47 52/92/133
s 2
f 52/94/134 44/97/44 43/96/42 53/95/135
f 53/95/135 43/96/42 42/99/41 54/98/136
s 7
f 54/98/137 42/99/38 41/81/37 47/82/138
s 19
f 39/100/111 56/103/139 55/102/140 38/101/112
s 4
f 38/101/107 55/102/141 57/105/142 37/104/108
s 2
f 37/106/105 57/109/143 58/108/144 36/107/101
f 36/107/101 58/108/144 59/111/145 35/110/102
s 7
f 35/110/122 59/111/146 60/113/147 34/112/123
s 15
f 33/114/98 34/112/97 60/113/148 48/83/149
s 6
f 56/115/150 39/116/115 40/86/55 50/87/129
s 19
f 56/103/139 50/118/151 61/117/152 55/102/140
s 4
f 55/102/141 61/117/153 62/119/154 57/105/142
s 2
f 57/109/143 62/121/155 63/120/156 58/108/144
f 58/108/144 63/120/156 64/122/157 59/111/145
s 7
f 59/111/146 64/122/158 48/83/159 60/113/147
s 13
f 50/118/160 49/88/130 51/89/131 61/117/161
s 4
f 61/117/153 51/89/132 52/92/133 62/119/154
s 2
f 62/121/155 52/94/134 53/95/135 63/120/156
f 63/120/156 53/95/135 54/98/136 64/122/162
s 7
f 64/122/158 54/98/137 47/82/138 48/83/159
s 22
f 73/132/163 75/135/164 74/134/165 65/133/166
s 7
f 76/136/167 77/137/168 75/135/169 73/132/170
s 2
f 78/138/171 79/139/172 77/137/173 76/136/174
f 80/140/175 81/141/176 79/139/172 78/138/171
s 4
f 82/142/177 83/143/178 81/141/179 80/140/180
s 27
f 84/144/181 85/145/182 83/143/183 82/142/184
s 6
f 72/146/21 86/147/117 85/145/185 84/144/186
s off
f 65/133/187 74/134/188 86/149/189 72/148/190
s 22
f 65/150/166 88/153/191 87/152/192 73/151/163
s 6
f 89/154/193 90/157/194 72/156/21 84/155/186
s 27
f 89/158/195 84/161/181 82/160/184 91/159/196
s 4
f 91/159/197 82/160/177 80/163/180 92/162/198
s 2
f 92/164/199 80/167/175 78/166/171 93/165/200
f 93/165/200 78/166/171 76/169/174 94/168/201
s 7
f 94/168/202 76/169/167 73/151/170 87/152/203
s 5
f 71/170/17 96/173/204 95/172/205 70/171/18
s 4
f 70/171/13 95/172/206 97/175/207 69/174/14
s 2
f 69/176/10 97/179/208 98/178/209 68/177/7
f 68/177/7 98/178/209 99/181/210 67/180/8
s 7
f 67/180/29 99/181/211 100/183/212 66/182/30
s 1
f 65/184/4 66/182/3 100/183/213 88/153/214
s 6
f 96/185/215 71/186/22 72/156/21 90/157/194
s 5
f 96/173/204 90/188/216 101/187/217 95/172/205
s 4
f 95/172/206 101/187/218 102/189/219 97/175/207
s 2
f 97/179/208 102/191/220 103/190/221 98/178/209
f 98/178/209 103/190/221 104/192/222 99/181/210
s 7
f 99/181/211 104/192/223 88/153/224 100/183/212
s 27
f 90/188/225 89/158/195 91/159/196 101/187/226
s 4
f 101/187/218 91/159/197 92/162/198 102/189/219
s 2
f 102/191/220 92/164/199 93/165/200 103/190/221
f 103/190/221 93/165/200 94/168/201 104/192/227
s 7
f 104/192/223 94/168/202 87/152/203 88/153/224
s 22
f 74/202/165 75/205/164 112/204/228 111/203/229
s 6
f 113/206/230 85/209/185 86/208/117 114/207/231
s 27
f 113/210/232 115/213/233 83/212/183 85/211/182
s 4
f 115/213/234 116/215/235 81/214/179 83/212/178
s 2
f 116/216/236 117/219/237 79/218/172 81/217/176
f 117/219/237 118/221/238 77/220/173 79/218/172
s 7
f 118/221/239 112/204/240 75/205/169 77/220/168
s 19
f 110/222/114 109/225/113 120/224/241 119/223/242
s 4
f 109/225/110 108/227/109 121/226/243 120/224/244
s 2
f 108/228/106 106/231/104 122/230/245 121/229/246
f 106/231/104 107/233/103 123/232/247 122/230/245
s 7
f 107/233/125 105/235/124 124/234/248 123/232/249
s 15
f 74/236/99 111/203/250 124/234/251 105/235/100
s 6
f 119/237/252 114/207/231 86/208/117 110/238/116
s 19
f 119/223/242 120/224/241 125/240/253 114/239/254
s 4
f 120/224/244 121/226/243 126/241/255 125/240/256
s 2
f 121/229/246 122/230/245 127/243/257 126/242/258
f 122/230/245 123/232/247 128/244/259 127/243/257
s 7
f 123/232/249 124/234/248 111/203/260 128/244/261
s 27
f 114/239/262 125/240/263 115/213/233 113/210/232
s 4
f 125/240/256 126/241/255 116/215/235 115/213/234
s 2
f 126/242/258 127/243/257 117/219/237 116/216/236
f 127/243/257 128/244/264 118/221/238 117/219/237
s 7
f 128/244/261 111/203/260 112/204/240 118/221/239
