# This file uses centimeters as units for non-parametric coordinates.

mtllib wall_up4.mtl
g default
v 2.178162 -0.722682 0.000000
v 0.000000 2.622877 0.123595
v 0.000000 2.226722 1.433351
v 0.000000 1.551963 1.014821
v 0.000000 1.551963 0.000000
v 0.000000 0.784563 0.719395
v 0.000000 0.784563 0.000000
v 0.000000 0.000000 0.000000
v 8.000000 2.226722 1.433351
v 8.000000 2.622877 0.123595
v 8.000000 1.551963 1.014821
v 8.000000 1.551963 0.000000
v 8.000000 0.784563 0.719395
v 8.000000 0.784563 0.000000
v 8.000000 -0.019961 0.000000
v 5.249002 2.226722 1.433351
v 5.249002 2.622877 0.123595
v 5.249002 1.551963 0.000000
v 5.086689 0.865617 0.000000
v 5.552303 0.091641 0.000000
v 5.824408 -0.723334 0.000000
v 5.666683 0.089034 0.736978
v 5.249002 1.551963 1.014821
v 2.624500 2.226722 1.433351
v 2.624500 2.622877 0.123595
v 2.624500 1.551963 0.000000
v 2.900572 0.865617 0.000000
v 2.434956 0.091641 0.000000
v 2.426041 0.089034 0.712449
v 2.624500 1.551963 1.014821
v 6.422571 -0.644551 0.000000
v 7.089100 -0.127226 0.000000
v 0.000000 2.730176 1.128965
v 0.000000 2.479689 1.412965
v 2.624500 2.730176 1.201162
v 2.624500 2.479689 1.485162
v 8.000000 2.479689 1.412965
v 8.000000 2.730176 1.128965
v 5.249002 2.479689 1.485162
v 5.249002 2.730176 1.201162
v 1.006374 -0.097989 0.000000
v 5.016905 1.004775 0.801116
v 5.246639 0.706981 0.747811
v 2.970354 1.004775 0.801116
v 2.740620 0.706980 0.719395
v 3.526855 1.174352 0.786473
v 4.460403 1.174352 0.786473
v 4.493645 1.138157 0.000000
v 3.493614 1.138157 0.000000
v 4.572819 1.144030 -2.000000
v 4.452118 1.162317 0.995035
v 4.978533 0.947961 -2.000000
v 5.019733 0.956167 1.003279
v 5.563440 0.088385 0.986202
v 5.266401 0.689218 0.978558
v 5.531071 0.097848 -2.000000
v 5.824408 -0.723399 0.973813
v 5.824408 -0.723204 -2.000000
v 4.497440 0.733440 -2.000000
v 4.376740 0.766432 0.996780
v 4.779491 0.636309 -2.000000
v 5.280018 -0.179001 -2.000000
v 5.281559 -0.156698 0.967313
v 4.898121 0.545509 0.995495
v 5.442249 -0.723204 -2.000000
v 5.442249 -0.723399 0.973813
v 3.414440 1.144030 -2.000000
v 3.535141 1.162317 0.995035
v 3.008728 0.947961 -2.000000
v 2.967525 0.956167 1.003279
v 2.423819 0.088385 0.986202
v 2.720858 0.689218 0.978558
v 2.456188 0.097848 -2.000000
v 2.183960 -0.723398 0.973807
v 2.183960 -0.723204 -2.000000
v 3.489819 0.733440 -2.000000
v 3.610519 0.766432 0.996780
v 3.207769 0.636309 -2.000000
v 2.707243 -0.179001 -2.000000
v 2.714531 -0.156698 0.991085
v 3.089140 0.545509 0.995495
v 2.564955 -0.723204 -2.000000
v 2.564955 -0.723399 0.973813
v 2.199383 -0.593030 0.828615
v 2.177971 -0.713193 0.720037
v 1.006374 -0.177137 0.608552
v 1.236134 -0.084232 0.700985
v 5.859247 -0.624849 0.796225
v 5.824408 -0.748951 0.699686
v 6.422571 -0.642341 0.703379
v 6.357622 -0.530434 0.789643
v 6.836422 -0.257904 0.577953
v 6.566912 -0.172948 0.750896
v 7.966156 -0.169532 0.492609
v 8.000000 0.059648 0.632873
v 0.031940 -0.087513 0.504455
v 0.000000 0.086133 0.671422
vt 0.180358 0.480273
vt 0.205743 0.485595
vt 0.186935 0.489278
vt 0.181160 0.485016
vt 0.187150 0.466844
vt 0.206312 0.465168
vt 0.191458 0.451868
vt 0.205042 0.450675
vt 0.028252 0.534035
vt 0.027582 0.538800
vt 0.021926 0.543220
vt 0.003024 0.540058
vt 0.021091 0.520796
vt 0.001889 0.519657
vt 0.016361 0.505944
vt 0.002749 0.505137
vt 0.070894 0.506115
vt 0.092162 0.493861
vt 0.098491 0.505575
vt 0.076621 0.516545
vt 0.060451 0.597461
vt 0.060969 0.578488
vt 0.110707 0.577780
vt 0.110155 0.598389
vt 0.110938 0.570462
vt 0.061244 0.571607
vt 0.061484 0.567206
vt 0.111104 0.565424
vt 0.109607 0.618842
vt 0.059917 0.617829
vt 0.061251 0.552717
vt 0.111163 0.550114
vt 0.059571 0.632370
vt 0.114555 0.631972
vt 0.059260 0.647245
vt 0.105441 0.646448
vt 0.100261 0.661780
vt 0.078295 0.649491
vt 0.060065 0.537881
vt 0.104552 0.520954
vt 0.111508 0.532640
vt 0.212508 0.575806
vt 0.160554 0.571840
vt 0.160652 0.566811
vt 0.212503 0.571408
vt 0.159813 0.599756
vt 0.160390 0.579152
vt 0.212410 0.582679
vt 0.211889 0.601636
vt 0.211311 0.621983
vt 0.159244 0.620211
vt 0.155744 0.633127
vt 0.210869 0.636500
vt 0.164072 0.648086
vt 0.210372 0.651730
vt 0.168720 0.663695
vt 0.193049 0.653190
vt 0.180100 0.662575
vt 0.186068 0.494646
vt 0.195791 0.500843
vt 0.188654 0.511577
vt 0.179199 0.506133
vt 0.173349 0.522964
vt 0.178206 0.509380
vt 0.187265 0.513249
vt 0.191394 0.519826
vt 0.215299 0.542201
vt 0.217328 0.529336
vt 0.161419 0.551542
vt 0.158203 0.539687
vt 0.213481 0.556949
vt 0.125849 0.627103
vt 0.144729 0.627631
vt 0.128468 0.542040
vt 0.146757 0.542620
vt 0.208347 0.509891
vt 0.197973 0.517106
vt 0.223420 0.517279
vt 0.218164 0.525124
vt 0.163993 0.534325
vt 0.053824 0.513395
vt 0.058431 0.521578
vt 0.081677 0.518663
vt 0.100082 0.507945
vt 0.117168 0.538338
vt 0.058875 0.525348
vt 0.191888 0.438038
vt 0.203705 0.435483
vt 0.003630 0.490291
vt 0.016237 0.492676
vt 0.264966 0.542965
vt 0.284120 0.543183
vt 0.284312 0.581045
vt 0.263911 0.580813
vt 0.296630 0.543964
vt 0.291266 0.581617
vt 0.313740 0.545735
vt 0.309255 0.583404
vt 0.329926 0.547686
vt 0.325312 0.585360
vt 0.145134 0.531455
vt 0.146217 0.538930
vt 0.129296 0.538405
vt 0.130944 0.531029
vt 0.156691 0.535932
vt 0.154946 0.527957
vt 0.168543 0.521145
vt 0.161366 0.531382
vt 0.163783 0.515856
vt 0.328969 0.592131
vt 0.325709 0.629872
vt 0.321761 0.591538
vt 0.175015 0.506699
vt 0.167985 0.505664
vt 0.310744 0.590234
vt 0.284326 0.588656
vt 0.291534 0.588608
vt 0.290961 0.645654
vt 0.280525 0.645284
vt 0.305879 0.646305
vt 0.316886 0.647567
vt 0.324563 0.643058
vt 0.324066 0.648231
vt 0.266265 0.645120
vt 0.263719 0.588422
vt 0.237235 0.589386
vt 0.256508 0.588206
vt 0.255828 0.645246
vt 0.241019 0.646009
vt 0.226270 0.590497
vt 0.230036 0.646592
vt 0.256951 0.581227
vt 0.252442 0.543462
vt 0.238949 0.582608
vt 0.235296 0.544850
vt 0.223005 0.584209
vt 0.219171 0.546443
vt 0.119083 0.534640
vt 0.121577 0.526775
vt 0.108976 0.518737
vt 0.113947 0.513641
vt 0.114942 0.529649
vt 0.219074 0.590953
vt 0.221488 0.628764
vt 0.102290 0.504559
vt 0.109437 0.503348
vt 0.222851 0.647128
vt 0.222393 0.642348
vt 0.194144 0.433428
vt 0.013285 0.489141
vn 0.372242 -0.393465 0.840608
vn 0.218329 0.686165 -0.693909
vn 0.123162 0.987139 0.101918
vn 0.293325 0.452301 0.842250
vn 0.468066 -0.390533 0.792716
vn 0.313210 0.064329 -0.947503
vn 0.218329 0.686165 -0.693909
vn 0.372242 -0.393465 0.840608
vn 0.443716 -0.181579 0.877579
vn 0.273315 0.000000 -0.961925
vn 0.313210 0.064329 -0.947503
vn 0.468066 -0.390533 0.792716
vn -0.387542 -0.390801 0.834917
vn -0.306074 0.450535 0.838652
vn -0.128939 0.986432 0.101620
vn -0.228315 0.684556 -0.692282
vn -0.477073 -0.393798 0.785700
vn -0.387542 -0.390801 0.834917
vn -0.228315 0.684556 -0.692282
vn -0.323923 0.063470 -0.943952
vn -0.447571 -0.202172 0.871095
vn -0.477073 -0.393798 0.785700
vn -0.323923 0.063470 -0.943952
vn -0.278263 0.000000 -0.960505
vn -0.275459 -0.860675 -0.428207
vn -0.762468 -0.614398 -0.202873
vn -0.233615 -0.969983 0.067507
vn -0.310540 -0.940253 0.139602
vn -0.228315 0.684556 -0.692282
vn -0.128939 0.986432 0.101620
vn -0.002057 0.994101 0.108438
vn 0.000442 0.708573 -0.705638
vn -0.009175 0.443930 0.896015
vn -0.306074 0.450535 0.838652
vn -0.387542 -0.390801 0.834917
vn -0.001686 -0.438221 0.898866
vn 0.000442 0.708573 -0.705638
vn 0.000000 0.076537 -0.997067
vn -0.323923 0.063470 -0.943952
vn -0.228315 0.684556 -0.692282
vn -0.387542 -0.390801 0.834917
vn -0.477073 -0.393798 0.785700
vn 0.001525 -0.494470 0.869193
vn -0.001686 -0.438221 0.898866
vn -0.278263 0.000000 -0.960505
vn -0.323923 0.063470 -0.943952
vn 0.000000 0.076537 -0.997067
vn -0.498995 0.470416 -0.727814
vn -0.237032 -0.235535 -0.942518
vn -0.278263 0.000000 -0.960505
vn -0.498995 0.470416 -0.727814
vn -0.669277 0.317226 -0.671890
vn -0.762468 -0.614398 -0.202873
vn -0.275459 -0.860675 -0.428207
vn -0.669277 0.317226 -0.671890
vn -0.447571 -0.202172 0.871095
vn -0.168467 0.087495 0.981816
vn -0.076349 -0.224819 0.971405
vn 0.293325 0.452301 0.842250
vn 0.008959 0.444567 0.895701
vn 0.001646 -0.437889 0.899028
vn 0.372242 -0.393465 0.840608
vn -0.000432 0.708446 -0.705765
vn 0.002007 0.994104 0.108414
vn 0.123162 0.987139 0.101918
vn 0.218329 0.686165 -0.693909
vn 0.218329 0.686165 -0.693909
vn 0.313210 0.064329 -0.947503
vn 0.000000 0.078080 -0.996947
vn -0.000432 0.708446 -0.705765
vn 0.480754 0.453219 -0.750645
vn 0.000000 0.078080 -0.996947
vn 0.313210 0.064329 -0.947503
vn 0.273315 0.000000 -0.961925
vn 0.652757 0.316653 -0.688214
vn 0.480754 0.453219 -0.750645
vn 0.273315 0.000000 -0.961925
vn 0.233575 -0.221805 -0.946702
vn 0.814991 -0.421744 -0.397395
vn 0.652757 0.316653 -0.688214
vn 0.203855 -0.721095 -0.662167
vn 0.240467 -0.521091 -0.818926
vn 0.814991 -0.421744 -0.397395
vn 0.240467 -0.521091 -0.818926
vn 0.425418 -0.887333 0.177930
vn 0.069214 -0.996142 0.053945
vn 0.138294 0.055538 0.988833
vn 0.246355 0.001231 0.969179
vn 0.111992 -0.056688 0.992091
vn 0.068543 -0.058059 0.995957
vn 0.443716 -0.181579 0.877579
vn 0.138294 0.055538 0.988833
vn 0.068543 -0.058059 0.995957
vn 0.446340 -0.129484 0.885446
vn -0.001751 -0.495835 0.868415
vn 0.043848 -0.236606 0.970616
vn 0.468066 -0.390533 0.792716
vn 0.001646 -0.437889 0.899028
vn -0.001751 -0.495835 0.868415
vn 0.468066 -0.390533 0.792716
vn 0.372242 -0.393465 0.840608
vn -0.009175 0.443930 0.896015
vn -0.001686 -0.438221 0.898866
vn 0.001646 -0.437889 0.899028
vn 0.008959 0.444567 0.895701
vn -0.000432 0.708446 -0.705765
vn 0.000442 0.708573 -0.705638
vn -0.002057 0.994101 0.108438
vn 0.002007 0.994104 0.108414
vn 0.000000 0.076537 -0.997067
vn 0.000442 0.708573 -0.705638
vn -0.000432 0.708446 -0.705765
vn 0.000000 0.078080 -0.996947
vn -0.130476 0.908122 -0.397857
vn 0.000000 0.076537 -0.997067
vn 0.000000 0.078080 -0.996947
vn 0.130882 0.910946 -0.391212
vn 0.001525 -0.494470 0.869193
vn -0.021141 -0.314442 0.949041
vn 0.020965 -0.311254 0.950096
vn -0.001751 -0.495835 0.868415
vn -0.001686 -0.438221 0.898866
vn 0.001525 -0.494470 0.869193
vn -0.001751 -0.495835 0.868415
vn 0.001646 -0.437889 0.899028
vn -0.001751 -0.495835 0.868415
vn 0.020965 -0.311254 0.950096
vn 0.043848 -0.236606 0.970616
vn 0.240467 -0.521091 -0.818926
vn 0.203855 -0.721095 -0.662167
vn 0.401923 -0.875364 0.268693
vn 0.425418 -0.887333 0.177930
vn 0.652757 0.316653 -0.688214
vn 0.233575 -0.221805 -0.946702
vn 0.203855 -0.721095 -0.662167
vn 0.203855 -0.721095 -0.662167
vn 0.233575 -0.221805 -0.946702
vn 0.206845 -0.970950 0.120294
vn 0.401923 -0.875364 0.268693
vn 0.138294 0.055538 0.988833
vn 0.443716 -0.181579 0.877579
vn 0.074546 -0.206978 0.975501
vn -0.128939 0.986432 0.101620
vn -0.306074 0.450535 0.838652
vn -0.009175 0.443930 0.896015
vn -0.002057 0.994101 0.108438
vn 0.002007 0.994104 0.108414
vn -0.002057 0.994101 0.108438
vn -0.009175 0.443930 0.896015
vn 0.008959 0.444567 0.895701
vn 0.293325 0.452301 0.842250
vn 0.123162 0.987139 0.101918
vn 0.002007 0.994104 0.108414
vn 0.008959 0.444567 0.895701
vn -0.237032 -0.235535 -0.942518
vn -0.275459 -0.860675 -0.428207
vn -0.310540 -0.940253 0.139602
vn -0.189966 -0.976074 0.105795
vn -0.168467 0.087495 0.981816
vn -0.058846 -0.101110 0.993133
vn -0.342511 -0.009921 0.939462
vn -0.669277 0.317226 -0.671890
vn -0.275459 -0.860675 -0.428207
vn -0.237032 -0.235535 -0.942518
vn -0.477073 -0.393798 0.785700
vn -0.447571 -0.202172 0.871095
vn -0.076349 -0.224819 0.971405
vn -0.046928 -0.241293 0.969317
vn 0.001525 -0.494470 0.869193
vn -0.046928 -0.241293 0.969317
vn -0.021141 -0.314442 0.949041
vn -0.168467 0.087495 0.981816
vn -0.447571 -0.202172 0.871095
vn -0.444034 -0.120656 0.887849
vn -0.058846 -0.101110 0.993133
vn 0.130882 0.910946 -0.391212
vn 0.000000 0.078080 -0.996947
vn 0.480754 0.453219 -0.750645
vn -0.498995 0.470416 -0.727814
vn 0.000000 0.076537 -0.997067
vn -0.130476 0.908122 -0.397857
vn -0.477073 -0.393798 0.785700
vn -0.046928 -0.241293 0.969317
vn 0.001525 -0.494470 0.869193
vn 0.468066 -0.390533 0.792716
vn 0.043848 -0.236606 0.970616
vn 0.074546 -0.206978 0.975501
vn 0.443716 -0.181579 0.877579
vn 0.273315 0.000000 -0.961925
vn 0.443716 -0.181579 0.877579
vn 0.446340 -0.129484 0.885446
vn 0.233575 -0.221805 -0.946702
vn -0.278263 0.000000 -0.960505
vn -0.237032 -0.235535 -0.942518
vn -0.444034 -0.120656 0.887849
vn -0.447571 -0.202172 0.871095
vn -0.130476 0.908122 -0.397857
vn 0.130882 0.910946 -0.391212
vn 0.149712 0.976903 -0.152470
vn -0.149712 0.976903 -0.152470
vn 0.130882 0.910946 -0.391212
vn 0.480754 0.453219 -0.750645
vn 0.705540 0.695646 -0.135237
vn 0.149712 0.976903 -0.152470
vn 0.480754 0.453219 -0.750645
vn 0.652757 0.316653 -0.688214
vn 0.886942 0.431421 -0.164954
vn 0.705540 0.695646 -0.135237
vn 0.886942 0.431421 -0.164954
vn 0.652757 0.316653 -0.688214
vn 0.814991 -0.421744 -0.397395
vn 0.986431 0.110518 -0.121409
vn -0.116989 -0.978982 0.167057
vn 0.058190 0.501999 0.862909
vn -0.058190 0.501999 0.862909
vn 0.116989 -0.978982 0.167057
vn 0.279932 0.435507 0.855554
vn 0.058190 0.501999 0.862909
vn -0.116989 -0.978982 0.167057
vn -0.730699 -0.667522 0.143157
vn 0.374527 0.177444 0.910079
vn 0.482466 0.297642 0.823794
vn -0.730699 -0.667522 0.143157
vn -0.899388 -0.415727 0.135174
vn 0.986431 0.110518 -0.121409
vn 0.814991 -0.421744 -0.397395
vn -0.870969 -0.466688 -0.153674
vn 0.149745 -0.604051 0.782751
vn 0.374527 0.177444 0.910079
vn -0.899388 -0.415727 0.135174
vn -0.897198 -0.410240 0.163519
vn 0.886942 0.431421 -0.164954
vn 0.986431 0.110518 -0.121409
vn -0.870969 -0.466688 -0.153674
vn -0.900657 -0.413387 -0.133895
vn -0.125132 -0.978634 -0.163151
vn 0.149712 0.976903 -0.152470
vn 0.705540 0.695646 -0.135237
vn -0.720266 -0.675458 -0.158030
vn 0.886942 0.431421 -0.164954
vn -0.900657 -0.413387 -0.133895
vn -0.720266 -0.675458 -0.158030
vn 0.705540 0.695646 -0.135237
vn 0.279932 0.435507 0.855554
vn -0.730699 -0.667522 0.143157
vn 0.482466 0.297642 0.823794
vn -0.730699 -0.667522 0.143157
vn -0.116989 -0.978982 0.167057
vn -0.125132 -0.978634 -0.163151
vn -0.720266 -0.675458 -0.158030
vn -0.899388 -0.415727 0.135174
vn -0.730699 -0.667522 0.143157
vn -0.720266 -0.675458 -0.158030
vn -0.900657 -0.413387 -0.133895
vn -0.870969 -0.466688 -0.153674
vn -0.897198 -0.410240 0.163519
vn -0.899388 -0.415727 0.135174
vn -0.900657 -0.413387 -0.133895
vn 0.814991 -0.421744 -0.397395
vn -0.897198 -0.410240 0.163519
vn -0.870969 -0.466688 -0.153674
vn 0.138294 0.055538 0.988833
vn 0.374527 0.177444 0.910079
vn 0.246355 0.001231 0.969179
vn 0.482466 0.297642 0.823794
vn 0.374527 0.177444 0.910079
vn 0.138294 0.055538 0.988833
vn 0.074546 -0.206978 0.975501
vn 0.279932 0.435507 0.855554
vn 0.482466 0.297642 0.823794
vn 0.074546 -0.206978 0.975501
vn 0.043848 -0.236606 0.970616
vn 0.058190 0.501999 0.862909
vn 0.279932 0.435507 0.855554
vn 0.043848 -0.236606 0.970616
vn 0.020965 -0.311254 0.950096
vn 0.058190 0.501999 0.862909
vn 0.020965 -0.311254 0.950096
vn -0.021141 -0.314442 0.949041
vn -0.058190 0.501999 0.862909
vn -0.897198 -0.410240 0.163519
vn 0.814991 -0.421744 -0.397395
vn 0.069214 -0.996142 0.053945
vn 0.149745 -0.604051 0.782751
vn 0.116989 -0.978982 0.167057
vn 0.125132 -0.978634 -0.163151
vn -0.125132 -0.978634 -0.163151
vn -0.116989 -0.978982 0.167057
vn 0.905658 -0.401698 -0.135730
vn 0.722345 -0.673047 -0.158827
vn 0.735237 -0.662781 0.141942
vn 0.903653 -0.405299 0.138359
vn 0.878004 -0.454294 -0.150754
vn 0.905658 -0.401698 -0.135730
vn 0.903653 -0.405299 0.138359
vn 0.867323 -0.473488 0.153494
vn -0.130476 0.908122 -0.397857
vn -0.149712 0.976903 -0.152470
vn -0.705540 0.695646 -0.135238
vn -0.498995 0.470416 -0.727814
vn -0.498995 0.470416 -0.727814
vn -0.705540 0.695646 -0.135238
vn -0.890797 0.423468 -0.164792
vn -0.669277 0.317226 -0.671890
vn -0.890797 0.423468 -0.164792
vn -0.988306 0.089132 -0.123717
vn -0.762468 -0.614398 -0.202873
vn -0.669277 0.317226 -0.671890
vn -0.149712 0.976903 -0.152470
vn 0.149712 0.976903 -0.152470
vn -0.125132 -0.978634 -0.163151
vn 0.125132 -0.978634 -0.163151
vn -0.290589 0.442179 0.848549
vn 0.735237 -0.662781 0.141942
vn 0.116989 -0.978982 0.167057
vn -0.058190 0.501999 0.862909
vn -0.446569 0.191201 0.874082
vn 0.903653 -0.405299 0.138359
vn 0.735237 -0.662781 0.141942
vn -0.552838 0.319413 0.769640
vn -0.988306 0.089132 -0.123717
vn 0.878004 -0.454294 -0.150754
vn -0.762468 -0.614398 -0.202873
vn -0.193836 -0.190914 0.962278
vn 0.867323 -0.473488 0.153494
vn 0.903653 -0.405299 0.138359
vn -0.446569 0.191201 0.874082
vn -0.890797 0.423468 -0.164792
vn 0.905658 -0.401698 -0.135730
vn 0.878004 -0.454294 -0.150754
vn -0.988306 0.089132 -0.123717
vn 0.722345 -0.673047 -0.158827
vn 0.125132 -0.978634 -0.163151
vn 0.116989 -0.978982 0.167057
vn 0.735237 -0.662781 0.141942
vn 0.125132 -0.978634 -0.163151
vn 0.722345 -0.673047 -0.158827
vn -0.705540 0.695646 -0.135238
vn -0.149712 0.976903 -0.152470
vn -0.890797 0.423468 -0.164792
vn -0.705540 0.695646 -0.135238
vn 0.722345 -0.673047 -0.158827
vn 0.905658 -0.401698 -0.135730
vn -0.290589 0.442179 0.848549
vn -0.552838 0.319413 0.769640
vn 0.735237 -0.662781 0.141942
vn -0.168467 0.087495 0.981816
vn -0.342511 -0.009921 0.939462
vn -0.446569 0.191201 0.874082
vn -0.552838 0.319413 0.769640
vn -0.076349 -0.224819 0.971405
vn -0.168467 0.087495 0.981816
vn -0.446569 0.191201 0.874082
vn -0.290589 0.442179 0.848549
vn -0.046928 -0.241293 0.969317
vn -0.076349 -0.224819 0.971405
vn -0.552838 0.319413 0.769640
vn -0.058190 0.501999 0.862909
vn -0.021141 -0.314442 0.949041
vn -0.046928 -0.241293 0.969317
vn -0.290589 0.442179 0.848549
vn -0.342511 -0.009921 0.939462
vn -0.193836 -0.190914 0.962278
vn -0.446569 0.191201 0.874082
vn -0.193836 -0.190914 0.962278
vn -0.233615 -0.969983 0.067507
vn 0.867323 -0.473488 0.153494
vn 0.149745 -0.604051 0.782751
vn 0.246355 0.001231 0.969179
vn 0.374527 0.177444 0.910079
vn -0.233615 -0.969983 0.067507
vn -0.342511 -0.009921 0.939462
vn -0.058846 -0.101110 0.993133
vn -0.310540 -0.940253 0.139602
vn -0.310540 -0.940253 0.139602
vn -0.058846 -0.101110 0.993133
vn -0.444034 -0.120656 0.887849
vn -0.189966 -0.976074 0.105795
vn 0.246355 0.001231 0.969179
vn 0.069214 -0.996142 0.053945
vn 0.425418 -0.887333 0.177930
vn 0.111992 -0.056688 0.992091
vn 0.111992 -0.056688 0.992091
vn 0.425418 -0.887333 0.177930
vn 0.401923 -0.875364 0.268693
vn 0.068543 -0.058059 0.995957
vn 0.068543 -0.058059 0.995957
vn 0.401923 -0.875364 0.268693
vn 0.206845 -0.970950 0.120294
vn 0.446340 -0.129484 0.885446
vn -0.342511 -0.009921 0.939462
vn -0.233615 -0.969983 0.067507
vn -0.193836 -0.190914 0.962278
vn 0.246355 0.001231 0.969179
vn 0.149745 -0.604051 0.782751
vn 0.069214 -0.996142 0.053945
vn 0.867323 -0.473488 0.153494
vn -0.233615 -0.969983 0.067507
vn -0.762468 -0.614398 -0.202873
vn 0.878004 -0.454294 -0.150754
vn 0.233575 -0.221805 -0.946702
vn 0.446340 -0.129484 0.885446
vn 0.206845 -0.970950 0.120294
vn -0.237032 -0.235535 -0.942518
vn -0.189966 -0.976074 0.105795
vn -0.444034 -0.120656 0.887849
s off
g wall_up4
usemtl blinn10SG
f 9/1/1 10/2/2 38/3/3 37/4/4
f 11/5/5 12/6/6 10/2/7 9/1/8
f 13/7/9 14/8/10 12/6/11 11/5/12
f 3/9/13 34/10/14 33/11/15 2/12/16
f 4/13/17 3/9/18 2/12/19 5/14/20
f 6/15/21 4/13/22 5/14/23 7/16/24
f 41/17/25 1/18/26 85/19/27 86/20/28
f 2/21/29 33/22/30 35/23/31 25/24/32
f 36/25/33 34/26/34 3/27/35 24/28/36
f 25/24/37 26/29/38 5/30/39 2/21/40
f 3/27/41 4/31/42 30/32/43 24/28/44
f 7/33/45 5/30/46 26/29/47 27/34/48
f 8/35/49 7/33/50 27/34/51 28/36/52
f 1/37/53 41/38/54 28/36/55
f 6/39/56 29/40/57 45/41/58
f 37/42/59 39/43/60 16/44/61 9/45/62
f 17/46/63 40/47/64 38/48/65 10/49/66
f 10/49/67 12/50/68 18/51/69 17/46/70
f 19/52/71 18/51/72 12/50/73 14/53/74
f 20/54/75 19/52/76 14/53/77 15/55/78
f 21/56/79 20/54/80 32/57/81 31/58/82
f 21/59/83 31/60/84 90/61/85 89/62/86
f 22/63/87 88/64/88 91/65/89 93/66/90
f 13/67/91 22/63/92 93/66/93 95/68/94
f 23/69/95 42/70/96 11/71/97
f 16/44/98 23/69/99 11/71/100 9/45/101
f 36/25/102 24/28/103 16/44/104 39/43/105
f 17/46/106 25/24/107 35/23/108 40/47/109
f 26/29/110 25/24/111 17/46/112 18/51/113
f 49/72/114 26/29/115 18/51/116 48/73/117
f 30/32/118 46/74/119 47/75/120 23/69/121
f 24/28/122 30/32/123 23/69/124 16/44/125
f 23/69/126 47/75/127 42/70/128
f 31/60/129 32/76/130 92/77/131 90/61/132
f 20/54/133 15/55/134 32/57/135
f 32/76/136 15/78/137 94/79/138 92/77/139
f 22/63/140 13/67/141 43/80/142
f 33/22/143 34/26/144 36/25/145 35/23/146
f 40/47/147 35/23/148 36/25/149 39/43/150
f 37/42/151 38/48/152 40/47/153 39/43/154
f 8/81/155 41/17/156 86/20/157 96/82/158
f 29/40/159 87/83/160 84/84/161
f 28/36/162 41/38/163 8/35/164
f 4/31/165 6/39/166 45/41/167 44/85/168
f 30/32/169 44/85/170 46/74/171
f 29/40/172 6/39/173 97/86/174 87/83/175
f 48/73/176 18/51/177 19/52/178
f 27/34/179 26/29/180 49/72/181
f 4/31/182 44/85/183 30/32/184
f 11/71/185 42/70/186 43/80/187 13/67/188
f 14/8/189 13/7/190 95/87/191 15/88/192
f 7/16/193 8/89/194 97/90/195 6/15/196
f 49/91/197 48/92/198 50/93/199 67/94/200
f 48/92/201 19/95/202 52/96/203 50/93/204
f 19/95/205 20/97/206 56/98/207 52/96/208
f 56/98/209 20/97/210 21/99/211 58/100/212
f 60/101/213 51/102/214 68/103/215 77/104/216
f 53/105/217 51/102/218 60/101/219 64/106/220
f 54/107/221 55/108/222 64/106/223 63/109/224
f 58/110/225 21/111/226 65/112/227
f 57/113/228 54/107/229 63/109/230 66/114/231
f 56/98/232 58/100/233 65/112/234 62/115/235
f 59/116/236 50/93/237 52/96/238 61/117/239
f 56/98/240 62/115/241 61/117/242 52/96/243
f 53/105/244 64/106/245 55/108/246
f 64/118/247 60/119/248 59/116/249 61/117/250
f 63/120/251 64/118/252 61/117/253 62/115/254
f 65/112/255 66/121/256 63/120/257 62/115/258
f 21/111/259 66/121/260 65/112/261
f 22/63/262 54/107/263 88/64/264
f 55/108/265 54/107/266 22/63/267 43/80/268
f 53/105/269 55/108/270 43/80/271 42/70/272
f 51/102/273 53/105/274 42/70/275 47/75/276
f 51/102/277 47/75/278 46/74/279 68/103/280
f 66/121/281 21/111/282 89/122/283 57/123/284
f 77/124/285 76/125/286 59/116/287 60/119/288
f 79/126/289 78/127/290 81/128/291 80/129/292
f 82/130/293 79/126/294 80/129/295 83/131/296
f 49/91/297 67/94/298 69/132/299 27/133/300
f 27/133/301 69/132/302 73/134/303 28/135/304
f 73/134/305 75/136/306 1/137/307 28/135/308
f 67/94/309 50/93/310 59/116/311 76/125/312
f 70/138/313 81/139/314 77/104/315 68/103/316
f 71/140/317 80/141/318 81/139/319 72/142/320
f 75/143/321 82/130/322 1/144/323
f 74/145/324 83/146/325 80/141/326 71/140/327
f 73/134/328 79/126/329 82/130/330 75/136/331
f 78/127/332 76/125/333 77/124/334 81/128/335
f 76/125/336 78/127/337 69/132/338 67/94/339
f 73/134/340 69/132/341 78/127/342 79/126/343
f 70/138/344 72/142/345 81/139/346
f 29/40/347 84/84/348 71/140/349
f 72/142/350 45/41/351 29/40/352 71/140/353
f 70/138/354 44/85/355 45/41/356 72/142/357
f 68/103/358 46/74/359 44/85/360 70/138/361
f 84/84/362 74/145/363 71/140/364
f 74/147/365 85/148/366 83/131/367
f 57/113/368 88/64/369 54/107/370
f 85/19/371 84/84/372 87/83/373 86/20/374
f 86/20/375 87/83/376 97/86/377 96/82/378
f 88/64/379 89/62/380 90/61/381 91/65/382
f 91/65/383 90/61/384 92/77/385 93/66/386
f 93/66/387 92/77/388 94/79/389 95/68/390
f 84/84/391 85/19/392 74/145/393
f 88/64/394 57/113/395 89/62/396
f 83/131/397 85/148/398 1/144/399 82/130/400
f 15/88/401 95/87/402 94/149/403
f 8/89/404 96/150/405 97/90/406
