# This file uses centimeters as units for non-parametric coordinates.

mtllib wallseparator_up.mtl
g default
v 0.365149 0.010304 1.114490
v 0.361589 -0.013246 0.000000
v 0.359723 1.475506 -0.021994
v 0.360687 1.455232 1.117425
v 0.323008 0.057095 1.212594
v 0.307693 1.461053 1.209875
v -0.289340 1.441073 1.208241
v -0.297441 0.076873 1.208233
v -0.342235 1.429517 1.135801
v -0.344973 0.011864 1.146483
v -0.340833 0.000000 0.000000
v -0.343830 1.455204 -0.027734
v 0.314469 2.259386 -0.024185
v 0.388650 2.374230 0.012905
v -0.352163 2.262774 -0.025010
v -0.319979 1.876108 1.533765
v -0.342559 1.667570 1.192534
v -0.247321 1.657944 1.226333
v 0.349399 1.630979 1.221861
v 0.323500 1.846557 1.516375
v 0.346042 2.104282 1.663887
v 0.093869 1.926075 1.637802
v -0.349277 2.019375 1.592533
v -0.241990 1.947743 1.622947
v -0.240143 2.122700 1.681134
v -0.345231 2.142650 1.666334
v -0.282193 2.191662 1.767834
v 0.349356 2.175439 1.763465
v -0.336147 2.322563 1.720438
v -0.424935 2.376446 1.714476
v -0.401547 2.346558 0.020697
v -0.232985 2.336279 1.764371
v 0.320502 2.299078 1.748723
v 0.404367 2.373408 0.864705
v 0.429374 2.352436 1.661961
v -0.418319 2.768163 0.082194
v -0.440210 2.559109 0.028407
v -0.443581 2.627707 1.742973
v -0.422353 2.760312 1.708735
v 0.371110 1.789358 1.347573
v -0.021742 2.561966 -0.060888
v 0.406803 2.797155 0.086310
v 0.420238 2.597181 0.829664
v 0.356711 2.898541 0.271023
v 0.272746 2.859643 0.841307
v 0.391464 2.834410 1.122155
v 0.402698 2.691742 1.641090
v -0.202422 2.894421 0.301241
v 0.223825 2.708250 1.812727
v 0.321246 2.850969 1.609516
v -0.240960 2.893281 0.609881
v -0.269732 2.872623 1.604614
v 0.084602 2.846743 1.764158
vt 0.408461 0.410480
vt 0.405886 0.425696
vt 0.404471 0.410218
vt 0.432017 0.409305
vt 0.407039 0.401621
vt 0.430574 0.402514
vt 0.433299 0.417016
vt 0.432646 0.424057
vt 0.432495 0.435532
vt 0.422727 0.429105
vt 0.405160 0.437973
vt 0.404734 0.432168
vt 0.409455 0.429897
vt 0.409279 0.437036
vt 0.431240 0.438865
vt 0.408105 0.441283
vt 0.340727 0.423805
vt 0.405594 0.445947
vt 0.403543 0.449338
vt 0.340842 0.428057
vt 0.393595 0.414210
vt 0.410227 0.446665
vt 0.431448 0.442881
vt 0.435897 0.444829
vt 0.466014 0.438085
vt 0.402683 0.460466
vt 0.340024 0.441993
vt 0.339730 0.434125
vt 0.403218 0.456415
vt 0.434793 0.401918
vt 0.441030 0.420534
vt 0.654163 0.580593
vt 0.638821 0.571486
vt 0.655399 0.572619
vt 0.621359 0.579961
vt 0.623011 0.565764
vt 0.654170 0.566909
vt 0.626181 0.561298
vt 0.652403 0.562820
vt 0.498908 0.442847
vt 0.468764 0.444024
vt 0.498288 0.429520
vt 0.493019 0.448984
vt 0.471108 0.454910
vt 0.459034 0.454933
vt 0.438184 0.454651
vt 0.444766 0.413128
vt 0.645061 0.589864
vt 0.623107 0.588767
vt 0.438532 0.460874
vt 0.429139 0.456793
vt 0.657441 0.644771
vt 0.650183 0.640563
vt 0.646790 0.601739
vt 0.626952 0.611702
vt 0.636970 0.648039
vt 0.626994 0.642394
vt 0.425366 0.462577
vt 0.622975 0.623273
vt 0.431399 0.347450
vt 0.407487 0.347904
vt 0.490878 0.394928
vt 0.500326 0.424357
vt 0.625814 0.530419
vt 0.653545 0.530850
vt 0.403659 0.400940
vt 0.349241 0.393219
vt 0.393708 0.404425
vt 0.447161 0.405209
vt 0.438571 0.348870
vt 0.475804 0.338293
vt 0.434215 0.344488
vt 0.405193 0.344867
vt 0.365350 0.338235
vt 0.401853 0.352425
vt 0.627796 0.470963
vt 0.655445 0.472250
vt 0.630589 0.430028
vt 0.654525 0.429583
vn -0.028571 -0.537137 0.843011
vn -0.939648 -0.272806 0.206493
vn -0.999190 -0.030039 0.026789
vn 0.964204 -0.176088 0.198251
vn -0.099013 -0.007910 0.995055
vn 0.128895 -0.010667 0.991601
vn 0.925617 -0.312951 0.212826
vn 0.906191 -0.325989 0.269351
vn 0.846864 -0.317206 0.426850
vn 0.005706 -0.519126 0.854679
vn -0.998676 0.018135 0.048139
vn -0.998874 -0.011348 0.046060
vn -0.067440 -0.546117 0.834990
vn -0.051934 -0.546388 0.835921
vn 0.474585 -0.310685 0.823555
vn -0.078724 -0.362967 0.928471
vn -0.706352 -0.054597 -0.705752
vn -0.948832 -0.311768 0.050196
vn -0.951020 -0.305036 0.050136
vn -0.887427 -0.347563 -0.302775
vn -0.040213 -0.046006 0.998131
vn 0.321339 -0.033569 0.946369
vn 0.978818 -0.117395 0.167734
vn 0.998606 -0.051174 -0.012934
vn -0.908781 0.333820 0.250365
vn -0.831521 0.507695 -0.225429
vn -0.972155 -0.054412 -0.227935
vn -0.940516 -0.012079 0.339536
vn 0.999560 -0.004630 0.029306
vn -0.018040 0.098205 -0.995003
vn 0.792567 0.417793 -0.444170
vn 0.979721 -0.012567 -0.199975
vn 0.034313 0.058924 -0.997673
vn 0.998392 0.056607 0.003003
vn 0.223207 0.960976 -0.163415
vn 0.222600 0.974678 0.021272
vn 0.683252 0.729978 -0.017276
vn 0.982108 0.109345 0.153323
vn -0.230761 0.963894 -0.132880
vn 0.203206 0.975726 0.081652
vn 0.107058 0.044322 0.993264
vn -0.160942 0.983865 0.078148
vn -0.259115 0.965731 0.014923
vn -0.048775 0.619236 0.783688
vn 0.173041 -0.066133 0.982692
vn -0.137098 -0.066216 0.988342
vn 0.826320 -0.009049 -0.563128
vn -0.816117 -0.008371 -0.577827
vn -0.999379 -0.002725 0.035127
vn 0.899525 -0.434646 0.044016
vn 0.784423 -0.388529 -0.483452
vn -0.903928 -0.425833 0.039762
vn -0.784490 -0.383940 -0.486996
s 1
g wallseparator_up
usemtl blinn10SG
f 18/1/1 16/2/2 17/3/3
f 19/4/4 18/1/1 7/5/5 6/6/6
f 18/1/1 19/4/4 40/7/7 16/2/2
f 20/8/8 21/9/9 22/10/10
f 26/11/11 23/12/12 24/13/13 25/14/14
f 16/2/2 24/13/13 23/12/12
f 22/10/10 24/13/13 16/2/2 20/8/8
f 21/9/9 25/14/14 24/13/13 22/10/10
f 28/15/15 27/16/16 25/14/14 21/9/9
f 27/16/16 26/11/11 25/14/14
f 15/17/17 29/18/18 30/19/19 31/20/20
f 15/17/17 17/21/3 16/2/2 23/12/12
f 29/18/18 15/17/17 23/12/12 26/11/11
f 29/18/18 26/11/11 27/16/16
f 32/22/21 29/18/18 27/16/16
f 27/16/16 28/15/15 33/23/22 32/22/21
f 35/24/23 33/23/22 34/25/24
f 39/26/25 36/27/26 37/28/27 38/29/28
f 31/20/20 30/19/19 38/29/28 37/28/27
f 4/30/29 19/4/4 6/6/6
f 16/2/2 40/7/7 20/8/8
f 21/9/9 20/8/8 40/31/7 34/25/24
f 36/32/26 41/33/30 37/34/27
f 36/32/26 42/35/31 41/33/30
f 41/33/30 42/35/31 14/36/32
f 37/34/27 41/33/30 14/36/32 31/37/20
f 13/38/33 15/39/17 31/37/20 14/36/32
f 42/40/31 43/41/34 34/25/24 14/42/32
f 42/40/31 44/43/35 43/41/34
f 43/41/34 44/43/35 45/44/36
f 43/41/34 46/45/37 34/25/24
f 46/45/37 47/46/38 35/24/23 34/25/24
f 34/25/24 40/31/7 19/47/4 14/42/32
f 34/25/24 33/23/22 28/15/15
f 34/25/24 28/15/15 21/9/9
f 48/48/39 44/49/35 42/35/31 36/32/26
f 43/41/34 45/44/36 46/45/37
f 50/50/40 49/51/41 47/46/38
f 46/45/37 50/50/40 47/46/38
f 39/52/25 52/53/42 51/54/43
f 48/48/39 51/54/43 45/55/36 44/49/35
f 39/52/25 51/54/43 48/48/39 36/32/26
f 33/23/22 35/24/23 47/46/38 49/51/41
f 33/23/22 49/51/41 38/29/28 32/22/21
f 38/29/28 30/19/19 32/22/21
f 53/56/44 50/57/40 52/53/42
f 52/53/42 50/57/40 51/54/43
f 49/51/41 50/50/40 53/58/44
f 51/54/43 50/57/40 46/59/37 45/55/36
f 39/52/25 53/56/44 52/53/42
f 49/51/41 53/58/44 39/26/25 38/29/28
f 5/60/45 6/6/6 7/5/5 8/61/46
f 3/62/47 13/63/33 14/42/32
f 13/38/33 3/64/47 12/65/48 15/39/17
f 7/5/5 18/1/1 17/3/3 9/66/49
f 12/67/48 9/68/49 17/21/3 15/17/17
f 3/62/47 14/42/32 19/47/4 4/69/29
f 4/69/29 1/70/50 2/71/51 3/62/47
f 4/30/29 6/6/6 5/60/45 1/72/50
f 8/61/46 7/5/5 9/66/49 10/73/52
f 9/68/49 12/67/48 11/74/53 10/75/52
f 3/64/47 2/76/51 11/77/53 12/65/48
f 2/76/51 1/78/50 10/79/52 11/77/53
f 10/73/52 1/72/50 5/60/45 8/61/46
f 32/22/21 30/19/19 29/18/18
