# Blender v2.78 (sub 0) OBJ File: ''
# www.blender.org
mtllib wall_up1.mtl
o wall_up1
v 0.000000 4.298778 -1.254693
v 0.000000 2.630246 -2.014154
v 0.000000 3.633273 -1.371300
v 0.000000 4.888177 -1.029210
v 0.000000 5.922606 -2.014152
v 0.000000 5.569175 -0.571821
v 0.000000 6.054244 -1.574998
v 0.000000 2.847332 -1.282814
v 8.000000 4.298778 -1.254693
v 8.000000 3.633273 -1.371300
v 8.000000 2.630246 -2.014154
v 8.000000 4.888177 -1.029210
v 8.000000 5.922606 -2.014152
v 8.000000 2.847332 -1.282814
v 8.000000 5.569175 -0.571821
v 7.983130 2.521019 -1.341759
v 0.011958 2.521019 -1.341759
v 8.000000 6.054244 -1.574998
v 0.000000 6.072098 -0.823317
v 8.000000 6.072098 -0.823317
v 8.000000 5.846500 -0.545107
v 0.000000 5.846500 -0.545107
vt 0.2114 0.7622
vt 0.1948 0.7289
vt 0.2086 0.7488
vt 0.2165 0.7740
vt 0.1972 0.7957
vt 0.2263 0.7875
vt 0.2063 0.7980
vt 0.2098 0.7327
vt 0.2580 0.7629
vt 0.2606 0.7494
vt 0.2741 0.7293
vt 0.2532 0.7748
vt 0.2727 0.7962
vt 0.2591 0.7334
vt 0.0015 0.7480
vt 0.0015 0.7314
vt 0.1640 0.7314
vt 0.1640 0.7481
vt 0.0015 0.7186
vt 0.1640 0.7186
vt 0.0015 0.7049
vt 0.1640 0.7049
vt 0.0015 0.6888
vt 0.1640 0.6888
vt 0.1640 0.6821
vt 0.0015 0.6820
vt 0.0015 0.6682
vt 0.1640 0.6682
vt 0.0015 0.8524
vt 0.0015 0.7856
vt 0.1640 0.7856
vt 0.1640 0.8524
vt 0.0015 0.7763
vt 0.1640 0.7763
vt 0.0015 0.7610
vt 0.1640 0.7610
vt 0.1640 0.7537
vt 0.0015 0.7537
vt 0.2485 0.7987
vt 0.2429 0.7941
vt 0.2436 0.7884
vt 0.2638 0.7987
vt 0.2605 0.7268
vt 0.2084 0.7262
vt 0.2270 0.7931
vt 0.2215 0.7978
vn -0.3001 -0.2509 0.9203
vn -0.0228 -0.1916 -0.9812
vn -0.0344 -0.0193 0.9992
vn -0.2332 -0.4605 0.8565
vn -0.0479 0.1271 -0.9907
vn -0.0994 -0.4487 0.8882
vn -0.1248 0.9844 -0.1236
vn -0.0463 0.0276 0.9985
vn 0.3001 -0.2508 0.9203
vn 0.0344 -0.0193 0.9992
vn 0.0228 -0.1907 -0.9814
vn 0.2332 -0.4604 0.8565
vn 0.0479 0.1270 -0.9907
vn 0.0464 0.0281 0.9985
vn 0.0994 -0.4486 0.8882
vn 0.0184 -0.9567 0.2905
vn -0.0185 -0.9572 0.2888
vn 0.1248 0.9844 -0.1236
vn -0.0430 0.9793 0.1976
vn 0.0430 0.9794 0.1974
vn 0.0709 0.4462 0.8921
vn -0.0708 0.4461 0.8922
usemtl blinn10SG
s 1
f 1/1/1 2/2/2 3/3/3
f 4/4/4 5/5/5 2/2/2 1/1/1
f 4/4/4 6/6/6 7/7/7 5/5/5
f 2/2/2 8/8/8 3/3/3
f 9/9/9 10/10/10 11/11/11
f 12/12/12 9/9/9 11/11/11 13/13/13
f 11/11/11 10/10/10 14/14/14
f 6/15/6 4/16/4 12/17/12 15/18/15
f 4/16/4 1/19/1 9/20/9 12/17/12
f 1/19/1 3/21/3 10/22/10 9/20/9
f 3/21/3 8/23/8 14/24/14 10/22/10
f 16/25/16 17/26/17 2/27/2 11/28/11
f 2/29/2 5/30/5 13/31/13 11/32/11
f 5/30/5 7/33/7 18/34/18 13/31/13
f 7/33/7 19/35/19 20/36/20 18/34/18
f 21/37/21 22/38/22 6/15/6 15/18/15
f 20/39/20 21/40/21 15/41/15 18/42/18
f 19/35/19 22/38/22 21/37/21 20/36/20
f 8/23/8 17/26/17 16/25/16 14/24/14
f 11/11/11 14/14/14 16/43/16
f 2/2/2 17/44/17 8/8/8
f 7/7/7 6/6/6 22/45/22 19/46/19
f 13/13/13 18/42/18 15/41/15 12/12/12
