# Blender v2.78 (sub 0) OBJ File: ''
# www.blender.org
mtllib PurpleTree.mtl
o PurpleTree
v -14.831317 -0.093108 -0.081394
v 5.600554 -0.093108 -0.081394
v 5.600554 28.307196 -0.081379
v -14.831317 28.307196 -0.081379
v -14.831317 -0.093108 -0.112827
v -14.831317 28.307196 -0.112812
v 5.600554 28.307196 -0.112797
v 5.600554 -0.093108 -0.112812
v -9.309939 -0.107916 -11.007954
v 3.707424 -0.086525 4.740337
v 3.726039 28.313726 4.686374
v -9.291326 28.292332 -11.061933
v -9.285717 -0.107971 -11.027988
v -9.267103 28.292278 -11.081952
v 3.750260 28.313673 4.666355
v 3.731647 -0.086580 4.720318
v 0.667884 -0.132529 -14.396015
v -0.692586 -0.076224 5.990437
v -0.628731 28.323912 5.916256
v 0.731739 28.267609 -14.470181
v 0.699240 -0.132593 -14.393917
v 0.763095 28.267544 -14.468099
v -0.597375 28.323847 5.918354
v -0.661229 -0.076289 5.992519
vt 0.0000 0.0000
vt 1.0000 0.0000
vt 1.0000 1.0000
vt 0.0000 1.0000
vt 0.0000 0.0000
vt 0.0000 1.0000
vt 1.0000 1.0000
vt 1.0000 0.0000
vt 0.0000 0.0000
vt 1.0000 0.0000
vt 1.0000 1.0000
vt 0.0000 1.0000
vt 0.0000 0.0000
vt 0.0000 1.0000
vt 1.0000 1.0000
vt 1.0000 0.0000
vt 0.0000 0.0000
vt 1.0000 0.0000
vt 1.0000 1.0000
vt 0.0000 1.0000
vt 0.0000 0.0000
vt 0.0000 1.0000
vt 1.0000 1.0000
vt 1.0000 0.0000
vn 0.0000 -0.0000 1.0000
vn 0.0000 0.0000 -1.0000
vn -0.7708 0.0022 0.6371
vn 0.7708 -0.0022 -0.6371
vn -0.9978 0.0021 -0.0666
vn 0.9978 -0.0021 0.0666
usemtl PurpleTree
s 1
f 1/1/1 2/2/1 3/3/1 4/4/1
f 5/5/2 6/6/2 7/7/2 8/8/2
f 9/9/3 10/10/3 11/11/3 12/12/3
f 13/13/4 14/14/4 15/15/4 16/16/4
f 17/17/5 18/18/5 19/19/5 20/20/5
f 21/21/6 22/22/6 23/23/6 24/24/6
