# Blender v2.78 (sub 0) OBJ File: ''
# www.blender.org
mtllib Rock-01.mtl
o Rock003
v -0.677111 4.072319 -0.175636
v -0.495172 3.047011 -0.753411
v -0.803257 3.045414 -0.852922
v -1.151565 3.065372 -0.857799
v -1.311924 3.041441 -0.502913
v -1.514496 3.487935 0.216790
v -1.411893 3.425608 0.474971
v -1.256478 3.337981 0.784003
v -0.805248 3.211562 0.886254
v -0.482827 3.291784 0.910903
v -0.172898 3.373960 0.836956
v 0.103434 3.433672 0.643374
v 0.310591 3.469526 0.340980
v 0.397229 3.567509 -0.112150
v 0.473932 4.165246 -0.593255
v 0.182866 3.842412 -0.826546
v -0.221915 3.112253 -0.678953
v -1.066539 2.794859 -2.098174
v -0.477140 2.962932 -2.078680
v -1.835927 2.618586 -1.704722
v -2.185898 2.525760 -0.977949
v -2.304686 2.545847 -0.026430
v -2.173250 2.633634 0.868424
v -1.728967 2.763819 1.609761
v -1.076032 2.883406 1.824937
v -0.429895 2.994923 1.769675
v 0.167661 3.130635 1.601573
v 0.701513 3.253637 1.236036
v 1.386535 3.550161 0.755799
v 1.550489 3.629590 -0.247249
v 1.265079 3.425039 -0.962374
v 0.988502 3.426685 -1.656374
v 0.240040 3.249528 -2.102642
v -1.096824 2.003687 -2.018939
v -0.344737 2.137586 -1.737964
v -1.931864 1.910718 -2.137758
v -2.577105 1.801956 -1.211693
v -2.977709 1.801967 0.001596
v -2.841085 1.933593 1.328922
v -2.136353 2.106694 2.309086
v -1.201828 2.305887 2.607030
v -0.300743 2.495094 2.461210
v 0.523440 2.690779 2.273737
v 1.263095 2.863315 1.759207
v 1.792730 2.961312 0.974330
v 1.864655 2.920271 -0.051338
v 1.580430 2.764653 -0.960917
v 1.514851 2.837081 -2.031163
v 0.546761 2.537133 -2.077513
v -1.072697 1.380211 -2.304223
v -0.188149 1.597983 -1.975958
v -1.892865 1.237646 -2.112564
v -2.543894 1.092282 -1.259594
v -2.988104 1.038320 0.021425
v -2.945392 1.123147 1.494939
v -2.301998 1.334973 2.743940
v -1.113209 1.642202 2.887519
v -0.109073 1.888180 2.849419
v 0.877585 2.139344 2.933183
v 1.802691 2.380502 2.270037
v 2.191890 2.384886 1.120244
v 2.304775 2.347487 -0.066933
v 2.109859 2.236938 -1.205061
v 1.806259 2.108268 -2.312768
v 0.699289 1.808815 -2.021708
v -0.893453 0.814181 -2.245497
v 0.004711 1.077134 -1.916649
v -1.610816 0.652662 -1.878904
v -2.303861 0.432879 -1.193858
v -2.470315 0.442676 -0.003236
v -2.226102 0.606726 1.253602
v -1.930331 0.639206 2.581476
v -0.874481 1.014775 2.819766
v 0.094665 1.251091 2.799957
v 1.006907 1.445132 2.755994
v 1.800127 1.613507 2.080150
v 2.166344 1.653267 1.034436
v 2.281286 1.628834 -0.072007
v 2.380852 1.554800 -1.235679
v 2.015788 1.400599 -2.367008
v 1.142859 1.167589 -2.267099
v -0.501105 0.404669 -1.620272
v 0.168270 0.627161 -1.531667
v -1.179164 0.128025 -1.572979
v -1.472058 0.077568 -0.819831
v -1.669108 -0.007551 0.034198
v -1.504204 0.111884 0.941931
v -1.133880 0.295204 1.712315
v -0.515159 0.370075 2.412078
v 0.127292 0.405554 2.712976
v 0.962848 0.762716 2.170987
v 1.606113 0.869486 1.684999
v 2.046597 0.948107 0.914790
v 2.057245 0.947697 -0.028361
v 2.091326 0.873742 -0.964632
v 1.715391 0.718730 -1.802441
v 0.912412 0.695967 -1.653791
v -0.071177 0.159798 -1.003685
v 0.271457 0.310961 -0.901884
v -0.359059 0.117676 -0.783482
v -0.528501 0.109055 -0.389741
v -0.607043 0.088697 0.035671
v -0.546155 0.115892 0.476599
v -0.372457 0.163137 0.882222
v -0.043687 0.116045 1.312612
v 0.264387 0.155842 1.358156
v 0.615490 0.054194 1.370951
v 1.260312 0.124352 0.978659
v 1.496514 0.197033 0.569062
v 1.482092 0.310542 0.050898
v 1.324717 0.369819 -0.464533
v 1.052191 0.356507 -0.863944
v 0.637700 0.380662 -0.866895
v 0.336003 0.189303 0.016807
vt 0.5196 0.4486
vt 0.5134 0.6112
vt 0.3960 0.6445
vt 0.5514 0.9961
vt 0.3555 0.9627
vt 0.4176 0.9053
vt 0.4804 0.9961
vt 0.6113 0.9053
vt 0.6653 0.9613
vt 0.3347 0.5461
vt 0.3161 0.4450
vt 0.5196 0.9961
vt 0.3161 0.9679
vt 0.3590 0.9135
vt 0.3590 0.3855
vt 0.3942 0.3213
vt 0.4352 0.2669
vt 0.5133 0.2324
vt 0.6085 0.2450
vt 0.6814 0.3130
vt 0.6996 0.3970
vt 0.6972 0.4469
vt 0.6875 0.5123
vt 0.6459 0.5724
vt 0.5849 0.6153
vt 0.6187 0.8089
vt 0.6040 0.9627
vt 0.4866 0.8998
vt 0.4816 0.7776
vt 0.2452 0.7239
vt 0.3887 0.5824
vt 0.3813 0.7541
vt 0.2034 0.5907
vt 0.1449 0.4663
vt 0.2061 0.3143
vt 0.2786 0.2158
vt 0.4025 0.7813
vt 0.4352 0.9444
vt 0.3942 0.9190
vt 0.2786 0.8087
vt 0.5184 0.7776
vt 0.5133 0.9768
vt 0.6508 0.8240
vt 0.6085 1.0000
vt 0.2295 0.8163
vt 0.3130 0.9751
vt 0.2450 1.0000
vt 0.1466 0.8240
vt 0.3167 0.8176
vt 0.3970 0.9132
vt 0.8383 0.4487
vt 0.8379 0.3167
vt 0.7979 0.5635
vt 0.7339 0.6632
vt 0.6360 0.7315
vt 0.4151 0.9243
vt 0.3640 0.7802
vt 0.6474 0.6617
vt 0.4817 0.6529
vt 0.8325 0.6974
vt 0.7548 0.8538
vt 0.3973 0.6445
vt 0.4093 0.8083
vt 0.2761 0.8538
vt 0.2198 0.6974
vt 0.5520 0.6571
vt 0.5337 0.8418
vt 0.7218 0.6661
vt 0.6857 0.8333
vt 0.8832 0.6664
vt 0.7842 0.8087
vt 0.3585 0.6448
vt 0.1971 0.6664
vt 0.5174 0.6373
vt 0.6721 0.6424
vt 0.7935 0.6508
vt 0.7436 0.8163
vt 0.2960 0.6411
vt 0.1794 0.6508
vt 0.4534 0.6453
vt 0.4487 0.7951
vt 0.5975 0.6427
vt 0.5635 0.7806
vt 0.7294 0.6411
vt 0.6632 0.7776
vt 0.6846 0.8541
vt 0.8002 0.7294
vt 0.3154 0.6571
vt 0.6627 0.4784
vt 0.4816 0.4798
vt 0.8078 0.4768
vt 0.3749 0.4664
vt 0.2227 0.4768
vt 0.5477 0.4795
vt 0.7387 0.4798
vt 0.8987 0.4785
vt 0.3459 0.4798
vt 0.1619 0.4785
vt 0.5268 0.4741
vt 0.6769 0.4754
vt 0.8362 0.4861
vt 0.2872 0.4740
vt 0.1479 0.4861
vt 0.4491 0.4740
vt 0.6129 0.4798
vt 0.7639 0.4742
vt 0.9149 0.4798
vt 0.8541 0.6571
vt 0.2879 0.4798
vt 0.6748 0.2781
vt 0.4785 0.2546
vt 0.7939 0.2976
vt 0.3687 0.2811
vt 0.2349 0.2976
vt 0.5397 0.2885
vt 0.7050 0.3175
vt 0.8742 0.2940
vt 0.3661 0.3187
vt 0.1919 0.2940
vt 0.5181 0.2980
vt 0.6838 0.3048
vt 0.8087 0.3075
vt 0.2674 0.2886
vt 0.1612 0.3075
vt 0.4502 0.2719
vt 0.6211 0.2734
vt 0.7585 0.2850
vt 0.3104 0.2990
vt 0.1704 0.4742
vt 0.1611 0.2850
vt 0.6262 0.7990
vt 0.6748 0.9103
vt 0.4785 1.0000
vt 0.4812 0.7828
vt 0.3285 0.1707
vt 0.0897 0.2781
vt 0.2010 0.1083
vt 0.7906 0.5763
vt 0.9244 0.6313
vt 0.7939 0.7651
vt 0.7051 0.6715
vt 0.5507 0.0970
vt 0.4237 0.1529
vt 0.6643 0.1403
vt 0.7861 0.1523
vt 0.4019 0.1821
vt 0.2781 0.1523
vt 0.5184 0.1821
vt 0.6644 0.0995
vt 0.2076 0.1224
vt 0.0493 0.3048
vt 0.0950 0.0995
vt 0.8608 0.1048
vt 0.9547 0.2886
vt 0.7544 0.1224
vt 0.4498 0.0970
vt 0.3096 0.1048
vt 0.5867 0.1208
vt 0.6977 0.1336
vt 0.3650 0.1821
vt 0.2306 0.1336
vt 0.3104 0.8599
vt 0.3650 0.7291
vt 0.5579 0.6377
vt 0.4807 0.6292
vt 0.4052 0.0046
vt 0.3623 0.0065
vt 0.4735 0.0156
vt 0.6882 0.4504
vt 0.8733 0.4493
vt 0.6660 0.5265
vt 0.6708 0.3737
vt 0.7783 0.3357
vt 0.6240 0.3086
vt 0.7219 0.2139
vt 0.4503 0.0662
vt 0.3760 0.0173
vt 0.5196 0.0384
vt 0.4055 0.2649
vt 0.3356 0.0950
vt 0.4816 0.1441
vt 0.4804 0.2647
vt 0.3378 0.2990
vt 0.2456 0.2076
vt 0.3075 0.3711
vt 0.1392 0.3096
vt 0.2989 0.4472
vt 0.0898 0.4498
vt 0.3182 0.5150
vt 0.1431 0.5867
vt 0.3569 0.5718
vt 0.2306 0.6977
vt 0.4185 0.6002
vt 0.4816 0.4482
vt 0.6254 0.5948
vt 0.5497 0.2857
vn -0.2701 0.9584 -0.0920
vn 0.0562 0.7784 -0.6253
vn 0.1567 0.6799 -0.7163
vn -0.2972 0.6677 -0.6825
vn -0.6719 0.5652 -0.4786
vn -0.7628 0.6463 -0.0199
vn -0.4689 0.6218 0.6273
vn -0.1082 0.6794 0.7257
vn 0.0177 0.7148 0.6991
vn -0.1250 0.6949 0.7082
vn 0.0643 0.7357 0.6742
vn 0.2071 0.8161 0.5394
vn 0.2352 0.9120 0.3362
vn 0.4025 0.7410 0.5375
vn 0.3171 0.9483 -0.0135
vn -0.4050 0.3882 -0.8278
vn -0.4501 0.6135 -0.6489
vn -0.1972 0.5773 -0.7924
vn -0.1775 0.5680 -0.8037
vn -0.5869 0.5899 -0.5546
vn -0.7667 0.5850 -0.2645
vn -0.8271 0.5532 -0.0992
vn -0.7977 0.5311 0.2858
vn -0.5106 0.6000 0.6159
vn -0.1218 0.6815 0.7216
vn -0.0348 0.7132 0.7001
vn 0.0859 0.7375 0.6699
vn 0.1785 0.7080 0.6833
vn 0.4390 0.7473 0.4987
vn 0.5865 0.7963 -0.1481
vn 0.7350 0.6137 -0.2883
vn 0.4718 0.5659 -0.6761
vn -0.1480 0.4676 -0.8715
vn 0.1472 0.0306 -0.9886
vn 0.0082 0.0261 -0.9996
vn -0.4076 0.0371 -0.9124
vn -0.8592 0.0873 -0.5041
vn -0.9737 0.1813 -0.1377
vn -0.8879 0.3166 0.3336
vn -0.5203 0.4080 0.7502
vn -0.1494 0.4061 0.9015
vn 0.0053 0.4838 0.8752
vn 0.1472 0.5999 0.7864
vn 0.4320 0.6534 0.6217
vn 0.7569 0.5260 0.3878
vn 0.8847 0.4470 -0.1322
vn 0.8593 0.4344 -0.2701
vn 0.5988 0.3586 -0.7162
vn -0.0590 0.0060 -0.9982
vn 0.0080 0.0460 -0.9989
vn 0.0798 0.0501 -0.9956
vn -0.4177 -0.1560 -0.8951
vn -0.8207 -0.2311 -0.5226
vn -0.9301 -0.3413 -0.1358
vn -0.9044 -0.3123 0.2907
vn -0.5323 -0.0219 0.8463
vn -0.0767 0.1017 0.9919
vn -0.0236 0.1245 0.9919
vn 0.2046 0.2198 0.9538
vn 0.6749 0.3544 0.6473
vn 0.9142 0.3008 0.2717
vn 0.9483 0.3158 -0.0330
vn 0.8474 0.4310 -0.3101
vn 0.4527 0.2824 -0.8458
vn -0.1248 -0.0038 -0.9922
vn 0.0356 -0.2614 -0.9646
vn 0.0640 -0.2049 -0.9767
vn -0.3815 -0.4266 -0.8201
vn -0.6784 -0.5648 -0.4698
vn -0.7915 -0.6099 0.0380
vn -0.6779 -0.6997 0.2256
vn -0.4521 -0.5884 0.6704
vn -0.0520 -0.1444 0.9881
vn 0.1003 -0.0703 0.9925
vn 0.3321 -0.1808 0.9257
vn 0.7628 -0.0856 0.6410
vn 0.9676 -0.0067 0.2523
vn 0.9928 -0.0326 0.1150
vn 0.9825 0.0069 -0.1859
vn 0.5596 -0.1372 -0.8173
vn -0.0959 -0.3045 -0.9477
vn 0.2534 -0.5596 -0.7891
vn 0.0768 -0.5440 -0.8356
vn -0.2102 -0.7793 -0.5904
vn -0.3121 -0.9003 -0.3033
vn -0.3758 -0.9266 0.0136
vn -0.3647 -0.8653 0.3439
vn -0.3255 -0.8865 0.3290
vn -0.2628 -0.7504 0.6065
vn 0.1367 -0.5649 0.8138
vn 0.4882 -0.3688 0.7910
vn 0.6743 -0.3626 0.6434
vn 0.9327 -0.2690 0.2402
vn 0.9411 -0.3375 0.0217
vn 0.8608 -0.4948 -0.1193
vn 0.3928 -0.6623 -0.6380
vn -0.0928 -0.6529 -0.7517
vn 0.1914 -0.8524 -0.4866
vn 0.3145 -0.8031 -0.5060
vn -0.0324 -0.9738 -0.2252
vn -0.0391 -0.9962 -0.0781
vn 0.0009 -0.9995 -0.0324
vn -0.0053 -0.9951 0.0987
vn -0.1524 -0.9876 0.0364
vn -0.1150 -0.9850 0.1283
vn -0.2650 -0.9573 0.1157
vn -0.0053 -0.9547 0.2974
vn 0.4041 -0.8768 0.2606
vn 0.6038 -0.7931 -0.0796
vn 0.5483 -0.7495 -0.3710
vn 0.4049 -0.8532 -0.3288
vn 0.0886 -0.9002 -0.4264
vn -0.0089 -0.8720 -0.4893
vn 0.0037 -0.9819 -0.1894
usemtl 01___Default
s 1
f 1/1/1 2/2/2 3/3/3
f 1/4/1 3/5/3 4/6/4
f 1/7/1 4/8/4 5/9/5
f 1/1/1 5/10/5 6/11/6
f 1/12/1 6/13/6 7/14/7
f 1/1/1 7/15/7 8/16/8
f 1/1/1 8/16/8 9/17/9
f 1/1/1 9/17/9 10/18/10
f 1/1/1 10/18/10 11/19/11
f 1/1/1 11/19/11 12/20/12
f 1/1/1 12/20/12 13/21/13
f 1/1/1 13/21/13 14/22/14
f 1/1/1 14/22/14 15/23/15
f 1/1/1 15/23/15 16/24/16
f 1/1/1 16/24/16 17/25/17
f 1/1/1 17/25/17 2/2/2
f 18/26/18 3/27/3 2/28/2 19/29/19
f 20/30/20 4/31/4 3/3/3 18/32/18
f 21/33/21 5/10/5 4/31/4 20/30/20
f 22/34/22 6/11/6 5/10/5 21/33/21
f 23/35/23 7/15/7 6/11/6 22/34/22
f 24/36/24 8/16/8 7/15/7 23/35/23
f 25/37/25 9/38/9 8/39/8 24/40/24
f 26/41/26 10/42/10 9/38/9 25/37/25
f 27/43/27 11/44/11 10/42/10 26/41/26
f 28/45/28 12/46/12 11/47/11 27/48/27
f 29/49/29 13/50/13 12/46/12 28/45/28
f 30/51/30 14/22/14 13/21/13 29/52/29
f 31/53/31 15/23/15 14/22/14 30/51/30
f 32/54/32 16/24/16 15/23/15 31/53/31
f 33/55/33 17/25/17 16/24/16 32/54/32
f 19/29/19 2/28/2 17/56/17 33/57/33
f 34/58/34 18/26/18 19/29/19 35/59/35
f 36/60/36 20/61/20 18/26/18 34/58/34
f 37/62/37 21/63/21 20/64/20 36/65/36
f 38/66/38 22/67/22 21/63/21 37/62/37
f 39/68/39 23/69/23 22/67/22 38/66/38
f 40/70/40 24/71/24 23/69/23 39/68/39
f 41/72/41 25/37/25 24/40/24 40/73/40
f 42/74/42 26/41/26 25/37/25 41/72/41
f 43/75/43 27/43/27 26/41/26 42/74/42
f 44/76/44 28/77/28 27/43/27 43/75/43
f 45/78/45 29/49/29 28/45/28 44/79/44
f 46/80/46 30/81/30 29/49/29 45/78/45
f 47/82/47 31/83/31 30/81/30 46/80/46
f 48/84/48 32/85/32 31/83/31 47/82/47
f 49/86/49 33/55/33 32/54/32 48/87/48
f 35/59/35 19/29/19 33/57/33 49/88/49
f 50/89/50 34/58/34 35/59/35 51/90/51
f 52/91/52 36/60/36 34/58/34 50/89/50
f 53/92/53 37/62/37 36/65/36 52/93/52
f 54/94/54 38/66/38 37/62/37 53/92/53
f 55/95/55 39/68/39 38/66/38 54/94/54
f 56/96/56 40/70/40 39/68/39 55/95/55
f 57/97/57 41/72/41 40/73/40 56/98/56
f 58/99/58 42/74/42 41/72/41 57/97/57
f 59/100/59 43/75/43 42/74/42 58/99/58
f 60/101/60 44/76/44 43/75/43 59/100/59
f 61/102/61 45/78/45 44/79/44 60/103/60
f 62/104/62 46/80/46 45/78/45 61/102/61
f 63/105/63 47/82/47 46/80/46 62/104/62
f 64/106/64 48/84/48 47/82/47 63/105/63
f 65/107/65 49/108/49 48/84/48 64/106/64
f 51/90/51 35/59/35 49/88/49 65/109/65
f 66/110/66 50/89/50 51/90/51 67/111/67
f 68/112/68 52/91/52 50/89/50 66/110/66
f 69/113/69 53/92/53 52/93/52 68/114/68
f 70/115/70 54/94/54 53/92/53 69/113/69
f 71/116/71 55/95/55 54/94/54 70/115/70
f 72/117/72 56/96/56 55/95/55 71/116/71
f 73/118/73 57/97/57 56/98/56 72/119/72
f 74/120/74 58/99/58 57/97/57 73/118/73
f 75/121/75 59/100/59 58/99/58 74/120/74
f 76/122/76 60/101/60 59/100/59 75/121/75
f 77/123/77 61/102/61 60/103/60 76/124/76
f 78/125/78 62/104/62 61/102/61 77/123/77
f 79/126/79 63/105/63 62/104/62 78/125/78
f 80/127/80 64/106/64 63/105/63 79/126/79
f 81/128/81 65/109/65 64/129/64 80/130/80
f 67/111/67 51/90/51 65/109/65 81/128/81
f 82/131/82 66/132/66 67/133/67 83/134/83
f 84/135/84 68/114/68 66/136/66 82/137/82
f 85/138/85 69/139/69 68/140/68 84/141/84
f 86/142/86 70/115/70 69/113/69 85/143/85
f 87/144/87 71/116/71 70/115/70 86/142/86
f 88/145/88 72/117/72 71/116/71 87/144/87
f 89/146/89 73/118/73 72/119/72 88/147/88
f 90/148/90 74/120/74 73/118/73 89/146/89
f 91/149/91 75/121/75 74/120/74 90/148/90
f 92/150/92 76/124/76 75/151/75 91/152/91
f 93/153/93 77/154/77 76/122/76 92/155/92
f 94/156/94 78/125/78 77/123/77 93/157/93
f 95/158/95 79/126/79 78/125/78 94/156/94
f 96/159/96 80/127/80 79/126/79 95/158/95
f 97/160/97 81/128/81 80/130/80 96/161/96
f 83/134/83 67/133/67 81/162/81 97/163/97
f 98/164/98 82/131/82 83/134/83 99/165/99
f 100/166/100 84/135/84 82/137/82 98/167/98
f 101/168/101 85/143/85 84/135/84 100/166/100
f 102/169/102 86/170/86 85/138/85 101/171/101
f 103/172/103 87/173/87 86/170/86 102/169/102
f 104/174/104 88/175/88 87/173/87 103/172/103
f 105/176/105 89/146/89 88/147/88 104/177/104
f 106/178/106 90/148/90 89/146/89 105/176/105
f 107/179/107 91/180/91 90/181/90 106/182/106
f 108/183/108 92/184/92 91/180/91 107/179/107
f 109/185/109 93/186/93 92/184/92 108/183/108
f 110/187/110 94/188/94 93/186/93 109/185/109
f 111/189/111 95/190/95 94/188/94 110/187/110
f 112/191/112 96/192/96 95/190/95 111/189/111
f 113/193/113 97/163/97 96/192/96 112/191/112
f 99/165/99 83/134/83 97/163/97 113/193/113
f 114/194/114 98/164/98 99/165/99
f 114/194/114 100/195/100 98/164/98
f 114/194/114 101/171/101 100/195/100
f 114/194/114 102/169/102 101/171/101
f 114/194/114 103/172/103 102/169/102
f 114/194/114 104/174/104 103/172/103
f 114/194/114 105/196/105 104/174/104
f 114/194/114 106/182/106 105/196/105
f 114/194/114 107/179/107 106/182/106
f 114/194/114 108/183/108 107/179/107
f 114/194/114 109/185/109 108/183/108
f 114/194/114 110/187/110 109/185/109
f 114/194/114 111/189/111 110/187/110
f 114/194/114 112/191/112 111/189/111
f 114/194/114 113/193/113 112/191/112
f 114/194/114 99/165/99 113/193/113
