# Blender v2.78 (sub 0) OBJ File: ''
# www.blender.org
mtllib Rock-03.mtl
o Rock002
v 0.226300 0.598177 1.290207
v 0.241980 0.814626 1.415424
v -0.327974 0.887536 1.411782
v -0.662162 0.871836 1.428948
v -0.998595 0.832151 1.501790
v -1.221908 0.717331 1.609431
v -0.922984 0.607963 1.423658
v -0.617236 0.500553 1.335780
v -0.347666 0.383225 1.538144
v 0.226097 0.285598 1.646777
v 0.892680 0.248792 1.728917
v 1.380451 0.301738 1.652486
v 1.495983 0.406971 1.451324
v 1.481324 0.473351 1.390463
v 1.426341 0.559643 1.403087
v 1.156396 0.660071 1.477207
v 0.750175 0.759400 1.499678
v -0.542028 1.126634 1.119525
v 0.418159 1.009701 1.017545
v -1.539567 1.194838 1.264413
v -1.967635 1.042357 1.100322
v -2.444771 0.886992 1.200451
v -1.994915 0.605981 1.161744
v -1.420321 0.412224 1.074592
v -0.507535 0.290972 0.985040
v 0.340329 0.190277 0.975283
v 1.269910 0.124917 1.135808
v 1.865070 0.188793 1.118748
v 2.496551 0.242183 1.131563
v 2.488283 0.396757 1.064077
v 2.234482 0.557213 1.021207
v 1.844328 0.720735 1.015877
v 1.219309 0.881816 1.026918
v -0.595128 1.301607 0.634434
v 0.597885 1.178992 0.609688
v -2.001766 1.368633 0.744834
v -2.375334 1.134067 0.552086
v -2.900658 0.932682 0.579410
v -2.687929 0.633276 0.596418
v -1.892135 0.314530 0.588470
v -0.588397 0.048546 0.629316
v 0.418394 0.108085 0.501439
v 1.397350 0.191539 0.531612
v 2.255440 0.129746 0.564462
v 2.853909 0.220600 0.542049
v 3.127621 0.366790 0.565952
v 2.833604 0.554609 0.564095
v 2.373686 0.760132 0.565095
v 1.717622 0.996910 0.624797
v -0.618413 1.402699 0.024717
v 0.609890 1.212187 0.031216
v -1.825778 1.380166 0.007197
v -2.742959 1.241990 -0.042737
v -3.068226 0.982267 -0.031146
v -3.013453 0.663168 -0.029926
v -2.114600 0.336134 -0.042418
v -0.726194 0.145052 -0.035064
v 0.569784 0.043854 -0.047728
v 1.541722 0.070129 -0.032987
v 2.585618 0.099482 0.013854
v 3.150247 0.216382 -0.015638
v 3.607050 0.346021 -0.005157
v 3.113194 0.568513 0.021368
v 2.619815 0.798649 0.009463
v 2.006451 1.065284 0.036482
v -0.920250 1.463553 -0.646447
v 0.868054 1.387225 -0.712670
v -1.650753 1.328179 -0.456910
v -2.822626 1.293255 -0.662310
v -3.032660 1.029423 -0.652704
v -2.384916 0.696138 -0.566599
v -1.928600 0.395126 -0.656427
v -0.647350 0.240835 -0.569788
v 0.530222 0.061214 -0.637439
v 1.619295 0.068337 -0.604658
v 2.386950 0.158472 -0.583743
v 3.359547 0.211013 -0.635802
v 3.655416 0.377373 -0.680472
v 3.294619 0.592510 -0.667803
v 2.684805 0.816785 -0.623370
v 1.771389 1.059184 -0.572162
v -0.510345 1.310880 -1.219812
v 0.479056 1.152916 -1.071766
v -1.228830 1.195341 -1.022739
v -1.914778 1.127209 -1.092414
v -2.554366 0.998475 -1.291927
v -1.870279 0.748502 -1.153322
v -1.402071 0.520737 -1.120396
v -0.486495 0.381069 -1.019059
v 0.358478 0.291236 -1.016180
v 1.438012 0.172328 -1.289248
v 1.975868 0.273523 -1.202272
v 2.682943 0.341704 -1.251645
v 3.021255 0.467595 -1.268254
v 2.684301 0.649244 -1.182269
v 2.143423 0.838593 -1.134774
v 1.228120 0.981242 -0.973210
v -0.215127 1.057644 -1.571290
v 0.322933 0.976322 -1.404887
v -0.726029 1.052627 -1.582369
v -1.053955 0.984366 -1.552033
v -1.234007 0.890614 -1.602360
v -1.110333 0.764893 -1.615971
v -0.759980 0.635915 -1.561387
v -0.223183 0.551022 -1.396870
v 0.280481 0.487071 -1.488580
v 0.812563 0.448644 -1.533384
v 1.278334 0.458279 -1.572873
v 1.474841 0.527455 -1.473925
v 1.534334 0.613789 -1.421281
v 1.411713 0.707894 -1.374056
v 1.161659 0.805587 -1.365381
v 0.741665 0.884488 -1.288600
v 0.234685 0.740526 -1.462282
vt 0.5196 0.4486
vt 0.5134 0.6112
vt 0.3960 0.6445
vt 0.5514 0.9961
vt 0.3555 0.9627
vt 0.4176 0.9053
vt 0.4804 0.9961
vt 0.6113 0.9053
vt 0.6653 0.9613
vt 0.3347 0.5461
vt 0.3161 0.4450
vt 0.5196 0.9961
vt 0.3161 0.9679
vt 0.3590 0.9135
vt 0.3590 0.3855
vt 0.3942 0.3213
vt 0.4352 0.2669
vt 0.5133 0.2324
vt 0.6085 0.2450
vt 0.6814 0.3130
vt 0.6996 0.3970
vt 0.6972 0.4469
vt 0.6875 0.5123
vt 0.6459 0.5724
vt 0.5849 0.6153
vt 0.6187 0.8089
vt 0.6040 0.9627
vt 0.4866 0.8998
vt 0.4816 0.7776
vt 0.2452 0.7239
vt 0.3887 0.5824
vt 0.3813 0.7541
vt 0.2034 0.5907
vt 0.1449 0.4663
vt 0.2061 0.3143
vt 0.2786 0.2158
vt 0.4025 0.7813
vt 0.4352 0.9444
vt 0.3942 0.9190
vt 0.2786 0.8087
vt 0.5184 0.7776
vt 0.5133 0.9768
vt 0.6508 0.8240
vt 0.6085 1.0000
vt 0.2295 0.8163
vt 0.3130 0.9751
vt 0.2450 1.0000
vt 0.1466 0.8240
vt 0.3167 0.8176
vt 0.3970 0.9132
vt 0.8383 0.4487
vt 0.8379 0.3167
vt 0.7979 0.5635
vt 0.7339 0.6632
vt 0.6360 0.7315
vt 0.4151 0.9243
vt 0.3640 0.7802
vt 0.6474 0.6617
vt 0.4817 0.6529
vt 0.8325 0.6974
vt 0.7548 0.8538
vt 0.3973 0.6445
vt 0.4093 0.8083
vt 0.2761 0.8538
vt 0.2198 0.6974
vt 0.5520 0.6571
vt 0.5337 0.8418
vt 0.7218 0.6661
vt 0.6857 0.8333
vt 0.8832 0.6664
vt 0.7842 0.8087
vt 0.3585 0.6448
vt 0.1971 0.6664
vt 0.5174 0.6373
vt 0.6721 0.6424
vt 0.7935 0.6508
vt 0.7436 0.8163
vt 0.2960 0.6411
vt 0.1794 0.6508
vt 0.4534 0.6453
vt 0.4487 0.7951
vt 0.5975 0.6427
vt 0.5635 0.7806
vt 0.7294 0.6411
vt 0.6632 0.7776
vt 0.6846 0.8541
vt 0.8002 0.7294
vt 0.3154 0.6571
vt 0.6627 0.4784
vt 0.4816 0.4798
vt 0.8078 0.4768
vt 0.3749 0.4664
vt 0.2227 0.4768
vt 0.5477 0.4795
vt 0.7387 0.4798
vt 0.8987 0.4785
vt 0.3459 0.4798
vt 0.1619 0.4785
vt 0.5268 0.4741
vt 0.6769 0.4754
vt 0.8362 0.4861
vt 0.2872 0.4740
vt 0.1479 0.4861
vt 0.4491 0.4740
vt 0.6129 0.4798
vt 0.7639 0.4742
vt 0.9149 0.4798
vt 0.8541 0.6571
vt 0.2879 0.4798
vt 0.6748 0.2781
vt 0.4785 0.2546
vt 0.7939 0.2976
vt 0.3687 0.2811
vt 0.2349 0.2976
vt 0.5397 0.2885
vt 0.7050 0.3175
vt 0.8742 0.2940
vt 0.3661 0.3187
vt 0.1919 0.2940
vt 0.5181 0.2980
vt 0.6838 0.3048
vt 0.8087 0.3075
vt 0.2674 0.2886
vt 0.1612 0.3075
vt 0.4502 0.2719
vt 0.6211 0.2734
vt 0.7585 0.2850
vt 0.3104 0.2990
vt 0.1704 0.4742
vt 0.1611 0.2850
vt 0.6262 0.7990
vt 0.6748 0.9103
vt 0.4785 1.0000
vt 0.4812 0.7828
vt 0.3285 0.1707
vt 0.0897 0.2781
vt 0.2010 0.1083
vt 0.7906 0.5763
vt 0.9244 0.6313
vt 0.7939 0.7651
vt 0.7051 0.6715
vt 0.5507 0.0970
vt 0.4237 0.1529
vt 0.6643 0.1403
vt 0.7861 0.1523
vt 0.4019 0.1821
vt 0.2781 0.1523
vt 0.5184 0.1821
vt 0.6644 0.0995
vt 0.2076 0.1224
vt 0.0493 0.3048
vt 0.0950 0.0995
vt 0.8608 0.1048
vt 0.9547 0.2886
vt 0.7544 0.1224
vt 0.4498 0.0970
vt 0.3096 0.1048
vt 0.5867 0.1208
vt 0.6977 0.1336
vt 0.3650 0.1821
vt 0.2306 0.1336
vt 0.3104 0.8599
vt 0.3650 0.7291
vt 0.5579 0.6377
vt 0.4807 0.6292
vt 0.4052 0.0046
vt 0.3623 0.0065
vt 0.4735 0.0156
vt 0.6882 0.4504
vt 0.8733 0.4493
vt 0.6660 0.5265
vt 0.6708 0.3737
vt 0.7783 0.3357
vt 0.6240 0.3086
vt 0.7219 0.2139
vt 0.4503 0.0662
vt 0.3760 0.0173
vt 0.5196 0.0384
vt 0.4055 0.2649
vt 0.3356 0.0950
vt 0.4816 0.1441
vt 0.4804 0.2647
vt 0.3378 0.2990
vt 0.2456 0.2076
vt 0.3075 0.3711
vt 0.1392 0.3096
vt 0.2989 0.4472
vt 0.0898 0.4498
vt 0.3182 0.5150
vt 0.1431 0.5867
vt 0.3569 0.5718
vt 0.2306 0.6977
vt 0.4185 0.6002
vt 0.4816 0.4482
vt 0.6254 0.5948
vt 0.5497 0.2857
vn -0.0157 0.0433 0.9989
vn -0.1120 0.1934 0.9747
vn 0.0933 0.1806 0.9791
vn 0.0158 0.1302 0.9914
vn -0.0240 0.3521 0.9357
vn -0.1129 -0.1197 0.9864
vn 0.0952 -0.5100 0.8549
vn -0.3219 -0.1864 0.9283
vn -0.6259 -0.1672 0.7618
vn -0.3366 -0.4293 0.8381
vn 0.1120 -0.3332 0.9362
vn 0.4259 0.0384 0.9040
vn 0.3440 0.4008 0.8491
vn 0.2826 0.1730 0.9435
vn 0.4021 -0.0673 0.9131
vn 0.3455 0.0129 0.9383
vn 0.0598 0.2623 0.9631
vn 0.2266 0.6782 0.6991
vn 0.2566 0.6513 0.7141
vn -0.3570 0.5078 0.7840
vn -0.7265 0.3428 0.5956
vn -0.7820 0.1682 0.6001
vn -0.5881 -0.3975 0.7044
vn -0.2911 -0.5493 0.7832
vn -0.0665 -0.7007 0.7103
vn -0.0124 -0.9511 0.3086
vn 0.2943 -0.9303 0.2188
vn 0.6068 -0.6950 0.3857
vn 0.7585 -0.3785 0.5305
vn 0.7417 0.1521 0.6533
vn 0.7117 0.2770 0.6455
vn 0.6570 0.3846 0.6484
vn 0.4141 0.5730 0.7072
vn 0.0109 0.9008 0.4340
vn 0.2932 0.8488 0.4399
vn -0.5655 0.7482 0.3471
vn -0.8965 0.3084 0.3181
vn -0.9480 0.2050 0.2435
vn -0.8914 -0.2915 0.3470
vn -0.6550 -0.6733 0.3430
vn -0.0320 -0.9214 0.3873
vn 0.4862 -0.7617 0.4284
vn 0.2949 -0.9450 0.1413
vn 0.4620 -0.8695 0.1748
vn 0.7972 -0.5485 0.2523
vn 0.9229 -0.0258 0.3841
vn 0.8707 0.2992 0.3903
vn 0.8274 0.3788 0.4146
vn 0.5531 0.6666 0.4996
vn -0.0704 0.9915 0.1096
vn 0.2300 0.9369 0.2633
vn -0.5109 0.8555 -0.0846
vn -0.8925 0.4288 0.1396
vn -0.9920 0.1254 0.0144
vn -0.9683 -0.2230 -0.1127
vn -0.6240 -0.7787 -0.0647
vn -0.2501 -0.9469 -0.2023
vn 0.2878 -0.9535 0.0895
vn 0.4920 -0.8452 0.2090
vn 0.5876 -0.7994 0.1251
vn 0.8225 -0.5467 0.1566
vn 0.9789 -0.0839 0.1865
vn 0.9054 0.3752 0.1987
vn 0.8934 0.4351 0.1125
vn 0.6766 0.7175 0.1654
vn -0.4756 0.8654 -0.1579
vn 0.3683 0.8915 -0.2637
vn -0.5377 0.7729 -0.3368
vn -0.7188 0.6149 -0.3244
vn -0.9785 -0.0697 -0.1942
vn -0.8682 -0.1975 -0.4552
vn -0.5668 -0.6441 -0.5137
vn -0.2552 -0.8267 -0.5014
vn -0.0322 -0.9256 -0.3772
vn 0.5686 -0.8148 -0.1135
vn 0.5734 -0.7847 -0.2354
vn 0.7827 -0.5932 -0.1883
vn 0.9785 -0.0486 -0.2005
vn 0.8932 0.4113 -0.1820
vn 0.7492 0.6238 -0.2228
vn 0.7345 0.4964 -0.4626
vn -0.2192 0.6303 -0.7448
vn 0.5133 0.3914 -0.7637
vn -0.6344 0.5704 -0.5218
vn -0.3853 0.6463 -0.6587
vn -0.7524 0.0168 -0.6585
vn -0.7289 -0.4225 -0.5386
vn -0.4665 -0.5279 -0.7097
vn -0.1231 -0.7227 -0.6801
vn -0.3183 -0.6497 -0.6903
vn 0.2397 -0.6916 -0.6813
vn 0.6174 -0.5239 -0.5868
vn 0.5068 -0.4501 -0.7352
vn 0.6570 0.0395 -0.7529
vn 0.5861 0.4064 -0.7009
vn 0.3867 0.6608 -0.6432
vn 0.4022 0.5887 -0.7012
vn 0.2426 0.2879 -0.9264
vn 0.5883 0.2044 -0.7824
vn -0.3350 0.2584 -0.9061
vn -0.3197 0.2940 -0.9007
vn -0.1999 0.2145 -0.9561
vn -0.2356 -0.2005 -0.9509
vn -0.0415 -0.4613 -0.8863
vn -0.0926 -0.4479 -0.8893
vn -0.2617 -0.3451 -0.9013
vn -0.1778 -0.2875 -0.9411
vn 0.3015 -0.0358 -0.9528
vn 0.3459 0.1342 -0.9286
vn 0.2027 0.2135 -0.9557
vn 0.1877 0.2349 -0.9537
vn 0.0910 0.3847 -0.9185
vn 0.3103 0.3733 -0.8743
vn 0.1408 0.0867 -0.9862
usemtl 01___Default
s 1
f 1/1/1 2/2/2 3/3/3
f 1/4/1 3/5/3 4/6/4
f 1/7/1 4/8/4 5/9/5
f 1/1/1 5/10/5 6/11/6
f 1/12/1 6/13/6 7/14/7
f 1/1/1 7/15/7 8/16/8
f 1/1/1 8/16/8 9/17/9
f 1/1/1 9/17/9 10/18/10
f 1/1/1 10/18/10 11/19/11
f 1/1/1 11/19/11 12/20/12
f 1/1/1 12/20/12 13/21/13
f 1/1/1 13/21/13 14/22/14
f 1/1/1 14/22/14 15/23/15
f 1/1/1 15/23/15 16/24/16
f 1/1/1 16/24/16 17/25/17
f 1/1/1 17/25/17 2/2/2
f 18/26/18 3/27/3 2/28/2 19/29/19
f 20/30/20 4/31/4 3/3/3 18/32/18
f 21/33/21 5/10/5 4/31/4 20/30/20
f 22/34/22 6/11/6 5/10/5 21/33/21
f 23/35/23 7/15/7 6/11/6 22/34/22
f 24/36/24 8/16/8 7/15/7 23/35/23
f 25/37/25 9/38/9 8/39/8 24/40/24
f 26/41/26 10/42/10 9/38/9 25/37/25
f 27/43/27 11/44/11 10/42/10 26/41/26
f 28/45/28 12/46/12 11/47/11 27/48/27
f 29/49/29 13/50/13 12/46/12 28/45/28
f 30/51/30 14/22/14 13/21/13 29/52/29
f 31/53/31 15/23/15 14/22/14 30/51/30
f 32/54/32 16/24/16 15/23/15 31/53/31
f 33/55/33 17/25/17 16/24/16 32/54/32
f 19/29/19 2/28/2 17/56/17 33/57/33
f 34/58/34 18/26/18 19/29/19 35/59/35
f 36/60/36 20/61/20 18/26/18 34/58/34
f 37/62/37 21/63/21 20/64/20 36/65/36
f 38/66/38 22/67/22 21/63/21 37/62/37
f 39/68/39 23/69/23 22/67/22 38/66/38
f 40/70/40 24/71/24 23/69/23 39/68/39
f 41/72/41 25/37/25 24/40/24 40/73/40
f 42/74/42 26/41/26 25/37/25 41/72/41
f 43/75/43 27/43/27 26/41/26 42/74/42
f 44/76/44 28/77/28 27/43/27 43/75/43
f 45/78/45 29/49/29 28/45/28 44/79/44
f 46/80/46 30/81/30 29/49/29 45/78/45
f 47/82/47 31/83/31 30/81/30 46/80/46
f 48/84/48 32/85/32 31/83/31 47/82/47
f 49/86/49 33/55/33 32/54/32 48/87/48
f 35/59/35 19/29/19 33/57/33 49/88/49
f 50/89/50 34/58/34 35/59/35 51/90/51
f 52/91/52 36/60/36 34/58/34 50/89/50
f 53/92/53 37/62/37 36/65/36 52/93/52
f 54/94/54 38/66/38 37/62/37 53/92/53
f 55/95/55 39/68/39 38/66/38 54/94/54
f 56/96/56 40/70/40 39/68/39 55/95/55
f 57/97/57 41/72/41 40/73/40 56/98/56
f 58/99/58 42/74/42 41/72/41 57/97/57
f 59/100/59 43/75/43 42/74/42 58/99/58
f 60/101/60 44/76/44 43/75/43 59/100/59
f 61/102/61 45/78/45 44/79/44 60/103/60
f 62/104/62 46/80/46 45/78/45 61/102/61
f 63/105/63 47/82/47 46/80/46 62/104/62
f 64/106/64 48/84/48 47/82/47 63/105/63
f 65/107/65 49/108/49 48/84/48 64/106/64
f 51/90/51 35/59/35 49/88/49 65/109/65
f 66/110/66 50/89/50 51/90/51 67/111/67
f 68/112/68 52/91/52 50/89/50 66/110/66
f 69/113/69 53/92/53 52/93/52 68/114/68
f 70/115/70 54/94/54 53/92/53 69/113/69
f 71/116/71 55/95/55 54/94/54 70/115/70
f 72/117/72 56/96/56 55/95/55 71/116/71
f 73/118/73 57/97/57 56/98/56 72/119/72
f 74/120/74 58/99/58 57/97/57 73/118/73
f 75/121/75 59/100/59 58/99/58 74/120/74
f 76/122/76 60/101/60 59/100/59 75/121/75
f 77/123/77 61/102/61 60/103/60 76/124/76
f 78/125/78 62/104/62 61/102/61 77/123/77
f 79/126/79 63/105/63 62/104/62 78/125/78
f 80/127/80 64/106/64 63/105/63 79/126/79
f 81/128/81 65/109/65 64/129/64 80/130/80
f 67/111/67 51/90/51 65/109/65 81/128/81
f 82/131/82 66/132/66 67/133/67 83/134/83
f 84/135/84 68/114/68 66/136/66 82/137/82
f 85/138/85 69/139/69 68/140/68 84/141/84
f 86/142/86 70/115/70 69/113/69 85/143/85
f 87/144/87 71/116/71 70/115/70 86/142/86
f 88/145/88 72/117/72 71/116/71 87/144/87
f 89/146/89 73/118/73 72/119/72 88/147/88
f 90/148/90 74/120/74 73/118/73 89/146/89
f 91/149/91 75/121/75 74/120/74 90/148/90
f 92/150/92 76/124/76 75/151/75 91/152/91
f 93/153/93 77/154/77 76/122/76 92/155/92
f 94/156/94 78/125/78 77/123/77 93/157/93
f 95/158/95 79/126/79 78/125/78 94/156/94
f 96/159/96 80/127/80 79/126/79 95/158/95
f 97/160/97 81/128/81 80/130/80 96/161/96
f 83/134/83 67/133/67 81/162/81 97/163/97
f 98/164/98 82/131/82 83/134/83 99/165/99
f 100/166/100 84/135/84 82/137/82 98/167/98
f 101/168/101 85/143/85 84/135/84 100/166/100
f 102/169/102 86/170/86 85/138/85 101/171/101
f 103/172/103 87/173/87 86/170/86 102/169/102
f 104/174/104 88/175/88 87/173/87 103/172/103
f 105/176/105 89/146/89 88/147/88 104/177/104
f 106/178/106 90/148/90 89/146/89 105/176/105
f 107/179/107 91/180/91 90/181/90 106/182/106
f 108/183/108 92/184/92 91/180/91 107/179/107
f 109/185/109 93/186/93 92/184/92 108/183/108
f 110/187/110 94/188/94 93/186/93 109/185/109
f 111/189/111 95/190/95 94/188/94 110/187/110
f 112/191/112 96/192/96 95/190/95 111/189/111
f 113/193/113 97/163/97 96/192/96 112/191/112
f 99/165/99 83/134/83 97/163/97 113/193/113
f 114/194/114 98/164/98 99/165/99
f 114/194/114 100/195/100 98/164/98
f 114/194/114 101/171/101 100/195/100
f 114/194/114 102/169/102 101/171/101
f 114/194/114 103/172/103 102/169/102
f 114/194/114 104/174/104 103/172/103
f 114/194/114 105/196/105 104/174/104
f 114/194/114 106/182/106 105/196/105
f 114/194/114 107/179/107 106/182/106
f 114/194/114 108/183/108 107/179/107
f 114/194/114 109/185/109 108/183/108
f 114/194/114 110/187/110 109/185/109
f 114/194/114 111/189/111 110/187/110
f 114/194/114 112/191/112 111/189/111
f 114/194/114 113/193/113 112/191/112
f 114/194/114 99/165/99 113/193/113
