# Blender v2.78 (sub 0) OBJ File: ''
# www.blender.org
mtllib Shrubs - 002.mtl
o shrub___002
v 43.399998 68.900002 0.003206
v 0.047048 68.900002 0.003206
v 0.047013 0.000000 0.003217
v 43.400005 0.000003 0.003217
v 0.010956 0.000000 -0.004044
v 0.010938 68.900002 -0.004061
v 43.400002 68.900002 -0.004057
v 43.400002 0.000000 -0.004040
v -43.400005 68.900002 0.003206
v -43.399998 -0.000003 0.003217
v -0.780478 0.000000 0.003217
v -0.780505 68.900002 0.003206
v -43.400002 0.000000 -0.004047
v -43.400002 68.900002 -0.004065
v -0.778146 68.900002 -0.004061
v -0.778128 0.000000 -0.004044
v -1.042314 0.000000 0.811797
v -1.042344 68.900002 0.811797
v -14.148688 68.900002 41.285412
v -14.148658 -0.000003 41.285412
v -14.155599 68.899994 41.283180
v -1.052534 68.900002 0.819676
v -1.052496 0.000003 0.819669
v -14.155562 -0.000006 41.283173
v 12.592191 0.000009 -41.292835
v 12.592160 68.900017 -41.292835
v 0.065613 68.900009 -2.609679
v 0.065647 0.000000 -2.609693
v 12.585243 68.900017 -41.295071
v 12.585281 0.000012 -41.295074
v 0.066187 0.000003 -2.634929
v 0.066152 68.900002 -2.634932
v -0.764965 0.000000 0.003217
v -0.765000 68.900002 0.003206
v -0.780503 68.900002 0.003206
v -0.780477 0.000000 0.003219
v -0.776437 0.000000 -0.009258
v -0.776465 68.900002 -0.009264
v -0.788109 0.000003 0.003219
v -0.788141 68.900002 0.003206
v -0.782113 68.900002 -0.015407
v -0.782081 0.000003 -0.015398
v -0.070453 0.000000 0.003217
v -0.070395 68.900002 0.003206
v -0.854058 68.900002 0.230350
v -0.854022 0.000000 0.230334
v -0.862445 0.000003 0.232775
v -0.862487 68.900002 0.232793
v -36.281105 16.576628 -38.621918
v -20.618752 81.474724 -21.588493
v -1.328281 71.312943 -0.609386
v -1.328199 -1.835760 -0.609320
v -1.345005 71.318932 -0.616835
v -20.624100 81.474724 -21.583569
v -36.286453 16.576633 -38.617001
v -1.344901 -1.829779 -0.616760
v -0.676187 68.900002 -0.318933
v -0.676168 0.000000 -0.318897
v -0.347076 0.000000 -1.335164
v -0.347083 68.900009 -1.335235
v -0.682838 0.000003 -0.321869
v -0.682862 68.900002 -0.321906
v -0.350549 68.900002 -1.348118
v -0.350540 0.000003 -1.348038
v -0.045324 68.900002 -0.004061
v -0.045403 0.000000 -0.004044
v 42.603535 47.502674 -32.945057
v 19.725883 -15.034574 -15.255666
v 0.028741 -3.520865 -0.025534
v 0.028653 72.389275 -0.025503
v 42.607975 47.502682 -32.939308
v 0.047661 72.380760 -0.031013
v 0.047723 -3.529367 -0.031037
v 19.730326 -15.034574 -15.249927
v 0.334908 68.900002 1.199394
v 0.334883 0.000000 1.199344
v 0.013042 0.000000 0.003219
v 0.013051 68.900002 0.003207
v 0.324253 0.000003 1.187783
v 0.324270 68.900002 1.187824
v 0.009459 68.900002 0.017826
v 0.009491 0.000003 0.017964
v -0.347075 -0.000003 -1.335164
v -0.347083 68.900002 -1.335236
v 0.003279 68.900002 -0.033110
v 0.003316 0.000003 -0.032930
v -0.351193 68.900002 -1.322542
v -0.351182 0.000003 -1.322481
v -0.000051 0.000003 -0.017496
v -0.000048 68.900002 -0.017508
v -11.266891 0.000012 -41.918808
v -11.266877 68.900017 -41.918804
v -11.273891 68.900017 -41.916920
v -11.273898 0.000009 -41.916920
v 11.286204 68.899994 41.900036
v 11.286190 -0.000006 41.900028
v 11.279176 -0.000003 41.901920
v 11.279182 68.900002 41.901920
v 0.010445 0.000000 -0.006435
v 0.010433 68.900009 -0.006522
v 0.011412 68.900002 0.003206
v 0.011424 0.000000 0.003217
v -0.618830 70.939224 0.162169
v -0.618817 -2.209448 0.162160
v -0.626603 -2.208163 0.164416
v -0.626626 70.940514 0.164429
v -0.678417 0.000000 -0.311951
v -0.678438 68.900009 -0.311981
v -0.685113 68.900002 -0.314954
v -0.685088 0.000003 -0.314922
v -0.010107 -3.510736 -0.014275
v -0.010068 72.399406 -0.014280
v -49.191341 47.502666 -21.920284
v -22.774454 -15.034592 -10.153823
v 0.002983 0.000000 0.003217
v 0.002955 68.900002 0.003206
v -0.044289 68.900002 0.003206
v -0.044375 0.000000 0.003217
v -0.856723 0.000000 0.238676
v -0.856762 68.900002 0.238700
v -0.865191 68.900002 0.241144
v -0.865147 0.000003 0.241117
v 0.003114 68.900002 -0.004061
v 0.003134 0.000000 -0.004044
v -0.019325 0.000000 -0.004044
v -0.019218 68.900002 -0.004061
v 0.019362 72.397301 -0.009131
v 0.019355 -3.512784 -0.009102
v 0.008882 68.900002 -0.012286
v 0.008879 0.000000 -0.012256
v 0.007001 0.000003 -0.019233
v 0.007013 68.900002 -0.019231
v -0.445697 70.848022 0.350457
v -0.445669 -2.300659 0.350465
v -0.613329 -2.212338 0.168128
v -0.613336 70.936333 0.168144
v -0.451431 -2.300440 0.354922
v -0.451470 70.848244 0.354918
v -0.621132 70.937614 0.170404
v -0.621115 -2.211056 0.170384
v 0.002435 0.000003 -0.008257
v 0.002419 68.900002 -0.008339
v -23.947798 -15.034583 6.931603
v 0.013106 -3.498370 -0.013444
v 0.001913 0.006384 -0.010199
v 23.946276 83.934593 -6.950438
v 0.012991 72.411674 -0.013396
v 0.012998 69.427208 -0.013399
v 23.944258 83.934586 -6.957423
v 51.719898 21.397331 -15.008178
v 0.028740 -3.489868 -0.025534
v 0.028653 69.122101 -0.025503
v 0.002998 0.030347 -0.018073
v -0.010104 0.024933 -0.014275
v -0.010083 42.007477 -0.014278
v 0.002968 51.088810 -0.018060
v 0.002836 0.007037 -0.010467
v 0.002836 0.009164 -0.010467
v 0.001913 0.008783 -0.010199
v 0.002836 0.006964 -0.010467
v 0.012998 68.920212 -0.013399
v 0.001921 68.915543 -0.010188
v -0.010070 69.095230 -0.014279
v 0.028648 72.420181 -0.025501
v 0.007013 68.948463 -0.019231
v 0.002959 65.340302 -0.018056
v 0.007011 53.901943 -0.019231
v -0.010070 68.937767 -0.014279
v -51.723446 47.502666 14.982366
v 0.013098 0.013409 -0.013441
v 51.721920 21.397337 -15.001200
v -51.725464 47.502674 14.975389
v -0.010077 53.737122 -0.014278
v 0.007001 0.032001 -0.019233
v -23.949823 -15.034576 6.924634
v 34.720303 52.323376 38.594799
v 19.057949 -12.574717 21.561378
v 34.714958 52.323372 38.599716
v 19.052603 -12.574717 21.566286
v 0.005525 68.900002 0.003204
v 0.005522 0.000003 0.003217
v 0.011826 -0.000003 -0.012457
v 0.011826 -3.510977 -0.012455
v -42.600189 21.397329 32.935802
v 0.011821 68.900002 -0.012486
v 0.011821 72.399117 -0.012488
v -19.722536 83.934586 15.246421
v -19.718092 83.934586 15.252173
v -42.595745 21.397324 32.941547
v 0.011821 68.900002 -0.012485
v 0.011821 72.408981 -0.012487
v 22.779646 83.934593 10.128607
v 49.196526 21.397331 21.895069
v 0.011824 -3.501123 -0.012455
v 0.005301 0.000006 -0.007414
v 0.005301 -3.502936 -0.007412
v 49.193569 21.397337 21.901707
v 0.005290 68.900002 -0.007438
v 22.776682 83.934593 10.135245
v 0.005290 72.407181 -0.007439
v 0.010143 0.012189 -0.012585
v 0.010143 0.011554 -0.012585
v 0.000707 0.000003 -0.017409
v 0.000705 -3.506754 -0.017408
v -22.771505 -15.034586 -10.160455
v -49.188389 47.502674 -21.926916
v 0.000753 72.403374 -0.017416
v 0.057872 0.000003 -2.585679
v 0.002963 0.000003 -0.016404
v 0.002932 53.901936 -0.016439
v 0.057831 68.900002 -2.585646
v 0.002923 68.900002 -0.016449
v -0.007827 68.900002 0.826657
v -0.007793 0.000006 0.826669
v 0.009961 0.000006 -0.004043
v 0.009927 68.900002 -0.004057
v -0.014890 0.000003 0.818952
v -0.014930 68.900002 0.818931
v 0.002658 68.900002 -0.004062
v 0.002698 0.000003 -0.004042
v 0.937324 0.000009 -43.396671
v 0.937289 68.900017 -43.396664
v 0.065613 68.900002 -2.609678
v 0.065647 0.000006 -2.609691
v 0.930028 68.900009 -43.396824
v 0.930068 0.000006 -43.396824
v -0.917328 68.900002 43.383518
v -0.917294 -0.000003 43.383511
v -0.924557 0.000000 43.383358
v -0.924597 68.900002 43.383358
v 0.010306 0.000009 -0.020191
vt 0.7015 0.5589
vt 0.3561 0.5589
vt 0.3561 0.0100
vt 0.7015 0.0100
vt 0.3558 0.0100
vt 0.3558 0.5589
vt 0.7015 0.5589
vt 0.7015 0.0100
vt 0.0100 0.5589
vt 0.0100 0.0100
vt 0.3495 0.0100
vt 0.3495 0.5589
vt 0.0100 0.0100
vt 0.0100 0.5589
vt 0.3495 0.5589
vt 0.3495 0.0100
vt 0.3626 0.0100
vt 0.3626 0.5589
vt 0.7015 0.5589
vt 0.7015 0.0100
vt 0.7015 0.5589
vt 0.3627 0.5589
vt 0.3627 0.0100
vt 0.7015 0.0100
vt 0.0100 0.0100
vt 0.0100 0.5589
vt 0.3339 0.5589
vt 0.3339 0.0100
vt 0.0100 0.5589
vt 0.0100 0.0100
vt 0.3337 0.0100
vt 0.3337 0.5589
vt 0.3497 0.0100
vt 0.3497 0.5589
vt 0.3558 0.5589
vt 0.3558 0.0100
vt 0.3557 0.0100
vt 0.3557 0.5589
vt 0.3558 0.0100
vt 0.3558 0.5589
vt 0.3557 0.5589
vt 0.3557 0.0100
vt 0.3552 0.0100
vt 0.3552 0.5589
vt 0.3577 0.5589
vt 0.3577 0.0100
vt 0.3577 0.0100
vt 0.3577 0.5589
vt 0.0100 0.0100
vt 0.0100 0.5589
vt 0.2510 0.5589
vt 0.4468 0.0100
vt 0.2509 0.5589
vt 0.0100 0.5589
vt 0.0100 0.0100
vt 0.4466 0.0100
vt 0.3531 0.5589
vt 0.3531 0.0100
vt 0.3446 0.0100
vt 0.3446 0.5589
vt 0.3531 0.0100
vt 0.3531 0.5589
vt 0.3445 0.5589
vt 0.3445 0.0100
vt 0.3554 0.5589
vt 0.3554 0.0100
vt 0.7015 0.5589
vt 0.7015 0.0100
vt 0.4830 0.0100
vt 0.2291 0.5589
vt 0.7015 0.5589
vt 0.2293 0.5589
vt 0.4831 0.0100
vt 0.7015 0.0100
vt 0.3458 0.5589
vt 0.3458 0.0100
vt 0.3556 0.0100
vt 0.3556 0.5589
vt 0.3459 0.0100
vt 0.3459 0.5589
vt 0.3555 0.5589
vt 0.3555 0.0100
vt 0.3667 0.0100
vt 0.3667 0.5589
vt 0.3560 0.5589
vt 0.3559 0.0100
vt 0.3666 0.5589
vt 0.3666 0.0100
vt 0.3558 0.0100
vt 0.3558 0.5589
vt 0.7015 0.0100
vt 0.7015 0.5589
vt 0.7015 0.5589
vt 0.7015 0.0100
vt 0.0100 0.5589
vt 0.0100 0.0100
vt 0.0100 0.0100
vt 0.0100 0.5589
vt 0.3557 0.0100
vt 0.3557 0.5589
vt 0.3559 0.5589
vt 0.3558 0.0100
vt 0.2599 0.5589
vt 0.4556 0.0100
vt 0.4556 0.0100
vt 0.2599 0.5589
vt 0.3532 0.0100
vt 0.3532 0.5589
vt 0.3532 0.5589
vt 0.3532 0.0100
vt 0.4828 0.0100
vt 0.2289 0.5589
vt 0.7015 0.5589
vt 0.7015 0.0100
vt 0.3558 0.0100
vt 0.3558 0.5589
vt 0.3554 0.5589
vt 0.3554 0.0100
vt 0.3578 0.0100
vt 0.3578 0.5589
vt 0.3578 0.5589
vt 0.3578 0.0100
vt 0.3558 0.5589
vt 0.3558 0.0100
vt 0.3556 0.0100
vt 0.3556 0.5589
vt 0.2290 0.5589
vt 0.4828 0.0100
vt 0.3558 0.5589
vt 0.3558 0.0100
vt 0.3558 0.0100
vt 0.3558 0.5589
vt 0.2621 0.5589
vt 0.4578 0.0100
vt 0.4557 0.0100
vt 0.2600 0.5589
vt 0.4578 0.0100
vt 0.2621 0.5589
vt 0.2599 0.5589
vt 0.4557 0.0100
vt 0.3558 0.0100
vt 0.3557 0.5589
vt 0.7015 0.0100
vt 0.4825 0.0100
vt 0.4709 0.0354
vt 0.0100 0.5589
vt 0.2287 0.5589
vt 0.2387 0.5373
vt 0.0100 0.5589
vt 0.0100 0.0100
vt 0.4824 0.0100
vt 0.2396 0.5350
vt 0.4708 0.0355
vt 0.4709 0.0355
vt 0.3305 0.3391
vt 0.3001 0.4047
vt 0.4709 0.0354
vt 0.4709 0.0354
vt 0.4709 0.0354
vt 0.4709 0.0354
vt 0.2404 0.5336
vt 0.2405 0.5336
vt 0.2400 0.5350
vt 0.2285 0.5589
vt 0.2403 0.5339
vt 0.2524 0.5078
vt 0.2906 0.4251
vt 0.2405 0.5338
vt 0.7015 0.5589
vt 0.4708 0.0354
vt 0.0100 0.0100
vt 0.7015 0.5589
vt 0.2913 0.4239
vt 0.4708 0.0355
vt 0.7015 0.0100
vt 0.7015 0.5589
vt 0.7015 0.0100
vt 0.7015 0.5589
vt 0.7015 0.0100
vt 0.3557 0.5589
vt 0.3557 0.0100
vt 0.4710 0.0354
vt 0.4828 0.0100
vt 0.0100 0.0100
vt 0.2406 0.5336
vt 0.2289 0.5589
vt 0.0100 0.5589
vt 0.0100 0.5589
vt 0.0100 0.0100
vt 0.2405 0.5335
vt 0.2288 0.5589
vt 0.0100 0.5589
vt 0.0100 0.0100
vt 0.4826 0.0100
vt 0.4709 0.0353
vt 0.4826 0.0100
vt 0.0100 0.0100
vt 0.2405 0.5335
vt 0.0100 0.5589
vt 0.2288 0.5589
vt 0.4708 0.0354
vt 0.4708 0.0354
vt 0.4710 0.0354
vt 0.4827 0.0100
vt 0.7015 0.0100
vt 0.7015 0.5589
vt 0.2289 0.5589
vt 0.3763 0.0100
vt 0.3558 0.0100
vt 0.3558 0.4394
vt 0.3763 0.5589
vt 0.3558 0.5589
vt 0.3491 0.5589
vt 0.3491 0.0100
vt 0.3557 0.0100
vt 0.3557 0.5589
vt 0.3492 0.0100
vt 0.3492 0.5589
vt 0.3557 0.5589
vt 0.3557 0.0100
vt 0.7015 0.0100
vt 0.7015 0.5589
vt 0.3765 0.5589
vt 0.3765 0.0100
vt 0.7015 0.5589
vt 0.7015 0.0100
vt 0.0100 0.5589
vt 0.0100 0.0100
vt 0.0100 0.0100
vt 0.0100 0.5589
vt 0.3559 0.0100
vn -0.0000 0.0000 1.0000
vn 0.0000 -0.0000 -1.0000
vn 0.9514 0.0000 0.3081
vn -0.9514 -0.0000 -0.3081
vn 0.7361 0.0000 -0.6769
vn -0.7361 -0.0000 0.6769
vn -0.6117 -0.0000 -0.7911
vn 0.6117 0.0000 0.7911
vn 0.9657 -0.0000 -0.2598
vn -0.9657 0.0000 0.2598
vn -0.4069 0.0000 0.9135
vn 0.9656 -0.0000 -0.2599
vn 0.9656 -0.0000 -0.2598
vn 0.2784 -0.0000 0.9605
vn 0.2785 -0.0000 0.9604
vn -0.2784 0.0000 -0.9605
vn 0.2783 -0.0000 0.9605
vn 0.2786 0.0000 0.9604
vn 0.4073 -0.0000 -0.9133
vn 0.4069 -0.0000 -0.9135
vn 0.4068 -0.0000 -0.9135
vn -0.9998 -0.0000 -0.0214
vn 0.9998 0.0000 0.0214
usemtl 23___Default
s 1
f 1/1/1 2/2/1 3/3/1 4/4/1
f 5/5/2 6/6/2 7/7/2 8/8/2
f 9/9/1 10/10/1 11/11/1 12/12/1
f 13/13/2 14/14/2 15/15/2 16/16/2
f 17/17/3 18/18/3 19/19/3 20/20/3
f 21/21/4 22/22/4 23/23/4 24/24/4
f 25/25/3 26/26/3 27/27/3 28/28/3
f 29/29/4 30/30/4 31/31/4 32/32/4
f 12/12/1 11/11/1 33/33/1 34/34/1
f 35/35/3 36/36/3 37/37/3 38/38/3
f 39/39/4 40/40/4 41/41/4 42/42/4
f 34/34/1 33/33/1 43/43/1 44/44/1
f 36/36/3 35/35/3 45/45/3 46/46/3
f 40/40/4 39/39/4 47/47/4 48/48/4
f 49/49/5 50/50/5 51/51/5 52/52/5
f 53/53/6 54/54/6 55/55/6 56/56/6
f 57/57/3 58/58/3 59/59/3 60/60/3
f 61/61/4 62/62/4 63/63/4 64/64/4
f 16/16/2 15/15/2 65/65/2 66/66/2
f 67/67/7 68/68/7 69/69/7 70/70/7
f 71/71/8 72/72/8 73/73/8 74/74/8
f 75/75/9 76/76/9 77/77/9 78/78/9
f 79/79/10 80/80/10 81/81/10 82/82/10
f 83/83/9 84/84/9 85/85/9 86/86/9
f 87/87/10 88/88/10 89/89/10 90/90/10
f 91/91/9 92/92/9 84/84/9 83/83/9
f 93/93/10 94/94/10 88/88/10 87/87/10
f 95/95/9 96/96/9 76/76/9 75/75/9
f 97/97/10 98/98/10 80/80/10 79/79/10
f 78/78/9 77/77/9 99/99/9 100/100/9
f 101/101/1 102/102/1 3/3/1 2/2/1
f 103/103/5 104/104/5 52/52/5 51/51/5
f 56/56/6 105/105/6 106/106/6 53/53/6
f 38/38/3 37/37/3 107/107/3 108/108/3
f 42/42/4 41/41/4 109/109/4 110/110/4
f 58/58/3 57/57/3 108/108/3 107/107/3
f 62/62/4 61/61/4 110/110/4 109/109/4
f 111/111/11 112/112/11 113/113/11 114/114/11
f 115/115/1 116/116/1 117/117/1 118/118/1
f 18/18/3 17/17/3 119/119/3 120/120/3
f 23/23/4 22/22/4 121/121/4 122/122/4
f 123/123/2 124/124/2 125/125/2 126/126/2
f 127/127/8 128/128/8 73/73/8 72/72/8
f 129/129/12 130/130/12 131/131/13 132/132/13
f 133/133/5 134/134/5 135/135/5 136/136/5
f 137/137/6 138/138/6 139/139/6 140/140/6
f 44/44/1 43/43/1 118/118/1 117/117/1
f 46/46/3 45/45/3 120/120/3 119/119/3
f 48/48/4 47/47/4 122/122/4 121/121/4
f 66/66/2 65/65/2 126/126/2 125/125/2
f 104/104/5 103/103/5 136/136/5 135/135/5
f 106/106/6 105/105/6 140/140/6 139/139/6
f 90/90/10 89/89/10 141/141/10 142/142/10
f 143/143/14 144/144/14 145/145/15
f 146/146/14 147/147/14 148/148/14
f 149/149/16 150/150/16 151/151/16 152/152/16
f 153/153/16 154/154/16 155/155/16 156/156/16
f 157/157/17 158/158/15 159/159/15 145/145/15
f 157/157/17 145/145/15 160/160/18
f 161/161/14 148/148/14 162/162/14
f 163/163/16 164/164/16 152/152/16 165/165/16
f 156/156/16 166/166/16 165/165/16 167/167/16
f 165/165/16 168/168/16 163/163/16
f 162/162/14 148/148/14 147/147/14 143/143/14
f 147/147/14 169/169/14 143/143/14
f 143/143/14 145/145/15 159/159/15 162/162/14
f 170/170/14 144/144/14 171/171/14 161/161/14
f 161/161/14 171/171/14 146/146/14 148/148/14
f 152/152/16 164/164/16 149/149/16
f 163/163/16 172/172/16 164/164/16
f 155/155/16 154/154/16 172/172/16 173/173/16
f 168/168/16 173/173/16 172/172/16 163/163/16
f 151/151/16 154/154/16 153/153/16 174/174/16
f 151/151/16 175/175/16 172/172/16 154/154/16
f 60/60/3 59/59/3 28/28/3 27/27/3
f 64/64/4 63/63/4 32/32/4 31/31/4
f 116/116/1 115/115/1 102/102/1 101/101/1
f 176/176/5 177/177/5 134/134/5 133/133/5
f 178/178/6 138/138/6 137/137/6 179/179/6
f 124/124/2 123/123/2 6/6/2 5/5/2
f 180/180/10 181/181/10 82/82/10 81/81/10
f 182/182/7 183/183/7 184/184/7 185/185/7
f 186/186/7 185/185/7 184/184/7 187/187/7
f 185/185/7 186/186/7 70/70/7 182/182/7
f 182/182/7 70/70/7 69/69/7 183/183/7
f 127/127/8 188/188/8 189/189/8 128/128/8
f 130/130/12 129/129/12 100/100/9 99/99/9
f 190/190/19 191/191/20 192/192/20 193/193/20
f 190/190/19 193/193/20 194/194/20
f 195/195/11 196/196/11 197/197/11 198/198/11
f 198/198/11 197/197/11 199/199/11 200/200/11
f 152/152/16 151/151/16 174/174/16 167/167/16
f 152/152/16 167/167/16 165/165/16
f 201/201/17 170/170/14 161/161/14 158/158/15
f 158/158/15 161/161/14 162/162/14 159/159/15
f 202/202/17 170/170/14 201/201/17
f 160/160/18 145/145/15 144/144/14 202/202/17
f 202/202/17 144/144/14 170/170/14
f 132/132/13 131/131/13 86/86/9 85/85/9
f 181/181/10 180/180/10 142/142/10 141/141/10
f 203/203/19 204/204/20 205/205/20 206/206/20
f 203/203/19 206/206/20 207/207/21
f 112/112/11 111/111/11 196/196/11 195/195/11
f 112/112/11 195/195/11 198/198/11 200/200/11
f 156/156/16 155/155/16 173/173/16 166/166/16
f 156/156/16 167/167/16 174/174/16 153/153/16
f 201/201/17 158/158/15 157/157/17 202/202/17
f 160/160/18 202/202/17 157/157/17
f 168/168/16 165/165/16 166/166/16 173/173/16
f 207/207/21 191/191/20 203/203/19
f 204/204/20 203/203/19 191/191/20 190/190/19
f 204/204/20 190/190/19 194/194/20
f 208/208/22 209/209/22 210/210/22 211/211/22
f 210/210/22 212/212/22 211/211/22
f 213/213/23 214/214/23 215/215/23 216/216/23
f 217/217/22 218/218/22 219/219/22 220/220/22
f 221/221/23 222/222/23 223/223/23 224/224/23
f 225/225/22 226/226/22 208/208/22 211/211/22
f 227/227/23 228/228/23 214/214/23 213/213/23
f 229/229/22 230/230/22 218/218/22 217/217/22
f 231/231/23 224/224/23 223/223/23 216/216/23
f 231/231/23 216/216/23 215/215/23
f 210/210/22 209/209/22 220/220/22 219/219/22
f 212/212/22 210/210/22 219/219/22
