# Blender v2.78 (sub 0) OBJ File: ''
# www.blender.org
mtllib Shrubs - 003.mtl
o shrub___003
v 25.600000 0.000000 -0.000003
v 25.600000 51.200001 0.000005
v 0.000007 51.200001 0.000005
v 0.000003 0.000000 -0.000003
v 25.600000 51.200001 -0.000019
v 25.600000 0.000002 -0.000028
v 0.000079 0.000002 -0.000028
v 0.000079 51.200001 -0.000019
v -25.600000 51.200001 0.000005
v -25.600000 0.000000 -0.000003
v -25.600000 0.000002 -0.000028
v -25.600000 51.200001 -0.000019
v 6.709103 0.000002 24.705212
v 0.000006 0.000000 -0.000004
v 0.000021 51.200001 0.000005
v 6.709114 51.200001 24.705206
v -0.000005 51.200001 0.000006
v -0.000019 0.000003 -0.000002
v 6.709079 0.000003 24.705217
v 6.709090 51.200008 24.705212
v -6.709095 -0.000003 -24.705233
v -6.709085 51.200001 -24.705238
v -6.709108 51.200001 -24.705233
v -6.709119 0.000002 -24.705227
v 20.541227 0.000003 15.278017
v 0.000015 0.000000 -0.000003
v 0.000047 51.200001 0.000004
v 20.541227 51.200001 15.278002
v 0.000007 51.200001 0.000006
v -0.000027 0.000000 -0.000003
v 20.541212 0.000005 15.278037
v 20.541212 51.200008 15.278022
v -20.541220 -0.000003 -15.278041
v -20.541220 51.199997 -15.278056
v -20.541235 51.200001 -15.278037
v -20.541235 -0.000003 -15.278022
v -19.245535 0.000000 16.881033
v -19.245546 51.200001 16.881020
v -0.000050 51.200001 0.000004
v -0.000014 0.000000 -0.000003
v -19.245529 51.200001 16.881039
v -19.245518 0.000002 16.881050
v 0.000024 0.000003 -0.000003
v -0.000012 51.200001 0.000005
v 19.245512 51.200001 -16.881065
v 19.245525 0.000000 -16.881054
v 19.245543 0.000003 -16.881035
v 19.245529 51.200001 -16.881048
v 0.000008 -0.528449 -0.000005
v 28.693970 5.640381 -9.433433
v 0.000025 51.200001 -0.000001
v 18.961208 55.804859 -6.233680
v 0.000025 51.728455 -0.000001
v -28.693970 45.559616 9.433437
v -18.961208 -4.604862 6.233685
v 0.000009 51.200001 -0.000021
v 0.000009 51.728455 -0.000021
v 18.961201 55.804867 -6.233703
v 28.693964 5.640384 -9.433455
v -0.000005 0.000000 -0.000026
v -0.000005 -0.528449 -0.000026
v -18.961218 -4.604862 6.233662
v -28.693979 45.559620 9.433414
v 0.000023 51.728443 -0.000002
v 16.623678 45.559612 25.218779
v 0.000009 0.000000 -0.000005
v 10.985056 -4.604862 16.664770
v 0.000009 -0.528449 -0.000005
v -16.623661 5.640386 -25.218807
v -10.985038 55.804859 -16.664799
v -0.000015 0.000000 0.000004
v -0.000015 -0.528449 0.000004
v 10.985035 -4.604862 16.664785
v 16.623659 45.559620 25.218794
v -0.000001 51.200001 0.000007
v -0.000001 51.728451 0.000007
v -10.985058 55.804867 -16.664785
v -16.623680 5.640387 -25.218792
v 0.000045 51.728436 -0.000007
v 28.653660 45.559620 9.555167
v 0.000029 0.000002 -0.000011
v 18.934574 -4.604856 6.314127
v 0.000029 -0.528452 -0.000011
v -28.653654 5.640382 -9.555209
v -18.934568 55.804859 -6.314167
v -0.000009 -0.000003 0.000002
v -0.000009 -0.528442 0.000002
v 18.934566 -4.604856 6.314151
v 28.653650 45.559620 9.555191
v 0.000005 51.199997 0.000006
v 0.000005 51.728443 0.000006
v -18.934576 55.804859 -6.314144
v -28.653662 5.640386 -9.555186
v -0.000013 -0.528442 0.000001
v -15.350962 5.640386 26.013092
v -0.000044 51.199997 0.000023
v -10.144053 55.804859 17.189646
v -0.000044 51.728455 0.000023
v 15.350940 45.559612 -26.013128
v 10.144031 -4.604862 -17.189680
v -0.000008 51.200001 0.000011
v -0.000008 51.728455 0.000011
v -10.144031 55.804867 17.189657
v -15.350940 5.640388 26.013105
v 0.000021 0.000000 -0.000008
v 0.000022 -0.528449 -0.000009
v 10.144052 -4.604862 -17.189667
v 15.350963 45.559620 -26.013117
v 0.165501 0.000000 25.599466
v -0.000006 0.000000 -0.000003
v 0.000006 51.200001 0.000005
v 0.165513 51.200001 25.599466
v -0.000018 51.200001 0.000005
v -0.000031 0.000000 -0.000003
v 0.165476 0.000000 25.599466
v 0.165488 51.200001 25.599466
v -0.165513 0.000002 -25.599461
v -0.165501 51.200001 -25.599461
v -0.165525 51.200001 -25.599461
v -0.165537 0.000002 -25.599461
vt 0.4179 0.5821
vt 0.4179 0.9900
vt 0.2139 0.9900
vt 0.2139 0.5821
vt 0.4179 0.9900
vt 0.4179 0.5821
vt 0.2139 0.5821
vt 0.2139 0.9900
vt 0.0100 0.9900
vt 0.0100 0.5821
vt 0.0100 0.5821
vt 0.0100 0.9900
vt 0.0100 0.5821
vt 0.2139 0.5821
vt 0.2139 0.9900
vt 0.0100 0.9900
vt 0.2139 0.9900
vt 0.2139 0.5821
vt 0.0100 0.5821
vt 0.0100 0.9900
vt 0.4179 0.5821
vt 0.4179 0.9900
vt 0.4179 0.9900
vt 0.4179 0.5821
vt 0.0100 0.5821
vt 0.2139 0.5821
vt 0.2139 0.9900
vt 0.0100 0.9900
vt 0.2139 0.9900
vt 0.2139 0.5821
vt 0.0100 0.5821
vt 0.0100 0.9900
vt 0.4179 0.5821
vt 0.4179 0.9900
vt 0.4179 0.9900
vt 0.4179 0.5821
vt 0.4179 0.5821
vt 0.4179 0.9900
vt 0.2139 0.9900
vt 0.2139 0.5821
vt 0.4179 0.9900
vt 0.4179 0.5821
vt 0.2139 0.5821
vt 0.2139 0.9900
vt 0.0100 0.9900
vt 0.0100 0.5821
vt 0.0100 0.5821
vt 0.0100 0.9900
vt 0.1723 0.5821
vt 0.4179 0.5821
vt 0.2548 0.9859
vt 0.4179 0.9900
vt 0.2556 0.9900
vt 0.0100 0.9900
vt 0.0100 0.5821
vt 0.2548 0.9859
vt 0.2556 0.9900
vt 0.4179 0.9900
vt 0.4179 0.5821
vt 0.1731 0.5862
vt 0.1723 0.5821
vt 0.0100 0.5821
vt 0.0100 0.9900
vt 0.2556 0.9900
vt 0.0100 0.9900
vt 0.1731 0.5862
vt 0.0100 0.5821
vt 0.1723 0.5821
vt 0.4179 0.5821
vt 0.4179 0.9900
vt 0.1731 0.5862
vt 0.1723 0.5821
vt 0.0100 0.5821
vt 0.0100 0.9900
vt 0.2548 0.9859
vt 0.2556 0.9900
vt 0.4179 0.9900
vt 0.4179 0.5821
vt 0.2556 0.9900
vt 0.0100 0.9900
vt 0.1731 0.5862
vt 0.0100 0.5821
vt 0.1723 0.5821
vt 0.4179 0.5821
vt 0.4179 0.9900
vt 0.1731 0.5862
vt 0.1723 0.5821
vt 0.0100 0.5821
vt 0.0100 0.9900
vt 0.2548 0.9859
vt 0.2556 0.9900
vt 0.4179 0.9900
vt 0.4179 0.5821
vt 0.1723 0.5821
vt 0.4179 0.5821
vt 0.2548 0.9859
vt 0.4179 0.9900
vt 0.2556 0.9900
vt 0.0100 0.9900
vt 0.0100 0.5821
vt 0.2548 0.9859
vt 0.2556 0.9900
vt 0.4179 0.9900
vt 0.4179 0.5821
vt 0.1731 0.5862
vt 0.1723 0.5821
vt 0.0100 0.5821
vt 0.0100 0.9900
vt 0.0100 0.5821
vt 0.2139 0.5821
vt 0.2139 0.9900
vt 0.0100 0.9900
vt 0.2139 0.9900
vt 0.2139 0.5821
vt 0.0100 0.5821
vt 0.0100 0.9900
vt 0.4179 0.5821
vt 0.4179 0.9900
vt 0.4179 0.9900
vt 0.4179 0.5821
vn 0.0000 -0.0000 1.0000
vn 0.0000 0.0000 -1.0000
vn 0.9650 -0.0000 -0.2621
vn -0.9650 0.0000 0.2621
vn 0.5968 -0.0000 -0.8024
vn -0.5968 0.0000 0.8024
vn -0.6594 -0.0000 -0.7518
vn 0.6594 0.0000 0.7518
vn 0.3123 -0.0000 0.9500
vn -0.3123 0.0000 -0.9500
vn 0.8349 -0.0000 -0.5504
vn -0.8349 0.0000 0.5504
vn 0.3163 -0.0000 -0.9486
vn -0.3163 0.0000 0.9486
vn -0.8612 -0.0000 -0.5082
vn 0.8612 0.0000 0.5082
vn 1.0000 -0.0000 -0.0065
vn -1.0000 0.0000 0.0065
usemtl 22___Default
s 1
f 1/1/1 2/2/1 3/3/1 4/4/1
f 5/5/2 6/6/2 7/7/2 8/8/2
f 9/9/1 10/10/1 4/4/1 3/3/1
f 11/11/2 12/12/2 8/8/2 7/7/2
f 13/13/3 14/14/3 15/15/3 16/16/3
f 17/17/4 18/18/4 19/19/4 20/20/4
f 21/21/3 22/22/3 15/15/3 14/14/3
f 23/23/4 24/24/4 18/18/4 17/17/4
f 25/25/5 26/26/5 27/27/5 28/28/5
f 29/29/6 30/30/6 31/31/6 32/32/6
f 33/33/5 34/34/5 27/27/5 26/26/5
f 35/35/6 36/36/6 30/30/6 29/29/6
f 37/37/7 38/38/7 39/39/7 40/40/7
f 41/41/8 42/42/8 43/43/8 44/44/8
f 45/45/7 46/46/7 40/40/7 39/39/7
f 47/47/8 48/48/8 44/44/8 43/43/8
f 49/49/9 50/50/9 51/51/9
f 51/51/9 50/50/9 52/52/9 53/53/9
f 51/51/9 53/53/9 54/54/9 55/55/9
f 51/51/9 55/55/9 49/49/9
f 56/56/10 57/57/10 58/58/10 59/59/10
f 60/60/10 56/56/10 59/59/10 61/61/10
f 60/60/10 61/61/10 62/62/10 63/63/10
f 56/56/10 60/60/10 63/63/10 57/57/10
f 64/64/11 65/65/11 66/66/11
f 66/66/11 65/65/11 67/67/11 68/68/11
f 66/66/11 68/68/11 69/69/11 70/70/11
f 66/66/11 70/70/11 64/64/11
f 71/71/12 72/72/12 73/73/12 74/74/12
f 75/75/12 71/71/12 74/74/12 76/76/12
f 75/75/12 76/76/12 77/77/12 78/78/12
f 71/71/12 75/75/12 78/78/12 72/72/12
f 79/79/13 80/80/13 81/81/13
f 81/81/13 80/80/13 82/82/13 83/83/13
f 81/81/13 83/83/13 84/84/13 85/85/13
f 81/81/13 85/85/13 79/79/13
f 86/86/14 87/87/14 88/88/14 89/89/14
f 90/90/14 86/86/14 89/89/14 91/91/14
f 90/90/14 91/91/14 92/92/14 93/93/14
f 86/86/14 90/90/14 93/93/14 87/87/14
f 94/94/15 95/95/15 96/96/15
f 96/96/15 95/95/15 97/97/15 98/98/15
f 96/96/15 98/98/15 99/99/15 100/100/15
f 96/96/15 100/100/15 94/94/15
f 101/101/16 102/102/16 103/103/16 104/104/16
f 105/105/16 101/101/16 104/104/16 106/106/16
f 105/105/16 106/106/16 107/107/16 108/108/16
f 101/101/16 105/105/16 108/108/16 102/102/16
f 109/109/17 110/110/17 111/111/17 112/112/17
f 113/113/18 114/114/18 115/115/18 116/116/18
f 117/117/17 118/118/17 111/111/17 110/110/17
f 119/119/18 120/120/18 114/114/18 113/113/18
